M48
; DRILL file {KiCad 6.99.0-unknown-af20d46d06~146~ubuntu21.10.1} date Sat 22 Jan 2022 03:47:54 PM EST
; FORMAT={-:-/ absolute / inch / decimal}
; #@! TF.CreationDate,2022-01-22T15:47:54-05:00
; #@! TF.GenerationSoftware,Kicad,Pcbnew,6.99.0-unknown-af20d46d06~146~ubuntu21.10.1
; #@! TF.FileFunction,Plated,1,2,PTH
FMAT,2
INCH
; #@! TA.AperFunction,Plated,PTH,ViaDrill
T1C0.0157
; #@! TA.AperFunction,Plated,PTH,ComponentDrill
T2C0.0394
; #@! TA.AperFunction,Plated,PTH,ComponentDrill
T3C0.0579
; #@! TA.AperFunction,Plated,PTH,ComponentDrill
T4C0.0591
%
G90
G05
T1
X0.4036Y-0.765
X0.6418Y-1.4099
X0.6758Y-1.4668
X0.75Y-1.85
X0.7789Y-1.4139
X0.7937Y-1.2319
X0.8076Y-1.385
X0.836Y-1.4122
X0.8899Y-0.4505
X0.8998Y-1.263
X0.9013Y-1.2033
X0.9236Y-0.552
X0.9405Y-3.4505
X0.9693Y-2.7004
X0.9728Y-0.552
X0.975Y-0.975
X0.9982Y-1.1932
X1.022Y-0.552
X1.0334Y-1.9665
X1.1395Y-2.1248
X1.1559Y-1.1927
X1.2068Y-0.9154
X1.2252Y-1.9
X1.2368Y-2.1508
X1.256Y-0.9154
X1.2991Y-1.9125
X1.3052Y-0.9154
X1.3484Y-1.1598
X1.4521Y-1.913
X1.4874Y-1.2543
X1.5857Y-0.7827
X1.6097Y-1.3016
X1.6753Y-0.552
X1.9389Y-1.271
X3.5Y-3.655
X3.64Y-3.55
X4.54Y-3.61
X10.59Y-0.32
X10.865Y-0.195
X11.165Y-2.115
X11.26Y-0.755
T2
X0.2043Y-0.6192
X0.2043Y-0.7192
X0.2043Y-0.8192
X0.3043Y-0.6192
X0.3043Y-0.7192
X0.3043Y-0.8192
X11.3096Y-0.2559
X11.3096Y-0.3543
X11.3096Y-0.4528
X11.8804Y-0.2559
X11.8804Y-0.4528
T3
X0.2043Y-0.2543
X0.2559Y-0.1969
X0.2981Y-3.2543
X0.3187Y-2.5043
X0.3481Y-2.0543
X0.3497Y-2.0315
X0.3497Y-3.1969
X0.3703Y-2.4469
X0.3918Y-1.0043
X0.3918Y-3.2543
X0.4434Y-0.9469
X0.4434Y-3.1969
X0.4528Y-0.1772
X0.4543Y-0.1543
X0.4856Y-1.7543
X0.5372Y-1.6969
X0.5465Y-2.0118
X0.5465Y-3.1772
X0.5481Y-3.1543
X0.5672Y-2.4272
X0.5687Y-2.4043
X0.5981Y-1.9543
X0.6403Y-0.9272
X0.6403Y-3.1772
X0.6418Y-0.9043
X0.6418Y-3.1543
X0.6731Y-2.5043
X0.7247Y-2.4469
X0.734Y-1.6772
X0.7356Y-1.6543
X0.9215Y-2.4272
X0.9231Y-2.4043
X0.9543Y-0.2543
X1.0059Y-0.1969
X1.14Y-2.505
X1.1916Y-2.4475
X1.2028Y-0.1772
X1.2043Y-0.1543
X1.2356Y-3.2543
X1.2872Y-3.1969
X1.3293Y-3.2543
X1.3809Y-0.9469
X1.3809Y-3.1969
X1.3884Y-2.4278
X1.39Y-2.405
X1.484Y-3.1772
X1.4856Y-3.1543
X1.56Y-3.555
X1.5616Y-3.5322
X1.5684Y-1.6969
X1.5778Y-0.9272
X1.5778Y-3.1772
X1.5793Y-3.1543
X1.7043Y-0.2543
X1.7559Y-0.1969
X1.7584Y-3.5125
X1.7653Y-1.6772
X1.81Y-3.455
X1.8918Y-2.5043
X1.9434Y-2.4469
X1.9528Y-0.1772
X1.9543Y-0.1543
X2.1309Y-0.9469
X2.1403Y-2.4272
X2.1418Y-2.4043
X2.1731Y-3.2543
X2.2247Y-3.1969
X2.2668Y-3.2543
X2.3184Y-1.6969
X2.3184Y-3.1969
X2.3278Y-0.9272
X2.4215Y-3.1772
X2.4231Y-3.1543
X2.4543Y-0.2543
X2.5059Y-0.1969
X2.5153Y-1.6772
X2.5153Y-3.1772
X2.5168Y-3.1543
X2.635Y-3.255
X2.6866Y-3.1975
X2.6934Y-2.4469
X2.7028Y-0.1772
X2.7043Y-0.1543
X2.8809Y-0.9469
X2.8834Y-3.1778
X2.885Y-3.155
X2.8903Y-2.4272
X3.0684Y-1.6969
X3.0778Y-0.9272
X3.2043Y-0.2543
X3.2559Y-0.1969
X3.2653Y-1.6772
X3.4434Y-2.4469
X3.4528Y-0.1772
X3.4543Y-0.1543
X3.54Y-3.5528
X3.5416Y-3.5299
X3.6309Y-0.9469
X3.6403Y-2.4272
X3.675Y-3.2528
X3.7266Y-3.1953
X3.7384Y-3.5103
X3.79Y-3.4528
X3.8184Y-1.6969
X3.8278Y-0.9272
X3.9234Y-3.1756
X3.925Y-3.1528
X3.9543Y-0.2543
X4.0059Y-0.1969
X4.0153Y-1.6772
X4.1934Y-2.4469
X4.2028Y-0.1772
X4.2043Y-0.1543
X4.3809Y-0.9469
X4.3903Y-2.4272
X4.5684Y-1.6969
X4.5778Y-0.9272
X4.7043Y-0.2543
X4.7559Y-0.1969
X4.7653Y-1.6772
X4.85Y-3.555
X4.8516Y-3.5322
X4.9434Y-2.4469
X4.9528Y-0.1772
X4.9543Y-0.1543
X4.9856Y-3.2543
X5.0372Y-3.1969
X5.0484Y-3.5125
X5.1Y-3.455
X5.1309Y-0.9469
X5.1403Y-2.4272
X5.225Y-3.555
X5.2266Y-3.5322
X5.234Y-3.1772
X5.2356Y-3.1543
X5.3184Y-1.6969
X5.3278Y-0.9272
X5.4234Y-3.5125
X5.4543Y-0.2543
X5.4543Y-3.2543
X5.475Y-3.455
X5.5059Y-0.1969
X5.5059Y-3.1969
X5.5153Y-1.6772
X5.69Y-3.5528
X5.6916Y-3.5299
X5.6934Y-2.4469
X5.7028Y-0.1772
X5.7028Y-3.1772
X5.7043Y-0.1543
X5.7043Y-3.1543
X5.8809Y-0.9469
X5.8884Y-3.5103
X5.8903Y-2.4272
X5.94Y-3.4528
X6.0684Y-1.6969
X6.0778Y-0.9272
X6.2043Y-0.2543
X6.2559Y-0.1969
X6.2653Y-1.6772
X6.35Y-3.555
X6.3516Y-3.5322
X6.4434Y-2.4469
X6.4528Y-0.1772
X6.4543Y-0.1543
X6.49Y-3.2528
X6.5416Y-3.1953
X6.5484Y-3.5125
X6.6Y-3.455
X6.6309Y-0.9469
X6.6403Y-2.4272
X6.7384Y-3.1756
X6.74Y-3.1528
X6.8184Y-1.6969
X6.8278Y-0.9272
X6.9543Y-0.2543
X7.0059Y-0.1969
X7.0153Y-1.6772
X7.1934Y-2.4469
X7.2028Y-0.1772
X7.2043Y-0.1543
X7.3809Y-0.9469
X7.3903Y-2.4272
X7.5684Y-1.6969
X7.5778Y-0.9272
X7.7043Y-0.2543
X7.7559Y-0.1969
X7.7653Y-1.6772
X7.7981Y-3.2543
X7.8497Y-3.1969
X7.9434Y-2.4469
X7.9528Y-0.1772
X7.9543Y-0.1543
X8.0465Y-3.1772
X8.0481Y-3.1543
X8.1309Y-0.9469
X8.1403Y-2.4272
X8.3184Y-1.6969
X8.3278Y-0.9272
X8.4543Y-0.2543
X8.5059Y-0.1969
X8.5153Y-1.6772
X8.6418Y-3.2543
X8.6934Y-2.4469
X8.6934Y-3.1969
X8.7028Y-0.1772
X8.7043Y-0.1543
X8.7356Y-3.2543
X8.7872Y-3.1969
X8.8809Y-0.9469
X8.8903Y-2.4272
X8.8903Y-3.1772
X8.8918Y-3.1543
X8.984Y-3.1772
X8.9856Y-3.1543
X9.0684Y-1.6969
X9.0778Y-0.9272
X9.2043Y-0.2543
X9.2559Y-0.1969
X9.2653Y-1.6772
X9.4528Y-0.1772
X9.4543Y-0.1543
X9.6309Y-0.9469
X9.6731Y-2.5043
X9.7247Y-2.4469
X9.765Y-1.755
X9.8166Y-1.6975
X9.8278Y-0.9272
X9.9215Y-2.4272
X9.9231Y-2.4043
X9.9543Y-0.2543
X9.9543Y-3.2543
X10.0059Y-0.1969
X10.0059Y-3.1969
X10.0134Y-1.6778
X10.015Y-1.655
X10.2028Y-0.1772
X10.2028Y-3.1772
X10.2043Y-0.1543
X10.2043Y-3.1543
X10.2356Y-1.7543
X10.2872Y-1.6969
X10.3293Y-0.2543
X10.3809Y-0.1969
X10.484Y-1.6772
X10.4856Y-1.6543
X10.5168Y-1.0043
X10.5684Y-0.9469
X10.5778Y-0.1772
X10.5793Y-0.1543
X10.6616Y-1.6572
X10.7043Y-0.2543
X10.7043Y-2.5043
X10.7043Y-3.2543
X10.7559Y-0.1969
X10.7559Y-2.4469
X10.7559Y-3.1969
X10.7653Y-0.9272
X10.7668Y-0.9043
X10.8584Y-1.6375
X10.86Y-1.33
X10.9175Y-1.3816
X10.9372Y-1.5784
X10.9528Y-0.1772
X10.9528Y-2.4272
X10.9528Y-3.1772
X10.9543Y-0.1543
X10.9543Y-2.4043
X10.9543Y-3.1543
X10.96Y-1.58
X11.4543Y-0.2543
X11.4543Y-1.0043
X11.4543Y-1.7543
X11.4543Y-2.5043
X11.4543Y-3.2543
X11.5059Y-0.9469
X11.5059Y-1.6969
X11.5059Y-2.4469
X11.5059Y-3.1969
X11.7028Y-0.9272
X11.7028Y-1.6772
X11.7028Y-2.4272
X11.7028Y-3.1772
X11.7043Y-0.1543
X11.7043Y-0.9043
X11.7043Y-1.6543
X11.7043Y-2.4043
X11.7043Y-3.1543
T4
G00X11.5793Y-0.1339
M15
G01X11.6304Y-0.1339
M16
G05
G00X11.5793Y-0.5748
M15
G01X11.6304Y-0.5748
M16
G05
T0
M30
