G04 #@! TF.GenerationSoftware,KiCad,Pcbnew,6.99.0-unknown-af20d46d06~146~ubuntu21.10.1*
G04 #@! TF.CreationDate,2022-01-22T15:47:32-05:00*
G04 #@! TF.ProjectId,bakeneko-65-pcb,62616b65-6e65-46b6-9f2d-36352d706362,rev?*
G04 #@! TF.SameCoordinates,Original*
G04 #@! TF.FileFunction,Soldermask,Bot*
G04 #@! TF.FilePolarity,Negative*
%FSLAX46Y46*%
G04 Gerber Fmt 4.6, Leading zero omitted, Abs format (unit mm)*
G04 Created by KiCad (PCBNEW 6.99.0-unknown-af20d46d06~146~ubuntu21.10.1) date 2022-01-22 15:47:32*
%MOMM*%
%LPD*%
G01*
G04 APERTURE LIST*
G04 Aperture macros list*
%AMRoundRect*
0 Rectangle with rounded corners*
0 $1 Rounding radius*
0 $2 $3 $4 $5 $6 $7 $8 $9 X,Y pos of 4 corners*
0 Add a 4 corners polygon primitive as box body*
4,1,4,$2,$3,$4,$5,$6,$7,$8,$9,$2,$3,0*
0 Add four circle primitives for the rounded corners*
1,1,$1+$1,$2,$3*
1,1,$1+$1,$4,$5*
1,1,$1+$1,$6,$7*
1,1,$1+$1,$8,$9*
0 Add four rect primitives between the rounded corners*
20,1,$1+$1,$2,$3,$4,$5,0*
20,1,$1+$1,$4,$5,$6,$7,0*
20,1,$1+$1,$6,$7,$8,$9,0*
20,1,$1+$1,$8,$9,$2,$3,0*%
%AMHorizOval*
0 Thick line with rounded ends*
0 $1 width*
0 $2 $3 position (X,Y) of the first rounded end (center of the circle)*
0 $4 $5 position (X,Y) of the second rounded end (center of the circle)*
0 Add line between two ends*
20,1,$1,$2,$3,$4,$5,0*
0 Add two circle primitives to create the rounded ends*
1,1,$1,$2,$3*
1,1,$1,$4,$5*%
G04 Aperture macros list end*
%ADD10C,1.850000*%
%ADD11C,2.350000*%
%ADD12C,4.087800*%
%ADD13RoundRect,0.050000X-1.000000X-1.000000X1.000000X-1.000000X1.000000X1.000000X-1.000000X1.000000X0*%
%ADD14C,2.100000*%
%ADD15RoundRect,0.050000X-1.600000X-1.000000X1.600000X-1.000000X1.600000X1.000000X-1.600000X1.000000X0*%
%ADD16RoundRect,0.293750X-0.243750X-0.456250X0.243750X-0.456250X0.243750X0.456250X-0.243750X0.456250X0*%
%ADD17HorizOval,2.350000X0.655001X0.730000X-0.655001X-0.730000X0*%
%ADD18HorizOval,2.350000X0.020000X0.290000X-0.020000X-0.290000X0*%
%ADD19C,3.148000*%
%ADD20HorizOval,2.350000X-0.655001X-0.730000X0.655001X0.730000X0*%
%ADD21HorizOval,2.350000X-0.020000X-0.290000X0.020000X0.290000X0*%
%ADD22C,1.801800*%
%ADD23HorizOval,2.350000X0.290000X-0.019999X-0.290000X0.019999X0*%
%ADD24HorizOval,2.350000X0.730004X-0.654995X-0.730004X0.654995X0*%
%ADD25RoundRect,0.300000X-0.375000X-0.625000X0.375000X-0.625000X0.375000X0.625000X-0.375000X0.625000X0*%
%ADD26RoundRect,0.200000X-0.625000X0.150000X-0.625000X-0.150000X0.625000X-0.150000X0.625000X0.150000X0*%
%ADD27RoundRect,0.300000X-0.650000X0.350000X-0.650000X-0.350000X0.650000X-0.350000X0.650000X0.350000X0*%
%ADD28HorizOval,1.800000X0.000000X0.000000X0.000000X0.000000X0*%
%ADD29RoundRect,0.050000X0.850000X0.850000X-0.850000X0.850000X-0.850000X-0.850000X0.850000X-0.850000X0*%
%ADD30RoundRect,0.050000X-0.850000X-0.500000X0.850000X-0.500000X0.850000X0.500000X-0.850000X0.500000X0*%
%ADD31RoundRect,0.293750X0.243750X0.456250X-0.243750X0.456250X-0.243750X-0.456250X0.243750X-0.456250X0*%
%ADD32RoundRect,0.050000X-0.275000X0.750000X-0.275000X-0.750000X0.275000X-0.750000X0.275000X0.750000X0*%
%ADD33RoundRect,0.050000X0.750000X0.275000X-0.750000X0.275000X-0.750000X-0.275000X0.750000X-0.275000X0*%
%ADD34RoundRect,0.050000X0.700000X0.600000X-0.700000X0.600000X-0.700000X-0.600000X0.700000X-0.600000X0*%
%ADD35RoundRect,0.293750X-0.456250X0.243750X-0.456250X-0.243750X0.456250X-0.243750X0.456250X0.243750X0*%
%ADD36RoundRect,0.050000X0.600000X-0.450000X0.600000X0.450000X-0.600000X0.450000X-0.600000X-0.450000X0*%
%ADD37RoundRect,0.050000X-0.450000X-0.600000X0.450000X-0.600000X0.450000X0.600000X-0.450000X0.600000X0*%
%ADD38RoundRect,0.050000X0.450000X0.600000X-0.450000X0.600000X-0.450000X-0.600000X0.450000X-0.600000X0*%
%ADD39RoundRect,0.293750X0.456250X-0.243750X0.456250X0.243750X-0.456250X0.243750X-0.456250X-0.243750X0*%
%ADD40RoundRect,0.050000X0.325000X-0.530000X0.325000X0.530000X-0.325000X0.530000X-0.325000X-0.530000X0*%
G04 APERTURE END LIST*
D10*
X299830000Y-9000000D03*
X289670000Y-9000000D03*
D11*
X290940000Y-6460000D03*
D12*
X294750000Y-9000000D03*
D11*
X297290000Y-3920000D03*
D13*
X287263000Y-6500000D03*
D14*
X287263000Y-11500000D03*
X287263000Y-9000000D03*
D15*
X294763000Y-3400000D03*
X294763000Y-14600000D03*
D14*
X301763000Y-11500000D03*
X301763000Y-6500000D03*
D16*
X287733500Y-18796000D03*
X289608500Y-18796000D03*
X292559500Y-18796000D03*
X294434500Y-18796000D03*
D10*
X3920000Y-9000000D03*
D12*
X9000000Y-9000000D03*
D10*
X14080000Y-9000000D03*
D17*
X5845000Y-5729999D03*
D11*
X6500000Y-5000000D03*
D18*
X11519999Y-4209999D03*
D11*
X11540000Y-3920000D03*
D10*
X22970000Y-9000000D03*
D12*
X28050000Y-9000000D03*
D10*
X33130000Y-9000000D03*
D17*
X24895000Y-5729999D03*
D11*
X25550000Y-5000000D03*
D18*
X30569999Y-4209999D03*
D11*
X30590000Y-3920000D03*
D10*
X42020000Y-9000000D03*
D12*
X47100000Y-9000000D03*
D10*
X52180000Y-9000000D03*
D17*
X43945000Y-5729999D03*
D11*
X44600000Y-5000000D03*
D18*
X49619999Y-4209999D03*
D11*
X49640000Y-3920000D03*
D10*
X61070000Y-9000000D03*
D12*
X66150000Y-9000000D03*
D10*
X71230000Y-9000000D03*
D17*
X62995000Y-5729999D03*
D11*
X63650000Y-5000000D03*
D18*
X68669999Y-4209999D03*
D11*
X68690000Y-3920000D03*
D10*
X80120000Y-9000000D03*
D12*
X85200000Y-9000000D03*
D10*
X90280000Y-9000000D03*
D17*
X82045000Y-5729999D03*
D11*
X82700000Y-5000000D03*
D18*
X87719999Y-4209999D03*
D11*
X87740000Y-3920000D03*
D10*
X99170000Y-9000000D03*
D12*
X104250000Y-9000000D03*
D10*
X109330000Y-9000000D03*
D17*
X101095000Y-5729999D03*
D11*
X101750000Y-5000000D03*
D18*
X106769999Y-4209999D03*
D11*
X106790000Y-3920000D03*
D10*
X118220000Y-9000000D03*
D12*
X123300000Y-9000000D03*
D10*
X128380000Y-9000000D03*
D17*
X120145000Y-5729999D03*
D11*
X120800000Y-5000000D03*
D18*
X125819999Y-4209999D03*
D11*
X125840000Y-3920000D03*
D10*
X156320000Y-9000000D03*
D12*
X161400000Y-9000000D03*
D10*
X166480000Y-9000000D03*
D17*
X158245000Y-5729999D03*
D11*
X158900000Y-5000000D03*
D18*
X163919999Y-4209999D03*
D11*
X163940000Y-3920000D03*
D10*
X175370000Y-9000000D03*
D12*
X180450000Y-9000000D03*
D10*
X185530000Y-9000000D03*
D17*
X177295000Y-5729999D03*
D11*
X177950000Y-5000000D03*
D18*
X182969999Y-4209999D03*
D11*
X182990000Y-3920000D03*
D10*
X194420000Y-9000000D03*
D12*
X199500000Y-9000000D03*
D10*
X204580000Y-9000000D03*
D17*
X196345000Y-5729999D03*
D11*
X197000000Y-5000000D03*
D18*
X202019999Y-4209999D03*
D11*
X202040000Y-3920000D03*
D10*
X213470000Y-9000000D03*
D12*
X218550000Y-9000000D03*
D10*
X223630000Y-9000000D03*
D17*
X215395000Y-5729999D03*
D11*
X216050000Y-5000000D03*
D18*
X221069999Y-4209999D03*
D11*
X221090000Y-3920000D03*
D10*
X232520000Y-9000000D03*
D12*
X237600000Y-9000000D03*
D10*
X242680000Y-9000000D03*
D17*
X234445000Y-5729999D03*
D11*
X235100000Y-5000000D03*
D18*
X240119999Y-4209999D03*
D11*
X240140000Y-3920000D03*
D10*
X251570000Y-9000000D03*
D12*
X256650000Y-9000000D03*
D10*
X261730000Y-9000000D03*
D17*
X253495000Y-5729999D03*
D11*
X254150000Y-5000000D03*
D18*
X259169999Y-4209999D03*
D11*
X259190000Y-3920000D03*
D19*
X254237000Y-2015000D03*
D12*
X254237000Y-17255000D03*
D10*
X261095000Y-9000000D03*
D12*
X266175000Y-9000000D03*
D10*
X271255000Y-9000000D03*
D19*
X278113000Y-2015000D03*
D12*
X278113000Y-17255000D03*
D17*
X263020000Y-5729999D03*
D11*
X263675000Y-5000000D03*
D18*
X268694999Y-4209999D03*
D11*
X268715000Y-3920000D03*
D10*
X8682500Y-28050000D03*
D12*
X13762500Y-28050000D03*
D10*
X18842500Y-28050000D03*
D17*
X10607500Y-24779999D03*
D11*
X11262500Y-24050000D03*
D18*
X16282499Y-23259999D03*
D11*
X16302500Y-22970000D03*
X35075000Y-24050000D03*
X40075000Y-23550000D03*
X54125000Y-24050000D03*
X59125000Y-23550000D03*
X73175000Y-24050000D03*
X78175000Y-23550000D03*
X92225000Y-24050000D03*
X97225000Y-23550000D03*
X111275000Y-24050000D03*
X116275000Y-23550000D03*
X130325000Y-24050000D03*
X135325000Y-23550000D03*
X149375000Y-24050000D03*
X154375000Y-23550000D03*
X168425000Y-24050000D03*
X173425000Y-23550000D03*
X187475000Y-24050000D03*
X192475000Y-23550000D03*
X206525000Y-24050000D03*
X211525000Y-23550000D03*
X225575000Y-24050000D03*
X230575000Y-23550000D03*
X244625000Y-24050000D03*
X249625000Y-23550000D03*
D10*
X265857500Y-28050000D03*
D12*
X270937500Y-28050000D03*
D10*
X276017500Y-28050000D03*
D17*
X267782500Y-24779999D03*
D11*
X268437500Y-24050000D03*
D18*
X273457499Y-23259999D03*
D11*
X273477500Y-22970000D03*
D10*
X289670000Y-28050000D03*
D12*
X294750000Y-28050000D03*
D10*
X299830000Y-28050000D03*
D17*
X291595000Y-24779999D03*
D11*
X292250000Y-24050000D03*
D18*
X297269999Y-23259999D03*
D11*
X297290000Y-22970000D03*
D10*
X16461250Y-47100000D03*
D12*
X11381250Y-47100000D03*
D10*
X6301250Y-47100000D03*
D20*
X14536248Y-50369999D03*
D11*
X13881250Y-51100000D03*
D21*
X8861249Y-51889999D03*
D11*
X8841250Y-52180000D03*
D10*
X11063750Y-47100000D03*
D12*
X16143750Y-47100000D03*
D10*
X21223750Y-47100000D03*
D17*
X12988750Y-43829999D03*
D11*
X13643750Y-43100000D03*
D18*
X18663749Y-42309999D03*
D11*
X18683750Y-42020000D03*
X39837500Y-43100000D03*
X44837500Y-42600000D03*
X58887500Y-43100000D03*
X63887500Y-42600000D03*
X77937500Y-43100000D03*
X82937500Y-42600000D03*
X96987500Y-43100000D03*
X101987500Y-42600000D03*
X116037500Y-43100000D03*
X121037500Y-42600000D03*
X135087500Y-43100000D03*
X140087500Y-42600000D03*
X154137500Y-43100000D03*
X159137500Y-42600000D03*
X173187500Y-43100000D03*
X178187500Y-42600000D03*
X192237500Y-43100000D03*
X197237500Y-42600000D03*
X211287500Y-43100000D03*
X216287500Y-42600000D03*
X230337500Y-43100000D03*
X235337500Y-42600000D03*
D19*
X251855750Y-40115000D03*
D12*
X251855750Y-55355000D03*
D10*
X258713750Y-47100000D03*
D12*
X263793750Y-47100000D03*
D10*
X268873750Y-47100000D03*
D19*
X275731750Y-40115000D03*
D12*
X275731750Y-55355000D03*
D17*
X260638750Y-43829999D03*
D11*
X261293750Y-43100000D03*
D18*
X266313749Y-42309999D03*
D11*
X266333750Y-42020000D03*
D10*
X289670000Y-47100000D03*
D12*
X294750000Y-47100000D03*
D10*
X299830000Y-47100000D03*
D17*
X291595000Y-43829999D03*
D11*
X292250000Y-43100000D03*
D18*
X297269999Y-42309999D03*
D11*
X297290000Y-42020000D03*
D19*
X8968250Y-59165000D03*
D12*
X8968250Y-74405000D03*
D10*
X15826250Y-66150000D03*
D12*
X20906250Y-66150000D03*
D10*
X25986250Y-66150000D03*
D19*
X32844250Y-59165000D03*
D12*
X32844250Y-74405000D03*
D17*
X17751250Y-62879999D03*
D11*
X18406250Y-62150000D03*
D18*
X23426249Y-61359999D03*
D11*
X23446250Y-61070000D03*
D10*
X46782500Y-66150000D03*
D12*
X51862500Y-66150000D03*
D10*
X56942500Y-66150000D03*
D17*
X48707500Y-62879999D03*
D11*
X49362500Y-62150000D03*
D18*
X54382499Y-61359999D03*
D11*
X54402500Y-61070000D03*
X68412500Y-62150000D03*
X73412500Y-61650000D03*
X87462500Y-62150000D03*
X92462500Y-61650000D03*
X106512500Y-62150000D03*
X111512500Y-61650000D03*
X125562500Y-62150000D03*
X130562500Y-61650000D03*
X144612500Y-62150000D03*
X149612500Y-61650000D03*
X163662500Y-62150000D03*
X168662500Y-61650000D03*
X182712500Y-62150000D03*
X187712500Y-61650000D03*
X201762500Y-62150000D03*
X206762500Y-61650000D03*
X220812500Y-62150000D03*
X225812500Y-61650000D03*
D10*
X244426250Y-66150000D03*
D12*
X249506250Y-66150000D03*
D10*
X254586250Y-66150000D03*
D17*
X246351250Y-62879999D03*
D11*
X247006250Y-62150000D03*
D18*
X252026249Y-61359999D03*
D11*
X252046250Y-61070000D03*
D10*
X270620000Y-66150000D03*
D12*
X275700000Y-66150000D03*
D10*
X280780000Y-66150000D03*
D17*
X272545000Y-62879999D03*
D11*
X273200000Y-62150000D03*
D18*
X278219999Y-61359999D03*
D11*
X278240000Y-61070000D03*
D10*
X289670000Y-66150000D03*
D12*
X294750000Y-66150000D03*
D10*
X299830000Y-66150000D03*
D17*
X291595000Y-62879999D03*
D11*
X292250000Y-62150000D03*
D18*
X297269999Y-61359999D03*
D11*
X297290000Y-61070000D03*
D10*
X8682500Y-85200000D03*
D12*
X13762500Y-85200000D03*
D10*
X18842500Y-85200000D03*
D17*
X10607500Y-81929999D03*
D11*
X11262500Y-81200000D03*
D18*
X16282499Y-80409999D03*
D11*
X16302500Y-80120000D03*
D10*
X32495000Y-85200000D03*
D12*
X37575000Y-85200000D03*
D10*
X42655000Y-85200000D03*
D17*
X34420000Y-81929999D03*
D11*
X35075000Y-81200000D03*
D18*
X40094999Y-80409999D03*
D11*
X40115000Y-80120000D03*
D10*
X56307500Y-85200000D03*
D12*
X61387500Y-85200000D03*
D10*
X66467500Y-85200000D03*
D17*
X58232500Y-81929999D03*
D11*
X58887500Y-81200000D03*
D18*
X63907499Y-80409999D03*
D11*
X63927500Y-80120000D03*
D10*
X196801250Y-85200000D03*
D12*
X201881250Y-85200000D03*
D10*
X206961250Y-85200000D03*
D17*
X198726250Y-81929999D03*
D11*
X199381250Y-81200000D03*
D18*
X204401249Y-80409999D03*
D11*
X204421250Y-80120000D03*
D10*
X218232500Y-85200000D03*
D12*
X223312500Y-85200000D03*
D10*
X228392500Y-85200000D03*
D17*
X220157500Y-81929999D03*
D11*
X220812500Y-81200000D03*
D18*
X225832499Y-80409999D03*
D11*
X225852500Y-80120000D03*
D10*
X251570000Y-85200000D03*
D12*
X256650000Y-85200000D03*
D10*
X261730000Y-85200000D03*
D17*
X253495000Y-81929999D03*
D11*
X254150000Y-81200000D03*
D18*
X259169999Y-80409999D03*
D11*
X259190000Y-80120000D03*
D10*
X270620000Y-85200000D03*
D12*
X275700000Y-85200000D03*
D10*
X280780000Y-85200000D03*
D17*
X272545000Y-81929999D03*
D11*
X273200000Y-81200000D03*
D18*
X278219999Y-80409999D03*
D11*
X278240000Y-80120000D03*
D10*
X289670000Y-85200000D03*
D12*
X294750000Y-85200000D03*
D10*
X299830000Y-85200000D03*
D17*
X291595000Y-81929999D03*
D11*
X292250000Y-81200000D03*
D18*
X297269999Y-80409999D03*
D11*
X297290000Y-80120000D03*
D10*
X220613750Y-85200000D03*
D12*
X225693750Y-85200000D03*
D10*
X230773750Y-85200000D03*
D17*
X222538750Y-81929999D03*
D11*
X223193750Y-81200000D03*
D18*
X228213749Y-80409999D03*
D11*
X228233750Y-80120000D03*
D12*
X85200000Y-76945000D03*
D19*
X85200000Y-92185000D03*
D10*
X137270000Y-85200000D03*
D12*
X142350000Y-85200000D03*
D10*
X147430000Y-85200000D03*
D12*
X199500000Y-76945000D03*
D19*
X199500000Y-92185000D03*
D17*
X139195000Y-81929999D03*
D11*
X139850000Y-81200000D03*
D18*
X144869999Y-80409999D03*
D11*
X144890000Y-80120000D03*
D10*
X137270000Y-9000000D03*
D12*
X142350000Y-9000000D03*
D10*
X147430000Y-9000000D03*
D17*
X139195000Y-5729999D03*
D11*
X139850000Y-5000000D03*
D18*
X144869999Y-4209999D03*
D11*
X144890000Y-3920000D03*
D10*
X270620000Y-9000000D03*
D12*
X275700000Y-9000000D03*
D10*
X280780000Y-9000000D03*
D17*
X272545000Y-5729999D03*
D11*
X273200000Y-5000000D03*
D18*
X278219999Y-4209999D03*
D11*
X278240000Y-3920000D03*
D10*
X6301250Y-85200000D03*
D12*
X11381250Y-85200000D03*
D10*
X16461250Y-85200000D03*
D17*
X8226250Y-81929999D03*
D11*
X8881250Y-81200000D03*
D18*
X13901249Y-80409999D03*
D11*
X13921250Y-80120000D03*
D10*
X30113750Y-85200000D03*
D12*
X35193750Y-85200000D03*
D10*
X40273750Y-85200000D03*
D17*
X32038750Y-81929999D03*
D11*
X32693750Y-81200000D03*
D18*
X37713749Y-80409999D03*
D11*
X37733750Y-80120000D03*
D10*
X53926250Y-85200000D03*
D12*
X59006250Y-85200000D03*
D10*
X64086250Y-85200000D03*
D17*
X55851250Y-81929999D03*
D11*
X56506250Y-81200000D03*
D18*
X61526249Y-80409999D03*
D11*
X61546250Y-80120000D03*
D12*
X80443850Y-76945000D03*
D19*
X80443850Y-92185000D03*
D10*
X125363750Y-85200000D03*
D12*
X130443750Y-85200000D03*
D10*
X135523750Y-85200000D03*
D12*
X180443650Y-76945000D03*
D19*
X180443650Y-92185000D03*
D17*
X127288750Y-81929999D03*
D11*
X127943750Y-81200000D03*
D18*
X132963749Y-80409999D03*
D11*
X132983750Y-80120000D03*
D19*
X104394000Y-92145450D03*
D12*
X104394000Y-76905450D03*
D10*
X97536000Y-85160450D03*
D12*
X92456000Y-85160450D03*
D10*
X87376000Y-85160450D03*
D19*
X80518000Y-92145450D03*
D12*
X80518000Y-76905450D03*
D20*
X95610998Y-88430449D03*
D11*
X94956000Y-89160450D03*
D21*
X89935999Y-89950449D03*
D11*
X89916000Y-90240450D03*
D10*
X65659000Y-85217000D03*
D12*
X70739000Y-85217000D03*
D10*
X75819000Y-85217000D03*
D17*
X67584000Y-81946999D03*
D11*
X68239000Y-81217000D03*
D18*
X73258999Y-80426999D03*
D11*
X73279000Y-80137000D03*
D12*
X85217000Y-76905450D03*
D19*
X85217000Y-92145450D03*
D10*
X92075000Y-85160450D03*
D12*
X97155000Y-85160450D03*
D10*
X102235000Y-85160450D03*
D12*
X109093000Y-76905450D03*
D19*
X109093000Y-92145450D03*
D17*
X94000000Y-81890449D03*
D11*
X94655000Y-81160450D03*
D18*
X99674999Y-80370449D03*
D11*
X99695000Y-80080450D03*
D10*
X47244000Y-85217000D03*
D12*
X42164000Y-85217000D03*
D10*
X37084000Y-85217000D03*
D20*
X45318998Y-88486999D03*
D11*
X44664000Y-89217000D03*
D21*
X39643999Y-90006999D03*
D11*
X39624000Y-90297000D03*
D12*
X265049000Y-25654000D03*
X265049000Y-49530000D03*
D22*
X273304000Y-32512000D03*
D12*
X273304000Y-37592000D03*
D22*
X273304000Y-42672000D03*
D19*
X280289000Y-25654000D03*
X280289000Y-49530000D03*
D11*
X275804000Y-41592000D03*
D23*
X278093999Y-40111998D03*
D11*
X278384000Y-40132000D03*
X270804000Y-42092000D03*
D24*
X276574003Y-34436994D03*
D11*
X277304000Y-35092000D03*
D12*
X156718000Y-76905450D03*
D19*
X156718000Y-92145450D03*
D10*
X163576000Y-85160450D03*
D12*
X168656000Y-85160450D03*
D10*
X173736000Y-85160450D03*
D12*
X180594000Y-76905450D03*
D19*
X180594000Y-92145450D03*
D17*
X165501000Y-81890449D03*
D11*
X166156000Y-81160450D03*
D18*
X171175999Y-80370449D03*
D11*
X171196000Y-80080450D03*
D10*
X6826250Y-66150000D03*
D12*
X11906250Y-66150000D03*
D10*
X16986250Y-66150000D03*
D17*
X8751250Y-62879999D03*
D11*
X9406250Y-62150000D03*
D18*
X14426249Y-61359999D03*
D11*
X14446250Y-61070000D03*
D10*
X140335000Y-85217000D03*
D12*
X135255000Y-85217000D03*
D10*
X130175000Y-85217000D03*
D20*
X138409998Y-88486999D03*
D11*
X137755000Y-89217000D03*
D21*
X132734999Y-90006999D03*
D11*
X132715000Y-90297000D03*
D10*
X246761000Y-47117000D03*
D12*
X251841000Y-47117000D03*
D10*
X256921000Y-47117000D03*
D17*
X248686000Y-43846999D03*
D11*
X249341000Y-43117000D03*
D18*
X254360999Y-42326999D03*
D11*
X254381000Y-42037000D03*
D19*
X175768000Y-92202000D03*
D12*
X175768000Y-76962000D03*
D10*
X168910000Y-85217000D03*
D12*
X163830000Y-85217000D03*
D10*
X158750000Y-85217000D03*
D19*
X151892000Y-92202000D03*
D12*
X151892000Y-76962000D03*
D20*
X166984998Y-88486999D03*
D11*
X166330000Y-89217000D03*
D21*
X161309999Y-90006999D03*
D11*
X161290000Y-90297000D03*
D10*
X27686000Y-66167000D03*
D12*
X32766000Y-66167000D03*
D10*
X37846000Y-66167000D03*
D17*
X29611000Y-62896999D03*
D11*
X30266000Y-62167000D03*
D18*
X35285999Y-61376999D03*
D11*
X35306000Y-61087000D03*
D19*
X197065900Y-92145450D03*
D12*
X197065900Y-76905450D03*
D10*
X152146000Y-85160450D03*
D12*
X147066000Y-85160450D03*
D10*
X141986000Y-85160450D03*
D19*
X97066100Y-92145450D03*
D12*
X97066100Y-76905450D03*
D20*
X150220998Y-88430449D03*
D11*
X149566000Y-89160450D03*
D21*
X144545999Y-89950449D03*
D11*
X144526000Y-90240450D03*
D10*
X130810000Y-85217000D03*
D12*
X125730000Y-85217000D03*
D10*
X120650000Y-85217000D03*
D20*
X128884998Y-88486999D03*
D11*
X128230000Y-89217000D03*
D21*
X123209999Y-90006999D03*
D11*
X123190000Y-90297000D03*
D25*
X23310000Y-17120000D03*
X26110000Y-17120000D03*
D26*
X64050000Y-16003750D03*
X64050000Y-17003750D03*
X64050000Y-18003750D03*
X64050000Y-19003750D03*
D27*
X67925000Y-14703750D03*
X67925000Y-20303750D03*
D28*
X5189999Y-20807500D03*
X7729999Y-20807500D03*
X5189999Y-18267500D03*
X7729999Y-18267500D03*
X5189999Y-15727500D03*
D29*
X7730000Y-15727501D03*
D16*
X31402500Y-18753750D03*
X33277500Y-18753750D03*
X31402500Y-16253750D03*
X33277500Y-16253750D03*
D30*
X52093750Y-37385000D03*
X58393750Y-37385000D03*
X52093750Y-33585000D03*
X58393750Y-33585000D03*
D31*
X41897500Y-34870000D03*
X40022500Y-34870000D03*
X24061250Y-28750000D03*
X22186250Y-28750000D03*
D16*
X31122500Y-46910000D03*
X32997500Y-46910000D03*
D32*
X24553750Y-32058750D03*
X25353750Y-32058750D03*
X26153750Y-32058750D03*
X26953750Y-32058750D03*
X27753750Y-32058750D03*
X28553750Y-32058750D03*
X29353750Y-32058750D03*
X30153750Y-32058750D03*
X30953750Y-32058750D03*
X31753750Y-32058750D03*
X32553750Y-32058750D03*
D33*
X34253750Y-33758750D03*
X34253750Y-34558750D03*
X34253750Y-35358750D03*
X34253750Y-36158750D03*
X34253750Y-36958750D03*
X34253750Y-37758750D03*
X34253750Y-38558750D03*
X34253750Y-39358750D03*
X34253750Y-40158750D03*
X34253750Y-40958750D03*
X34253750Y-41758750D03*
D32*
X32553750Y-43458750D03*
X31753750Y-43458750D03*
X30953750Y-43458750D03*
X30153750Y-43458750D03*
X29353750Y-43458750D03*
X28553750Y-43458750D03*
X27753750Y-43458750D03*
X26953750Y-43458750D03*
X26153750Y-43458750D03*
X25353750Y-43458750D03*
X24553750Y-43458750D03*
D33*
X22853750Y-41758750D03*
X22853750Y-40958750D03*
X22853750Y-40158750D03*
X22853750Y-39358750D03*
X22853750Y-38558750D03*
X22853750Y-37758750D03*
X22853750Y-36958750D03*
X22853750Y-36158750D03*
X22853750Y-35358750D03*
X22853750Y-34558750D03*
X22853750Y-33758750D03*
D34*
X42060000Y-38520000D03*
X39860000Y-38520000D03*
X39860000Y-36820000D03*
X42060000Y-36820000D03*
D35*
X37160000Y-32982500D03*
X37160000Y-34857500D03*
X49710000Y-33582500D03*
X49710000Y-35457500D03*
D36*
X16937500Y-11443750D03*
X16937500Y-8143750D03*
X20112500Y-11443750D03*
X20112500Y-8143750D03*
X37575000Y-11443750D03*
X37575000Y-8143750D03*
X56625000Y-11443750D03*
X56625000Y-8143750D03*
X75675000Y-11443750D03*
X75675000Y-8143750D03*
X94725000Y-11443750D03*
X94725000Y-8143750D03*
X113775000Y-11443750D03*
X113775000Y-8143750D03*
X132825000Y-11443750D03*
X132825000Y-8143750D03*
X151875000Y-11443750D03*
X151875000Y-8143750D03*
X170925000Y-11443750D03*
X170925000Y-8143750D03*
X189975000Y-11443750D03*
X189975000Y-8143750D03*
X209025000Y-11443750D03*
X209025000Y-8143750D03*
X247125000Y-11443750D03*
X247125000Y-8143750D03*
X271272000Y-15112000D03*
X271272000Y-11812000D03*
D37*
X282322000Y-15367000D03*
X285622000Y-15367000D03*
D36*
X5825000Y-31287500D03*
X5825000Y-27987500D03*
X67737500Y-30493750D03*
X67737500Y-27193750D03*
X64562500Y-30493750D03*
X64562500Y-27193750D03*
X83612500Y-30493750D03*
X83612500Y-27193750D03*
X86787500Y-30493750D03*
X86787500Y-27193750D03*
X104250000Y-30493750D03*
X104250000Y-27193750D03*
X123300000Y-30493750D03*
X123300000Y-27193750D03*
X142350000Y-30493750D03*
X142350000Y-27193750D03*
X161400000Y-30493750D03*
X161400000Y-27193750D03*
X180450000Y-30493750D03*
X180450000Y-27193750D03*
X199500000Y-30493750D03*
X199500000Y-27193750D03*
X218550000Y-30493750D03*
X218550000Y-27193750D03*
X237600000Y-30493750D03*
X237600000Y-27193750D03*
X261412500Y-30493750D03*
X261412500Y-27193750D03*
X285225000Y-30493750D03*
X285225000Y-27193750D03*
X24081250Y-49543750D03*
X24081250Y-46243750D03*
X50275000Y-49543750D03*
X50275000Y-46243750D03*
X53450000Y-49543750D03*
X53450000Y-46243750D03*
X70912500Y-49543750D03*
X70912500Y-46243750D03*
X109012500Y-49543750D03*
X109012500Y-46243750D03*
X128062500Y-49543750D03*
X128062500Y-46243750D03*
X147112500Y-49543750D03*
X147112500Y-46243750D03*
X166162500Y-49543750D03*
X166162500Y-46243750D03*
X185212500Y-49543750D03*
X185212500Y-46243750D03*
X204262500Y-49543750D03*
X204262500Y-46243750D03*
X223312500Y-49543750D03*
X223312500Y-46243750D03*
D37*
X257303000Y-50165000D03*
X260603000Y-50165000D03*
D36*
X285225000Y-49543750D03*
X285225000Y-46243750D03*
D38*
X18541000Y-71882000D03*
X15241000Y-71882000D03*
D36*
X43942000Y-68452000D03*
X43942000Y-65152000D03*
X61387500Y-68593750D03*
X61387500Y-65293750D03*
X80437500Y-68593750D03*
X80437500Y-65293750D03*
X99487500Y-68593750D03*
X99487500Y-65293750D03*
X118537500Y-68593750D03*
X118537500Y-65293750D03*
X137587500Y-68593750D03*
X137587500Y-65293750D03*
X156637500Y-68593750D03*
X156637500Y-65293750D03*
X175687500Y-68593750D03*
X175687500Y-65293750D03*
X194737500Y-68593750D03*
X194737500Y-65293750D03*
X213787500Y-68593750D03*
X213787500Y-65293750D03*
X239981250Y-68593750D03*
X239981250Y-65293750D03*
X266175000Y-68593750D03*
X266175000Y-65293750D03*
X285225000Y-68593750D03*
X285225000Y-65293750D03*
X21700000Y-87643750D03*
X21700000Y-84343750D03*
X25668750Y-87643750D03*
X25668750Y-84343750D03*
X78994000Y-86359000D03*
X78994000Y-83059000D03*
X117094000Y-86613000D03*
X117094000Y-83313000D03*
X213787500Y-87643750D03*
X213787500Y-84343750D03*
X264587500Y-87643750D03*
X264587500Y-84343750D03*
X267762500Y-87643750D03*
X267762500Y-84343750D03*
X285225000Y-87643750D03*
X285225000Y-84343750D03*
X228075000Y-11443750D03*
X228075000Y-8143750D03*
D35*
X28120000Y-26532500D03*
X28120000Y-28407500D03*
D31*
X41897500Y-40470000D03*
X40022500Y-40470000D03*
D39*
X29823750Y-56887500D03*
X29823750Y-55012500D03*
D36*
X89962500Y-49543750D03*
X89962500Y-46243750D03*
X191562500Y-87643750D03*
X191562500Y-84343750D03*
D16*
X16236250Y-38558750D03*
X18111250Y-38558750D03*
D40*
X39173750Y-18603750D03*
X38223750Y-18603750D03*
X37273750Y-18603750D03*
X37273750Y-16403750D03*
X38223750Y-16403750D03*
X39173750Y-16403750D03*
D36*
X40894000Y-68452000D03*
X40894000Y-65152000D03*
X82423000Y-86359000D03*
X82423000Y-83059000D03*
X155321000Y-86486000D03*
X155321000Y-83186000D03*
M02*
