M48
; DRILL file {KiCad 6.99.0-unknown-af20d46d06~146~ubuntu21.10.1} date Sat 22 Jan 2022 03:47:54 PM EST
; FORMAT={-:-/ absolute / inch / decimal}
; #@! TF.CreationDate,2022-01-22T15:47:54-05:00
; #@! TF.GenerationSoftware,Kicad,Pcbnew,6.99.0-unknown-af20d46d06~146~ubuntu21.10.1
; #@! TF.FileFunction,NonPlated,1,2,NPTH
FMAT,2
INCH
; #@! TA.AperFunction,NonPlated,NPTH,ComponentDrill
T1C0.0670
; #@! TA.AperFunction,NonPlated,NPTH,ComponentDrill
T2C0.0689
; #@! TA.AperFunction,NonPlated,NPTH,ComponentDrill
T3C0.1200
; #@! TA.AperFunction,NonPlated,NPTH,ComponentDrill
T4C0.1570
%
G90
G05
T1
X10.76Y-1.28
X10.76Y-1.68
T2
X0.1543Y-0.3543
X0.2481Y-1.8543
X0.2481Y-3.3543
X0.2687Y-2.6043
X0.3418Y-1.1043
X0.3418Y-3.3543
X0.4356Y-1.8543
X0.5543Y-0.3543
X0.6231Y-2.6043
X0.6481Y-1.8543
X0.6481Y-3.3543
X0.6687Y-2.6043
X0.7418Y-1.1043
X0.7418Y-3.3543
X0.8356Y-1.8543
X0.9043Y-0.3543
X1.0231Y-2.6043
X1.09Y-2.605
X1.1856Y-3.3543
X1.2793Y-3.3543
X1.3043Y-0.3543
X1.46Y-3.355
X1.49Y-2.605
X1.5856Y-3.3543
X1.6543Y-0.3543
X1.6793Y-3.3543
X1.8418Y-2.6043
X1.86Y-3.355
X2.0543Y-0.3543
X2.1231Y-3.3543
X2.2168Y-3.3543
X2.2418Y-2.6043
X2.4043Y-0.3543
X2.5231Y-3.3543
X2.585Y-3.355
X2.6168Y-3.3543
X2.8043Y-0.3543
X2.985Y-3.355
X3.1543Y-0.3543
X3.44Y-3.3528
X3.5543Y-0.3543
X3.625Y-3.3528
X3.84Y-3.3528
X3.9043Y-0.3543
X4.025Y-3.3528
X4.3043Y-0.3543
X4.6543Y-0.3543
X4.75Y-3.355
X4.9356Y-3.3543
X5.0543Y-0.3543
X5.125Y-3.355
X5.15Y-3.355
X5.3356Y-3.3543
X5.4043Y-0.3543
X5.4043Y-3.3543
X5.525Y-3.355
X5.59Y-3.3528
X5.8043Y-0.3543
X5.8043Y-3.3543
X5.99Y-3.3528
X6.1543Y-0.3543
X6.25Y-3.355
X6.44Y-3.3528
X6.5543Y-0.3543
X6.65Y-3.355
X6.84Y-3.3528
X6.9043Y-0.3543
X7.3043Y-0.3543
X7.6543Y-0.3543
X7.7481Y-3.3543
X8.0543Y-0.3543
X8.1481Y-3.3543
X8.4043Y-0.3543
X8.5918Y-3.3543
X8.6856Y-3.3543
X8.8043Y-0.3543
X8.9918Y-3.3543
X9.0856Y-3.3543
X9.1543Y-0.3543
X9.5543Y-0.3543
X9.6231Y-2.6043
X9.715Y-1.855
X9.9043Y-0.3543
X9.9043Y-3.3543
X10.0231Y-2.6043
X10.115Y-1.855
X10.1856Y-1.8543
X10.2793Y-0.3543
X10.3043Y-0.3543
X10.3043Y-3.3543
X10.4668Y-1.1043
X10.5856Y-1.8543
X10.6543Y-0.3543
X10.6543Y-2.6043
X10.6543Y-3.3543
X10.6793Y-0.3543
X10.8668Y-1.1043
X11.0543Y-0.3543
X11.0543Y-2.6043
X11.0543Y-3.3543
X11.4043Y-0.3543
X11.4043Y-1.1043
X11.4043Y-1.8543
X11.4043Y-2.6043
X11.4043Y-3.3543
X11.8043Y-0.3543
X11.8043Y-1.1043
X11.8043Y-1.8543
X11.8043Y-2.6043
X11.8043Y-3.3543
T3
X0.3531Y-2.3293
X1.2931Y-2.3293
X3.1671Y-3.6293
X3.17Y-3.6278
X3.3543Y-3.6293
X3.355Y-3.6278
X3.8215Y-3.6278
X4.11Y-3.6278
X4.295Y-3.6278
X5.98Y-3.63
X6.17Y-3.6278
X6.92Y-3.63
X7.1041Y-3.6293
X7.11Y-3.6278
X7.7585Y-3.6278
X7.8543Y-3.6293
X9.9156Y-1.5793
X10.0093Y-0.0793
X10.8556Y-1.5793
X10.9493Y-0.0793
X11.035Y-1.01
X11.035Y-1.95
T4
X0.3531Y-2.9293
X0.3543Y-0.3543
X0.4481Y-1.8543
X0.4481Y-3.3543
X0.4688Y-2.6043
X0.5418Y-1.1043
X0.5418Y-3.3543
X0.6356Y-1.8543
X0.8231Y-2.6043
X1.1043Y-0.3543
X1.29Y-2.605
X1.2931Y-2.9293
X1.3856Y-3.3543
X1.4793Y-3.3543
X1.66Y-3.355
X1.8543Y-0.3543
X2.0418Y-2.6043
X2.3231Y-3.3543
X2.4168Y-3.3543
X2.6043Y-0.3543
X2.785Y-3.355
X3.1671Y-3.0293
X3.17Y-3.0278
X3.3543Y-0.3543
X3.3543Y-3.0293
X3.355Y-3.0278
X3.64Y-3.3528
X3.8215Y-3.0278
X3.825Y-3.3528
X4.1043Y-0.3543
X4.11Y-3.0278
X4.295Y-3.0278
X4.8543Y-0.3543
X4.95Y-3.355
X5.1356Y-3.3543
X5.325Y-3.355
X5.6043Y-0.3543
X5.6043Y-3.3543
X5.79Y-3.3528
X5.98Y-3.03
X6.17Y-3.0278
X6.3543Y-0.3543
X6.45Y-3.355
X6.64Y-3.3528
X6.92Y-3.03
X7.1041Y-3.0293
X7.1043Y-0.3543
X7.11Y-3.0278
X7.7585Y-3.0278
X7.8543Y-0.3543
X7.8543Y-3.0293
X7.9481Y-3.3543
X8.6043Y-0.3543
X8.7918Y-3.3543
X8.8856Y-3.3543
X9.3543Y-0.3543
X9.8231Y-2.6043
X9.915Y-1.855
X9.9156Y-2.1793
X10.0093Y-0.6793
X10.1043Y-0.3543
X10.1043Y-3.3543
X10.3856Y-1.8543
X10.435Y-1.01
X10.435Y-1.95
X10.4793Y-0.3543
X10.6668Y-1.1043
X10.76Y-1.48
X10.8543Y-0.3543
X10.8543Y-2.6043
X10.8543Y-3.3543
X10.8556Y-2.1793
X10.9493Y-0.6793
X11.6043Y-0.3543
X11.6043Y-1.1043
X11.6043Y-1.8543
X11.6043Y-2.6043
X11.6043Y-3.3543
T0
M30
