G04 #@! TF.GenerationSoftware,KiCad,Pcbnew,6.99.0-unknown-af20d46d06~146~ubuntu21.10.1*
G04 #@! TF.CreationDate,2022-01-22T15:47:32-05:00*
G04 #@! TF.ProjectId,bakeneko-65-pcb,62616b65-6e65-46b6-9f2d-36352d706362,rev?*
G04 #@! TF.SameCoordinates,Original*
G04 #@! TF.FileFunction,Legend,Bot*
G04 #@! TF.FilePolarity,Positive*
%FSLAX46Y46*%
G04 Gerber Fmt 4.6, Leading zero omitted, Abs format (unit mm)*
G04 Created by KiCad (PCBNEW 6.99.0-unknown-af20d46d06~146~ubuntu21.10.1) date 2022-01-22 15:47:32*
%MOMM*%
%LPD*%
G01*
G04 APERTURE LIST*
G04 Aperture macros list*
%AMRoundRect*
0 Rectangle with rounded corners*
0 $1 Rounding radius*
0 $2 $3 $4 $5 $6 $7 $8 $9 X,Y pos of 4 corners*
0 Add a 4 corners polygon primitive as box body*
4,1,4,$2,$3,$4,$5,$6,$7,$8,$9,$2,$3,0*
0 Add four circle primitives for the rounded corners*
1,1,$1+$1,$2,$3*
1,1,$1+$1,$4,$5*
1,1,$1+$1,$6,$7*
1,1,$1+$1,$8,$9*
0 Add four rect primitives between the rounded corners*
20,1,$1+$1,$2,$3,$4,$5,0*
20,1,$1+$1,$4,$5,$6,$7,0*
20,1,$1+$1,$6,$7,$8,$9,0*
20,1,$1+$1,$8,$9,$2,$3,0*%
%AMHorizOval*
0 Thick line with rounded ends*
0 $1 width*
0 $2 $3 position (X,Y) of the first rounded end (center of the circle)*
0 $4 $5 position (X,Y) of the second rounded end (center of the circle)*
0 Add line between two ends*
20,1,$1,$2,$3,$4,$5,0*
0 Add two circle primitives to create the rounded ends*
1,1,$1,$2,$3*
1,1,$1,$4,$5*%
G04 Aperture macros list end*
%ADD10C,0.150000*%
%ADD11C,0.120000*%
%ADD12C,1.850000*%
%ADD13C,2.350000*%
%ADD14C,4.087800*%
%ADD15RoundRect,0.050000X-1.000000X-1.000000X1.000000X-1.000000X1.000000X1.000000X-1.000000X1.000000X0*%
%ADD16C,2.100000*%
%ADD17RoundRect,0.050000X-1.600000X-1.000000X1.600000X-1.000000X1.600000X1.000000X-1.600000X1.000000X0*%
%ADD18RoundRect,0.293750X-0.243750X-0.456250X0.243750X-0.456250X0.243750X0.456250X-0.243750X0.456250X0*%
%ADD19HorizOval,2.350000X0.655001X0.730000X-0.655001X-0.730000X0*%
%ADD20HorizOval,2.350000X0.020000X0.290000X-0.020000X-0.290000X0*%
%ADD21C,3.148000*%
%ADD22HorizOval,2.350000X-0.655001X-0.730000X0.655001X0.730000X0*%
%ADD23HorizOval,2.350000X-0.020000X-0.290000X0.020000X0.290000X0*%
%ADD24C,1.801800*%
%ADD25HorizOval,2.350000X0.290000X-0.019999X-0.290000X0.019999X0*%
%ADD26HorizOval,2.350000X0.730004X-0.654995X-0.730004X0.654995X0*%
%ADD27RoundRect,0.300000X-0.375000X-0.625000X0.375000X-0.625000X0.375000X0.625000X-0.375000X0.625000X0*%
%ADD28RoundRect,0.200000X-0.625000X0.150000X-0.625000X-0.150000X0.625000X-0.150000X0.625000X0.150000X0*%
%ADD29RoundRect,0.300000X-0.650000X0.350000X-0.650000X-0.350000X0.650000X-0.350000X0.650000X0.350000X0*%
%ADD30HorizOval,1.800000X0.000000X0.000000X0.000000X0.000000X0*%
%ADD31RoundRect,0.050000X0.850000X0.850000X-0.850000X0.850000X-0.850000X-0.850000X0.850000X-0.850000X0*%
%ADD32RoundRect,0.050000X-0.850000X-0.500000X0.850000X-0.500000X0.850000X0.500000X-0.850000X0.500000X0*%
%ADD33RoundRect,0.293750X0.243750X0.456250X-0.243750X0.456250X-0.243750X-0.456250X0.243750X-0.456250X0*%
%ADD34RoundRect,0.050000X-0.275000X0.750000X-0.275000X-0.750000X0.275000X-0.750000X0.275000X0.750000X0*%
%ADD35RoundRect,0.050000X0.750000X0.275000X-0.750000X0.275000X-0.750000X-0.275000X0.750000X-0.275000X0*%
%ADD36RoundRect,0.050000X0.700000X0.600000X-0.700000X0.600000X-0.700000X-0.600000X0.700000X-0.600000X0*%
%ADD37RoundRect,0.293750X-0.456250X0.243750X-0.456250X-0.243750X0.456250X-0.243750X0.456250X0.243750X0*%
%ADD38RoundRect,0.050000X0.600000X-0.450000X0.600000X0.450000X-0.600000X0.450000X-0.600000X-0.450000X0*%
%ADD39RoundRect,0.050000X-0.450000X-0.600000X0.450000X-0.600000X0.450000X0.600000X-0.450000X0.600000X0*%
%ADD40RoundRect,0.050000X0.450000X0.600000X-0.450000X0.600000X-0.450000X-0.600000X0.450000X-0.600000X0*%
%ADD41RoundRect,0.293750X0.456250X-0.243750X0.456250X0.243750X-0.456250X0.243750X-0.456250X-0.243750X0*%
%ADD42RoundRect,0.050000X0.325000X-0.530000X0.325000X0.530000X-0.325000X0.530000X-0.325000X-0.530000X0*%
G04 APERTURE END LIST*
D10*
X299741668Y-91836072D02*
X299598811Y-91883691D01*
X299598811Y-91883691D02*
X299551192Y-91931310D01*
X299551192Y-91931310D02*
X299503573Y-92026548D01*
X299503573Y-92026548D02*
X299503573Y-92169405D01*
X299503573Y-92169405D02*
X299551192Y-92264643D01*
X299551192Y-92264643D02*
X299598811Y-92312262D01*
X299598811Y-92312262D02*
X299694049Y-92359881D01*
X299694049Y-92359881D02*
X300075001Y-92359881D01*
X300075001Y-92359881D02*
X300075001Y-91359881D01*
X300075001Y-91359881D02*
X299741668Y-91359881D01*
X299741668Y-91359881D02*
X299646430Y-91407501D01*
X299646430Y-91407501D02*
X299598811Y-91455120D01*
X299598811Y-91455120D02*
X299551192Y-91550358D01*
X299551192Y-91550358D02*
X299551192Y-91645596D01*
X299551192Y-91645596D02*
X299598811Y-91740834D01*
X299598811Y-91740834D02*
X299646430Y-91788453D01*
X299646430Y-91788453D02*
X299741668Y-91836072D01*
X299741668Y-91836072D02*
X300075001Y-91836072D01*
X298646430Y-92359881D02*
X298646430Y-91836072D01*
X298646430Y-91836072D02*
X298694049Y-91740834D01*
X298694049Y-91740834D02*
X298789287Y-91693215D01*
X298789287Y-91693215D02*
X298979763Y-91693215D01*
X298979763Y-91693215D02*
X299075001Y-91740834D01*
X298646430Y-92312262D02*
X298741668Y-92359881D01*
X298741668Y-92359881D02*
X298979763Y-92359881D01*
X298979763Y-92359881D02*
X299075001Y-92312262D01*
X299075001Y-92312262D02*
X299122620Y-92217024D01*
X299122620Y-92217024D02*
X299122620Y-92121786D01*
X299122620Y-92121786D02*
X299075001Y-92026548D01*
X299075001Y-92026548D02*
X298979763Y-91978929D01*
X298979763Y-91978929D02*
X298741668Y-91978929D01*
X298741668Y-91978929D02*
X298646430Y-91931310D01*
X298170239Y-92359881D02*
X298170239Y-91359881D01*
X298075001Y-91978929D02*
X297789287Y-92359881D01*
X297789287Y-91693215D02*
X298170239Y-92074167D01*
X296979763Y-92312262D02*
X297075001Y-92359881D01*
X297075001Y-92359881D02*
X297265477Y-92359881D01*
X297265477Y-92359881D02*
X297360715Y-92312262D01*
X297360715Y-92312262D02*
X297408334Y-92217024D01*
X297408334Y-92217024D02*
X297408334Y-91836072D01*
X297408334Y-91836072D02*
X297360715Y-91740834D01*
X297360715Y-91740834D02*
X297265477Y-91693215D01*
X297265477Y-91693215D02*
X297075001Y-91693215D01*
X297075001Y-91693215D02*
X296979763Y-91740834D01*
X296979763Y-91740834D02*
X296932144Y-91836072D01*
X296932144Y-91836072D02*
X296932144Y-91931310D01*
X296932144Y-91931310D02*
X297408334Y-92026548D01*
X296503572Y-91693215D02*
X296503572Y-92359881D01*
X296503572Y-91788453D02*
X296455953Y-91740834D01*
X296455953Y-91740834D02*
X296360715Y-91693215D01*
X296360715Y-91693215D02*
X296217858Y-91693215D01*
X296217858Y-91693215D02*
X296122620Y-91740834D01*
X296122620Y-91740834D02*
X296075001Y-91836072D01*
X296075001Y-91836072D02*
X296075001Y-92359881D01*
X295217858Y-92312262D02*
X295313096Y-92359881D01*
X295313096Y-92359881D02*
X295503572Y-92359881D01*
X295503572Y-92359881D02*
X295598810Y-92312262D01*
X295598810Y-92312262D02*
X295646429Y-92217024D01*
X295646429Y-92217024D02*
X295646429Y-91836072D01*
X295646429Y-91836072D02*
X295598810Y-91740834D01*
X295598810Y-91740834D02*
X295503572Y-91693215D01*
X295503572Y-91693215D02*
X295313096Y-91693215D01*
X295313096Y-91693215D02*
X295217858Y-91740834D01*
X295217858Y-91740834D02*
X295170239Y-91836072D01*
X295170239Y-91836072D02*
X295170239Y-91931310D01*
X295170239Y-91931310D02*
X295646429Y-92026548D01*
X294741667Y-92359881D02*
X294741667Y-91359881D01*
X294646429Y-91978929D02*
X294360715Y-92359881D01*
X294360715Y-91693215D02*
X294741667Y-92074167D01*
X293789286Y-92359881D02*
X293884524Y-92312262D01*
X293884524Y-92312262D02*
X293932143Y-92264643D01*
X293932143Y-92264643D02*
X293979762Y-92169405D01*
X293979762Y-92169405D02*
X293979762Y-91883691D01*
X293979762Y-91883691D02*
X293932143Y-91788453D01*
X293932143Y-91788453D02*
X293884524Y-91740834D01*
X293884524Y-91740834D02*
X293789286Y-91693215D01*
X293789286Y-91693215D02*
X293646429Y-91693215D01*
X293646429Y-91693215D02*
X293551191Y-91740834D01*
X293551191Y-91740834D02*
X293503572Y-91788453D01*
X293503572Y-91788453D02*
X293455953Y-91883691D01*
X293455953Y-91883691D02*
X293455953Y-92169405D01*
X293455953Y-92169405D02*
X293503572Y-92264643D01*
X293503572Y-92264643D02*
X293551191Y-92312262D01*
X293551191Y-92312262D02*
X293646429Y-92359881D01*
X293646429Y-92359881D02*
X293789286Y-92359881D01*
X292598810Y-91359881D02*
X292789286Y-91359881D01*
X292789286Y-91359881D02*
X292884524Y-91407501D01*
X292884524Y-91407501D02*
X292932143Y-91455120D01*
X292932143Y-91455120D02*
X293027381Y-91597977D01*
X293027381Y-91597977D02*
X293075000Y-91788453D01*
X293075000Y-91788453D02*
X293075000Y-92169405D01*
X293075000Y-92169405D02*
X293027381Y-92264643D01*
X293027381Y-92264643D02*
X292979762Y-92312262D01*
X292979762Y-92312262D02*
X292884524Y-92359881D01*
X292884524Y-92359881D02*
X292694048Y-92359881D01*
X292694048Y-92359881D02*
X292598810Y-92312262D01*
X292598810Y-92312262D02*
X292551191Y-92264643D01*
X292551191Y-92264643D02*
X292503572Y-92169405D01*
X292503572Y-92169405D02*
X292503572Y-91931310D01*
X292503572Y-91931310D02*
X292551191Y-91836072D01*
X292551191Y-91836072D02*
X292598810Y-91788453D01*
X292598810Y-91788453D02*
X292694048Y-91740834D01*
X292694048Y-91740834D02*
X292884524Y-91740834D01*
X292884524Y-91740834D02*
X292979762Y-91788453D01*
X292979762Y-91788453D02*
X293027381Y-91836072D01*
X293027381Y-91836072D02*
X293075000Y-91931310D01*
X291598810Y-91359881D02*
X292075000Y-91359881D01*
X292075000Y-91359881D02*
X292122619Y-91836072D01*
X292122619Y-91836072D02*
X292075000Y-91788453D01*
X292075000Y-91788453D02*
X291979762Y-91740834D01*
X291979762Y-91740834D02*
X291741667Y-91740834D01*
X291741667Y-91740834D02*
X291646429Y-91788453D01*
X291646429Y-91788453D02*
X291598810Y-91836072D01*
X291598810Y-91836072D02*
X291551191Y-91931310D01*
X291551191Y-91931310D02*
X291551191Y-92169405D01*
X291551191Y-92169405D02*
X291598810Y-92264643D01*
X291598810Y-92264643D02*
X291646429Y-92312262D01*
X291646429Y-92312262D02*
X291741667Y-92359881D01*
X291741667Y-92359881D02*
X291979762Y-92359881D01*
X291979762Y-92359881D02*
X292075000Y-92312262D01*
X292075000Y-92312262D02*
X292122619Y-92264643D01*
X290617857Y-91693215D02*
X290379762Y-92359881D01*
X290379762Y-92359881D02*
X290141667Y-91693215D01*
X289855952Y-91359881D02*
X289236905Y-91359881D01*
X289236905Y-91359881D02*
X289570238Y-91740834D01*
X289570238Y-91740834D02*
X289427381Y-91740834D01*
X289427381Y-91740834D02*
X289332143Y-91788453D01*
X289332143Y-91788453D02*
X289284524Y-91836072D01*
X289284524Y-91836072D02*
X289236905Y-91931310D01*
X289236905Y-91931310D02*
X289236905Y-92169405D01*
X289236905Y-92169405D02*
X289284524Y-92264643D01*
X289284524Y-92264643D02*
X289332143Y-92312262D01*
X289332143Y-92312262D02*
X289427381Y-92359881D01*
X289427381Y-92359881D02*
X289713095Y-92359881D01*
X289713095Y-92359881D02*
X289808333Y-92312262D01*
X289808333Y-92312262D02*
X289855952Y-92264643D01*
X288808333Y-92264643D02*
X288760714Y-92312262D01*
X288760714Y-92312262D02*
X288808333Y-92359881D01*
X288808333Y-92359881D02*
X288855952Y-92312262D01*
X288855952Y-92312262D02*
X288808333Y-92264643D01*
X288808333Y-92264643D02*
X288808333Y-92359881D01*
X288141666Y-91359881D02*
X288046428Y-91359881D01*
X288046428Y-91359881D02*
X287951190Y-91407501D01*
X287951190Y-91407501D02*
X287903571Y-91455120D01*
X287903571Y-91455120D02*
X287855952Y-91550358D01*
X287855952Y-91550358D02*
X287808333Y-91740834D01*
X287808333Y-91740834D02*
X287808333Y-91978929D01*
X287808333Y-91978929D02*
X287855952Y-92169405D01*
X287855952Y-92169405D02*
X287903571Y-92264643D01*
X287903571Y-92264643D02*
X287951190Y-92312262D01*
X287951190Y-92312262D02*
X288046428Y-92359881D01*
X288046428Y-92359881D02*
X288141666Y-92359881D01*
X288141666Y-92359881D02*
X288236904Y-92312262D01*
X288236904Y-92312262D02*
X288284523Y-92264643D01*
X288284523Y-92264643D02*
X288332142Y-92169405D01*
X288332142Y-92169405D02*
X288379761Y-91978929D01*
X288379761Y-91978929D02*
X288379761Y-91740834D01*
X288379761Y-91740834D02*
X288332142Y-91550358D01*
X288332142Y-91550358D02*
X288284523Y-91455120D01*
X288284523Y-91455120D02*
X288236904Y-91407501D01*
X288236904Y-91407501D02*
X288141666Y-91359881D01*
X288837666Y-20803142D02*
X288885285Y-20850761D01*
X288885285Y-20850761D02*
X289028142Y-20898380D01*
X289028142Y-20898380D02*
X289123380Y-20898380D01*
X289123380Y-20898380D02*
X289266237Y-20850761D01*
X289266237Y-20850761D02*
X289361475Y-20755523D01*
X289361475Y-20755523D02*
X289409094Y-20660285D01*
X289409094Y-20660285D02*
X289456713Y-20469809D01*
X289456713Y-20469809D02*
X289456713Y-20326952D01*
X289456713Y-20326952D02*
X289409094Y-20136476D01*
X289409094Y-20136476D02*
X289361475Y-20041238D01*
X289361475Y-20041238D02*
X289266237Y-19946000D01*
X289266237Y-19946000D02*
X289123380Y-19898380D01*
X289123380Y-19898380D02*
X289028142Y-19898380D01*
X289028142Y-19898380D02*
X288885285Y-19946000D01*
X288885285Y-19946000D02*
X288837666Y-19993619D01*
X288361475Y-20898380D02*
X288170999Y-20898380D01*
X288170999Y-20898380D02*
X288075761Y-20850761D01*
X288075761Y-20850761D02*
X288028142Y-20803142D01*
X288028142Y-20803142D02*
X287932904Y-20660285D01*
X287932904Y-20660285D02*
X287885285Y-20469809D01*
X287885285Y-20469809D02*
X287885285Y-20088857D01*
X287885285Y-20088857D02*
X287932904Y-19993619D01*
X287932904Y-19993619D02*
X287980523Y-19946000D01*
X287980523Y-19946000D02*
X288075761Y-19898380D01*
X288075761Y-19898380D02*
X288266237Y-19898380D01*
X288266237Y-19898380D02*
X288361475Y-19946000D01*
X288361475Y-19946000D02*
X288409094Y-19993619D01*
X288409094Y-19993619D02*
X288456713Y-20088857D01*
X288456713Y-20088857D02*
X288456713Y-20326952D01*
X288456713Y-20326952D02*
X288409094Y-20422190D01*
X288409094Y-20422190D02*
X288361475Y-20469809D01*
X288361475Y-20469809D02*
X288266237Y-20517428D01*
X288266237Y-20517428D02*
X288075761Y-20517428D01*
X288075761Y-20517428D02*
X287980523Y-20469809D01*
X287980523Y-20469809D02*
X287932904Y-20422190D01*
X287932904Y-20422190D02*
X287885285Y-20326952D01*
X293663666Y-20803142D02*
X293711285Y-20850761D01*
X293711285Y-20850761D02*
X293854142Y-20898380D01*
X293854142Y-20898380D02*
X293949380Y-20898380D01*
X293949380Y-20898380D02*
X294092237Y-20850761D01*
X294092237Y-20850761D02*
X294187475Y-20755523D01*
X294187475Y-20755523D02*
X294235094Y-20660285D01*
X294235094Y-20660285D02*
X294282713Y-20469809D01*
X294282713Y-20469809D02*
X294282713Y-20326952D01*
X294282713Y-20326952D02*
X294235094Y-20136476D01*
X294235094Y-20136476D02*
X294187475Y-20041238D01*
X294187475Y-20041238D02*
X294092237Y-19946000D01*
X294092237Y-19946000D02*
X293949380Y-19898380D01*
X293949380Y-19898380D02*
X293854142Y-19898380D01*
X293854142Y-19898380D02*
X293711285Y-19946000D01*
X293711285Y-19946000D02*
X293663666Y-19993619D01*
X293092237Y-20326952D02*
X293187475Y-20279333D01*
X293187475Y-20279333D02*
X293235094Y-20231714D01*
X293235094Y-20231714D02*
X293282713Y-20136476D01*
X293282713Y-20136476D02*
X293282713Y-20088857D01*
X293282713Y-20088857D02*
X293235094Y-19993619D01*
X293235094Y-19993619D02*
X293187475Y-19946000D01*
X293187475Y-19946000D02*
X293092237Y-19898380D01*
X293092237Y-19898380D02*
X292901761Y-19898380D01*
X292901761Y-19898380D02*
X292806523Y-19946000D01*
X292806523Y-19946000D02*
X292758904Y-19993619D01*
X292758904Y-19993619D02*
X292711285Y-20088857D01*
X292711285Y-20088857D02*
X292711285Y-20136476D01*
X292711285Y-20136476D02*
X292758904Y-20231714D01*
X292758904Y-20231714D02*
X292806523Y-20279333D01*
X292806523Y-20279333D02*
X292901761Y-20326952D01*
X292901761Y-20326952D02*
X293092237Y-20326952D01*
X293092237Y-20326952D02*
X293187475Y-20374571D01*
X293187475Y-20374571D02*
X293235094Y-20422190D01*
X293235094Y-20422190D02*
X293282713Y-20517428D01*
X293282713Y-20517428D02*
X293282713Y-20707904D01*
X293282713Y-20707904D02*
X293235094Y-20803142D01*
X293235094Y-20803142D02*
X293187475Y-20850761D01*
X293187475Y-20850761D02*
X293092237Y-20898380D01*
X293092237Y-20898380D02*
X292901761Y-20898380D01*
X292901761Y-20898380D02*
X292806523Y-20850761D01*
X292806523Y-20850761D02*
X292758904Y-20803142D01*
X292758904Y-20803142D02*
X292711285Y-20707904D01*
X292711285Y-20707904D02*
X292711285Y-20517428D01*
X292711285Y-20517428D02*
X292758904Y-20422190D01*
X292758904Y-20422190D02*
X292806523Y-20374571D01*
X292806523Y-20374571D02*
X292901761Y-20326952D01*
X25043333Y-18868571D02*
X25376666Y-18868571D01*
X25376666Y-19392380D02*
X25376666Y-18392380D01*
X25376666Y-18392380D02*
X24900476Y-18392380D01*
X23995714Y-19392380D02*
X24567142Y-19392380D01*
X24281428Y-19392380D02*
X24281428Y-18392380D01*
X24281428Y-18392380D02*
X24376666Y-18535238D01*
X24376666Y-18535238D02*
X24471904Y-18630476D01*
X24471904Y-18630476D02*
X24567142Y-18678095D01*
X61522380Y-17170416D02*
X62236666Y-17170416D01*
X62236666Y-17170416D02*
X62379523Y-17122797D01*
X62379523Y-17122797D02*
X62474761Y-17027559D01*
X62474761Y-17027559D02*
X62522380Y-16884702D01*
X62522380Y-16884702D02*
X62522380Y-16789464D01*
X62522380Y-18170416D02*
X62522380Y-17598988D01*
X62522380Y-17884702D02*
X61522380Y-17884702D01*
X61522380Y-17884702D02*
X61665238Y-17789464D01*
X61665238Y-17789464D02*
X61760476Y-17694226D01*
X61760476Y-17694226D02*
X61808095Y-17598988D01*
X3741428Y-21146786D02*
X3741428Y-20396786D01*
X3741428Y-20396786D02*
X3491428Y-20932501D01*
X3491428Y-20932501D02*
X3241428Y-20396786D01*
X3241428Y-20396786D02*
X3241428Y-21146786D01*
X2884285Y-21146786D02*
X2884285Y-20396786D01*
X2562856Y-21111072D02*
X2455714Y-21146786D01*
X2455714Y-21146786D02*
X2277142Y-21146786D01*
X2277142Y-21146786D02*
X2205714Y-21111072D01*
X2205714Y-21111072D02*
X2169999Y-21075358D01*
X2169999Y-21075358D02*
X2134285Y-21003929D01*
X2134285Y-21003929D02*
X2134285Y-20932501D01*
X2134285Y-20932501D02*
X2169999Y-20861072D01*
X2169999Y-20861072D02*
X2205714Y-20825358D01*
X2205714Y-20825358D02*
X2277142Y-20789643D01*
X2277142Y-20789643D02*
X2419999Y-20753929D01*
X2419999Y-20753929D02*
X2491428Y-20718215D01*
X2491428Y-20718215D02*
X2527142Y-20682501D01*
X2527142Y-20682501D02*
X2562856Y-20611072D01*
X2562856Y-20611072D02*
X2562856Y-20539643D01*
X2562856Y-20539643D02*
X2527142Y-20468215D01*
X2527142Y-20468215D02*
X2491428Y-20432501D01*
X2491428Y-20432501D02*
X2419999Y-20396786D01*
X2419999Y-20396786D02*
X2241428Y-20396786D01*
X2241428Y-20396786D02*
X2134285Y-20432501D01*
X1669999Y-20396786D02*
X1527142Y-20396786D01*
X1527142Y-20396786D02*
X1455713Y-20432501D01*
X1455713Y-20432501D02*
X1384285Y-20503929D01*
X1384285Y-20503929D02*
X1348570Y-20646786D01*
X1348570Y-20646786D02*
X1348570Y-20896786D01*
X1348570Y-20896786D02*
X1384285Y-21039643D01*
X1384285Y-21039643D02*
X1455713Y-21111072D01*
X1455713Y-21111072D02*
X1527142Y-21146786D01*
X1527142Y-21146786D02*
X1669999Y-21146786D01*
X1669999Y-21146786D02*
X1741428Y-21111072D01*
X1741428Y-21111072D02*
X1812856Y-21039643D01*
X1812856Y-21039643D02*
X1848570Y-20896786D01*
X1848570Y-20896786D02*
X1848570Y-20646786D01*
X1848570Y-20646786D02*
X1812856Y-20503929D01*
X1812856Y-20503929D02*
X1741428Y-20432501D01*
X1741428Y-20432501D02*
X1669999Y-20396786D01*
X11071429Y-20396786D02*
X10821429Y-21146786D01*
X10821429Y-21146786D02*
X10571429Y-20396786D01*
X9892857Y-21075358D02*
X9928571Y-21111072D01*
X9928571Y-21111072D02*
X10035714Y-21146786D01*
X10035714Y-21146786D02*
X10107142Y-21146786D01*
X10107142Y-21146786D02*
X10214285Y-21111072D01*
X10214285Y-21111072D02*
X10285714Y-21039643D01*
X10285714Y-21039643D02*
X10321428Y-20968215D01*
X10321428Y-20968215D02*
X10357142Y-20825358D01*
X10357142Y-20825358D02*
X10357142Y-20718215D01*
X10357142Y-20718215D02*
X10321428Y-20575358D01*
X10321428Y-20575358D02*
X10285714Y-20503929D01*
X10285714Y-20503929D02*
X10214285Y-20432501D01*
X10214285Y-20432501D02*
X10107142Y-20396786D01*
X10107142Y-20396786D02*
X10035714Y-20396786D01*
X10035714Y-20396786D02*
X9928571Y-20432501D01*
X9928571Y-20432501D02*
X9892857Y-20468215D01*
X9142857Y-21075358D02*
X9178571Y-21111072D01*
X9178571Y-21111072D02*
X9285714Y-21146786D01*
X9285714Y-21146786D02*
X9357142Y-21146786D01*
X9357142Y-21146786D02*
X9464285Y-21111072D01*
X9464285Y-21111072D02*
X9535714Y-21039643D01*
X9535714Y-21039643D02*
X9571428Y-20968215D01*
X9571428Y-20968215D02*
X9607142Y-20825358D01*
X9607142Y-20825358D02*
X9607142Y-20718215D01*
X9607142Y-20718215D02*
X9571428Y-20575358D01*
X9571428Y-20575358D02*
X9535714Y-20503929D01*
X9535714Y-20503929D02*
X9464285Y-20432501D01*
X9464285Y-20432501D02*
X9357142Y-20396786D01*
X9357142Y-20396786D02*
X9285714Y-20396786D01*
X9285714Y-20396786D02*
X9178571Y-20432501D01*
X9178571Y-20432501D02*
X9142857Y-20468215D01*
X11535715Y-18606786D02*
X11535715Y-17856786D01*
X11535715Y-17856786D02*
X11285715Y-18392501D01*
X11285715Y-18392501D02*
X11035715Y-17856786D01*
X11035715Y-17856786D02*
X11035715Y-18606786D01*
X10535715Y-17856786D02*
X10392858Y-17856786D01*
X10392858Y-17856786D02*
X10321429Y-17892501D01*
X10321429Y-17892501D02*
X10250001Y-17963929D01*
X10250001Y-17963929D02*
X10214286Y-18106786D01*
X10214286Y-18106786D02*
X10214286Y-18356786D01*
X10214286Y-18356786D02*
X10250001Y-18499643D01*
X10250001Y-18499643D02*
X10321429Y-18571072D01*
X10321429Y-18571072D02*
X10392858Y-18606786D01*
X10392858Y-18606786D02*
X10535715Y-18606786D01*
X10535715Y-18606786D02*
X10607144Y-18571072D01*
X10607144Y-18571072D02*
X10678572Y-18499643D01*
X10678572Y-18499643D02*
X10714286Y-18356786D01*
X10714286Y-18356786D02*
X10714286Y-18106786D01*
X10714286Y-18106786D02*
X10678572Y-17963929D01*
X10678572Y-17963929D02*
X10607144Y-17892501D01*
X10607144Y-17892501D02*
X10535715Y-17856786D01*
X9928571Y-18571072D02*
X9821429Y-18606786D01*
X9821429Y-18606786D02*
X9642857Y-18606786D01*
X9642857Y-18606786D02*
X9571429Y-18571072D01*
X9571429Y-18571072D02*
X9535714Y-18535358D01*
X9535714Y-18535358D02*
X9500000Y-18463929D01*
X9500000Y-18463929D02*
X9500000Y-18392501D01*
X9500000Y-18392501D02*
X9535714Y-18321072D01*
X9535714Y-18321072D02*
X9571429Y-18285358D01*
X9571429Y-18285358D02*
X9642857Y-18249643D01*
X9642857Y-18249643D02*
X9785714Y-18213929D01*
X9785714Y-18213929D02*
X9857143Y-18178215D01*
X9857143Y-18178215D02*
X9892857Y-18142501D01*
X9892857Y-18142501D02*
X9928571Y-18071072D01*
X9928571Y-18071072D02*
X9928571Y-17999643D01*
X9928571Y-17999643D02*
X9892857Y-17928215D01*
X9892857Y-17928215D02*
X9857143Y-17892501D01*
X9857143Y-17892501D02*
X9785714Y-17856786D01*
X9785714Y-17856786D02*
X9607143Y-17856786D01*
X9607143Y-17856786D02*
X9500000Y-17892501D01*
X9178571Y-18606786D02*
X9178571Y-17856786D01*
X3777142Y-18571072D02*
X3670000Y-18606786D01*
X3670000Y-18606786D02*
X3491428Y-18606786D01*
X3491428Y-18606786D02*
X3420000Y-18571072D01*
X3420000Y-18571072D02*
X3384285Y-18535358D01*
X3384285Y-18535358D02*
X3348571Y-18463929D01*
X3348571Y-18463929D02*
X3348571Y-18392501D01*
X3348571Y-18392501D02*
X3384285Y-18321072D01*
X3384285Y-18321072D02*
X3420000Y-18285358D01*
X3420000Y-18285358D02*
X3491428Y-18249643D01*
X3491428Y-18249643D02*
X3634285Y-18213929D01*
X3634285Y-18213929D02*
X3705714Y-18178215D01*
X3705714Y-18178215D02*
X3741428Y-18142501D01*
X3741428Y-18142501D02*
X3777142Y-18071072D01*
X3777142Y-18071072D02*
X3777142Y-17999643D01*
X3777142Y-17999643D02*
X3741428Y-17928215D01*
X3741428Y-17928215D02*
X3705714Y-17892501D01*
X3705714Y-17892501D02*
X3634285Y-17856786D01*
X3634285Y-17856786D02*
X3455714Y-17856786D01*
X3455714Y-17856786D02*
X3348571Y-17892501D01*
X2598571Y-18535358D02*
X2634285Y-18571072D01*
X2634285Y-18571072D02*
X2741428Y-18606786D01*
X2741428Y-18606786D02*
X2812856Y-18606786D01*
X2812856Y-18606786D02*
X2919999Y-18571072D01*
X2919999Y-18571072D02*
X2991428Y-18499643D01*
X2991428Y-18499643D02*
X3027142Y-18428215D01*
X3027142Y-18428215D02*
X3062856Y-18285358D01*
X3062856Y-18285358D02*
X3062856Y-18178215D01*
X3062856Y-18178215D02*
X3027142Y-18035358D01*
X3027142Y-18035358D02*
X2991428Y-17963929D01*
X2991428Y-17963929D02*
X2919999Y-17892501D01*
X2919999Y-17892501D02*
X2812856Y-17856786D01*
X2812856Y-17856786D02*
X2741428Y-17856786D01*
X2741428Y-17856786D02*
X2634285Y-17892501D01*
X2634285Y-17892501D02*
X2598571Y-17928215D01*
X2277142Y-18606786D02*
X2277142Y-17856786D01*
X1848571Y-18606786D02*
X2169999Y-18178215D01*
X1848571Y-17856786D02*
X2277142Y-18285358D01*
X10714286Y-15352501D02*
X10785715Y-15316786D01*
X10785715Y-15316786D02*
X10892857Y-15316786D01*
X10892857Y-15316786D02*
X11000000Y-15352501D01*
X11000000Y-15352501D02*
X11071429Y-15423929D01*
X11071429Y-15423929D02*
X11107143Y-15495358D01*
X11107143Y-15495358D02*
X11142857Y-15638215D01*
X11142857Y-15638215D02*
X11142857Y-15745358D01*
X11142857Y-15745358D02*
X11107143Y-15888215D01*
X11107143Y-15888215D02*
X11071429Y-15959643D01*
X11071429Y-15959643D02*
X11000000Y-16031072D01*
X11000000Y-16031072D02*
X10892857Y-16066786D01*
X10892857Y-16066786D02*
X10821429Y-16066786D01*
X10821429Y-16066786D02*
X10714286Y-16031072D01*
X10714286Y-16031072D02*
X10678572Y-15995358D01*
X10678572Y-15995358D02*
X10678572Y-15745358D01*
X10678572Y-15745358D02*
X10821429Y-15745358D01*
X10357143Y-16066786D02*
X10357143Y-15316786D01*
X10357143Y-15316786D02*
X9928572Y-16066786D01*
X9928572Y-16066786D02*
X9928572Y-15316786D01*
X9571428Y-16066786D02*
X9571428Y-15316786D01*
X9571428Y-15316786D02*
X9392857Y-15316786D01*
X9392857Y-15316786D02*
X9285714Y-15352501D01*
X9285714Y-15352501D02*
X9214285Y-15423929D01*
X9214285Y-15423929D02*
X9178571Y-15495358D01*
X9178571Y-15495358D02*
X9142857Y-15638215D01*
X9142857Y-15638215D02*
X9142857Y-15745358D01*
X9142857Y-15745358D02*
X9178571Y-15888215D01*
X9178571Y-15888215D02*
X9214285Y-15959643D01*
X9214285Y-15959643D02*
X9285714Y-16031072D01*
X9285714Y-16031072D02*
X9392857Y-16066786D01*
X9392857Y-16066786D02*
X9571428Y-16066786D01*
X3312857Y-16066786D02*
X3562857Y-15709643D01*
X3741428Y-16066786D02*
X3741428Y-15316786D01*
X3741428Y-15316786D02*
X3455714Y-15316786D01*
X3455714Y-15316786D02*
X3384285Y-15352501D01*
X3384285Y-15352501D02*
X3348571Y-15388215D01*
X3348571Y-15388215D02*
X3312857Y-15459643D01*
X3312857Y-15459643D02*
X3312857Y-15566786D01*
X3312857Y-15566786D02*
X3348571Y-15638215D01*
X3348571Y-15638215D02*
X3384285Y-15673929D01*
X3384285Y-15673929D02*
X3455714Y-15709643D01*
X3455714Y-15709643D02*
X3741428Y-15709643D01*
X3027142Y-16031072D02*
X2920000Y-16066786D01*
X2920000Y-16066786D02*
X2741428Y-16066786D01*
X2741428Y-16066786D02*
X2670000Y-16031072D01*
X2670000Y-16031072D02*
X2634285Y-15995358D01*
X2634285Y-15995358D02*
X2598571Y-15923929D01*
X2598571Y-15923929D02*
X2598571Y-15852501D01*
X2598571Y-15852501D02*
X2634285Y-15781072D01*
X2634285Y-15781072D02*
X2670000Y-15745358D01*
X2670000Y-15745358D02*
X2741428Y-15709643D01*
X2741428Y-15709643D02*
X2884285Y-15673929D01*
X2884285Y-15673929D02*
X2955714Y-15638215D01*
X2955714Y-15638215D02*
X2991428Y-15602501D01*
X2991428Y-15602501D02*
X3027142Y-15531072D01*
X3027142Y-15531072D02*
X3027142Y-15459643D01*
X3027142Y-15459643D02*
X2991428Y-15388215D01*
X2991428Y-15388215D02*
X2955714Y-15352501D01*
X2955714Y-15352501D02*
X2884285Y-15316786D01*
X2884285Y-15316786D02*
X2705714Y-15316786D01*
X2705714Y-15316786D02*
X2598571Y-15352501D01*
X2384285Y-15316786D02*
X1955714Y-15316786D01*
X2169999Y-16066786D02*
X2169999Y-15316786D01*
X32506666Y-20856130D02*
X32839999Y-20379940D01*
X33078094Y-20856130D02*
X33078094Y-19856130D01*
X33078094Y-19856130D02*
X32697142Y-19856130D01*
X32697142Y-19856130D02*
X32601904Y-19903750D01*
X32601904Y-19903750D02*
X32554285Y-19951369D01*
X32554285Y-19951369D02*
X32506666Y-20046607D01*
X32506666Y-20046607D02*
X32506666Y-20189464D01*
X32506666Y-20189464D02*
X32554285Y-20284702D01*
X32554285Y-20284702D02*
X32601904Y-20332321D01*
X32601904Y-20332321D02*
X32697142Y-20379940D01*
X32697142Y-20379940D02*
X33078094Y-20379940D01*
X32125713Y-19951369D02*
X32078094Y-19903750D01*
X32078094Y-19903750D02*
X31982856Y-19856130D01*
X31982856Y-19856130D02*
X31744761Y-19856130D01*
X31744761Y-19856130D02*
X31649523Y-19903750D01*
X31649523Y-19903750D02*
X31601904Y-19951369D01*
X31601904Y-19951369D02*
X31554285Y-20046607D01*
X31554285Y-20046607D02*
X31554285Y-20141845D01*
X31554285Y-20141845D02*
X31601904Y-20284702D01*
X31601904Y-20284702D02*
X32173332Y-20856130D01*
X32173332Y-20856130D02*
X31554285Y-20856130D01*
X32556666Y-15122380D02*
X32889999Y-14646190D01*
X33128094Y-15122380D02*
X33128094Y-14122380D01*
X33128094Y-14122380D02*
X32747142Y-14122380D01*
X32747142Y-14122380D02*
X32651904Y-14170000D01*
X32651904Y-14170000D02*
X32604285Y-14217619D01*
X32604285Y-14217619D02*
X32556666Y-14312857D01*
X32556666Y-14312857D02*
X32556666Y-14455714D01*
X32556666Y-14455714D02*
X32604285Y-14550952D01*
X32604285Y-14550952D02*
X32651904Y-14598571D01*
X32651904Y-14598571D02*
X32747142Y-14646190D01*
X32747142Y-14646190D02*
X33128094Y-14646190D01*
X32223332Y-14122380D02*
X31604285Y-14122380D01*
X31604285Y-14122380D02*
X31937618Y-14503333D01*
X31937618Y-14503333D02*
X31794761Y-14503333D01*
X31794761Y-14503333D02*
X31699523Y-14550952D01*
X31699523Y-14550952D02*
X31651904Y-14598571D01*
X31651904Y-14598571D02*
X31604285Y-14693809D01*
X31604285Y-14693809D02*
X31604285Y-14931904D01*
X31604285Y-14931904D02*
X31651904Y-15027142D01*
X31651904Y-15027142D02*
X31699523Y-15074761D01*
X31699523Y-15074761D02*
X31794761Y-15122380D01*
X31794761Y-15122380D02*
X32080475Y-15122380D01*
X32080475Y-15122380D02*
X32175713Y-15074761D01*
X32175713Y-15074761D02*
X32223332Y-15027142D01*
X56577083Y-39639761D02*
X56434226Y-39687380D01*
X56434226Y-39687380D02*
X56196131Y-39687380D01*
X56196131Y-39687380D02*
X56100893Y-39639761D01*
X56100893Y-39639761D02*
X56053274Y-39592142D01*
X56053274Y-39592142D02*
X56005655Y-39496904D01*
X56005655Y-39496904D02*
X56005655Y-39401666D01*
X56005655Y-39401666D02*
X56053274Y-39306428D01*
X56053274Y-39306428D02*
X56100893Y-39258809D01*
X56100893Y-39258809D02*
X56196131Y-39211190D01*
X56196131Y-39211190D02*
X56386607Y-39163571D01*
X56386607Y-39163571D02*
X56481845Y-39115952D01*
X56481845Y-39115952D02*
X56529464Y-39068333D01*
X56529464Y-39068333D02*
X56577083Y-38973095D01*
X56577083Y-38973095D02*
X56577083Y-38877857D01*
X56577083Y-38877857D02*
X56529464Y-38782619D01*
X56529464Y-38782619D02*
X56481845Y-38735000D01*
X56481845Y-38735000D02*
X56386607Y-38687380D01*
X56386607Y-38687380D02*
X56148512Y-38687380D01*
X56148512Y-38687380D02*
X56005655Y-38735000D01*
X55672321Y-38687380D02*
X55434226Y-39687380D01*
X55434226Y-39687380D02*
X55243750Y-38973095D01*
X55243750Y-38973095D02*
X55053274Y-39687380D01*
X55053274Y-39687380D02*
X54815179Y-38687380D01*
X53910416Y-39687380D02*
X54481844Y-39687380D01*
X54196130Y-39687380D02*
X54196130Y-38687380D01*
X54196130Y-38687380D02*
X54291368Y-38830238D01*
X54291368Y-38830238D02*
X54386606Y-38925476D01*
X54386606Y-38925476D02*
X54481844Y-38973095D01*
X43902916Y-35188392D02*
X43950535Y-35236011D01*
X43950535Y-35236011D02*
X44093392Y-35283630D01*
X44093392Y-35283630D02*
X44188630Y-35283630D01*
X44188630Y-35283630D02*
X44331487Y-35236011D01*
X44331487Y-35236011D02*
X44426725Y-35140773D01*
X44426725Y-35140773D02*
X44474344Y-35045535D01*
X44474344Y-35045535D02*
X44521963Y-34855059D01*
X44521963Y-34855059D02*
X44521963Y-34712202D01*
X44521963Y-34712202D02*
X44474344Y-34521726D01*
X44474344Y-34521726D02*
X44426725Y-34426488D01*
X44426725Y-34426488D02*
X44331487Y-34331250D01*
X44331487Y-34331250D02*
X44188630Y-34283630D01*
X44188630Y-34283630D02*
X44093392Y-34283630D01*
X44093392Y-34283630D02*
X43950535Y-34331250D01*
X43950535Y-34331250D02*
X43902916Y-34378869D01*
X42998154Y-34283630D02*
X43474344Y-34283630D01*
X43474344Y-34283630D02*
X43521963Y-34759821D01*
X43521963Y-34759821D02*
X43474344Y-34712202D01*
X43474344Y-34712202D02*
X43379106Y-34664583D01*
X43379106Y-34664583D02*
X43141011Y-34664583D01*
X43141011Y-34664583D02*
X43045773Y-34712202D01*
X43045773Y-34712202D02*
X42998154Y-34759821D01*
X42998154Y-34759821D02*
X42950535Y-34855059D01*
X42950535Y-34855059D02*
X42950535Y-35093154D01*
X42950535Y-35093154D02*
X42998154Y-35188392D01*
X42998154Y-35188392D02*
X43045773Y-35236011D01*
X43045773Y-35236011D02*
X43141011Y-35283630D01*
X43141011Y-35283630D02*
X43379106Y-35283630D01*
X43379106Y-35283630D02*
X43474344Y-35236011D01*
X43474344Y-35236011D02*
X43521963Y-35188392D01*
X23290416Y-27457142D02*
X23338035Y-27504761D01*
X23338035Y-27504761D02*
X23480892Y-27552380D01*
X23480892Y-27552380D02*
X23576130Y-27552380D01*
X23576130Y-27552380D02*
X23718987Y-27504761D01*
X23718987Y-27504761D02*
X23814225Y-27409523D01*
X23814225Y-27409523D02*
X23861844Y-27314285D01*
X23861844Y-27314285D02*
X23909463Y-27123809D01*
X23909463Y-27123809D02*
X23909463Y-26980952D01*
X23909463Y-26980952D02*
X23861844Y-26790476D01*
X23861844Y-26790476D02*
X23814225Y-26695238D01*
X23814225Y-26695238D02*
X23718987Y-26600000D01*
X23718987Y-26600000D02*
X23576130Y-26552380D01*
X23576130Y-26552380D02*
X23480892Y-26552380D01*
X23480892Y-26552380D02*
X23338035Y-26600000D01*
X23338035Y-26600000D02*
X23290416Y-26647619D01*
X22433273Y-26885714D02*
X22433273Y-27552380D01*
X22671368Y-26504761D02*
X22909463Y-27219047D01*
X22909463Y-27219047D02*
X22290416Y-27219047D01*
X32226666Y-48917142D02*
X32274285Y-48964761D01*
X32274285Y-48964761D02*
X32417142Y-49012380D01*
X32417142Y-49012380D02*
X32512380Y-49012380D01*
X32512380Y-49012380D02*
X32655237Y-48964761D01*
X32655237Y-48964761D02*
X32750475Y-48869523D01*
X32750475Y-48869523D02*
X32798094Y-48774285D01*
X32798094Y-48774285D02*
X32845713Y-48583809D01*
X32845713Y-48583809D02*
X32845713Y-48440952D01*
X32845713Y-48440952D02*
X32798094Y-48250476D01*
X32798094Y-48250476D02*
X32750475Y-48155238D01*
X32750475Y-48155238D02*
X32655237Y-48060000D01*
X32655237Y-48060000D02*
X32512380Y-48012380D01*
X32512380Y-48012380D02*
X32417142Y-48012380D01*
X32417142Y-48012380D02*
X32274285Y-48060000D01*
X32274285Y-48060000D02*
X32226666Y-48107619D01*
X31893332Y-48012380D02*
X31274285Y-48012380D01*
X31274285Y-48012380D02*
X31607618Y-48393333D01*
X31607618Y-48393333D02*
X31464761Y-48393333D01*
X31464761Y-48393333D02*
X31369523Y-48440952D01*
X31369523Y-48440952D02*
X31321904Y-48488571D01*
X31321904Y-48488571D02*
X31274285Y-48583809D01*
X31274285Y-48583809D02*
X31274285Y-48821904D01*
X31274285Y-48821904D02*
X31321904Y-48917142D01*
X31321904Y-48917142D02*
X31369523Y-48964761D01*
X31369523Y-48964761D02*
X31464761Y-49012380D01*
X31464761Y-49012380D02*
X31750475Y-49012380D01*
X31750475Y-49012380D02*
X31845713Y-48964761D01*
X31845713Y-48964761D02*
X31893332Y-48917142D01*
X20556130Y-36996845D02*
X21365654Y-36996845D01*
X21365654Y-36996845D02*
X21460892Y-37044464D01*
X21460892Y-37044464D02*
X21508511Y-37092083D01*
X21508511Y-37092083D02*
X21556130Y-37187321D01*
X21556130Y-37187321D02*
X21556130Y-37377797D01*
X21556130Y-37377797D02*
X21508511Y-37473035D01*
X21508511Y-37473035D02*
X21460892Y-37520654D01*
X21460892Y-37520654D02*
X21365654Y-37568273D01*
X21365654Y-37568273D02*
X20556130Y-37568273D01*
X20651369Y-37996846D02*
X20603750Y-38044465D01*
X20603750Y-38044465D02*
X20556130Y-38139703D01*
X20556130Y-38139703D02*
X20556130Y-38377798D01*
X20556130Y-38377798D02*
X20603750Y-38473036D01*
X20603750Y-38473036D02*
X20651369Y-38520655D01*
X20651369Y-38520655D02*
X20746607Y-38568274D01*
X20746607Y-38568274D02*
X20841845Y-38568274D01*
X20841845Y-38568274D02*
X20984702Y-38520655D01*
X20984702Y-38520655D02*
X21556130Y-37949227D01*
X21556130Y-37949227D02*
X21556130Y-38568274D01*
X44097440Y-37157559D02*
X44573630Y-37157559D01*
X43573630Y-36824226D02*
X44097440Y-37157559D01*
X44097440Y-37157559D02*
X43573630Y-37490892D01*
X44573630Y-38348035D02*
X44573630Y-37776607D01*
X44573630Y-38062321D02*
X43573630Y-38062321D01*
X43573630Y-38062321D02*
X43716488Y-37967083D01*
X43716488Y-37967083D02*
X43811726Y-37871845D01*
X43811726Y-37871845D02*
X43859345Y-37776607D01*
X37505892Y-30989583D02*
X37553511Y-30941964D01*
X37553511Y-30941964D02*
X37601130Y-30799107D01*
X37601130Y-30799107D02*
X37601130Y-30703869D01*
X37601130Y-30703869D02*
X37553511Y-30561012D01*
X37553511Y-30561012D02*
X37458273Y-30465774D01*
X37458273Y-30465774D02*
X37363035Y-30418155D01*
X37363035Y-30418155D02*
X37172559Y-30370536D01*
X37172559Y-30370536D02*
X37029702Y-30370536D01*
X37029702Y-30370536D02*
X36839226Y-30418155D01*
X36839226Y-30418155D02*
X36743988Y-30465774D01*
X36743988Y-30465774D02*
X36648750Y-30561012D01*
X36648750Y-30561012D02*
X36601130Y-30703869D01*
X36601130Y-30703869D02*
X36601130Y-30799107D01*
X36601130Y-30799107D02*
X36648750Y-30941964D01*
X36648750Y-30941964D02*
X36696369Y-30989583D01*
X37601130Y-31941964D02*
X37601130Y-31370536D01*
X37601130Y-31656250D02*
X36601130Y-31656250D01*
X36601130Y-31656250D02*
X36743988Y-31561012D01*
X36743988Y-31561012D02*
X36839226Y-31465774D01*
X36839226Y-31465774D02*
X36886845Y-31370536D01*
X50173630Y-31677083D02*
X49697440Y-31343750D01*
X50173630Y-31105655D02*
X49173630Y-31105655D01*
X49173630Y-31105655D02*
X49173630Y-31486607D01*
X49173630Y-31486607D02*
X49221250Y-31581845D01*
X49221250Y-31581845D02*
X49268869Y-31629464D01*
X49268869Y-31629464D02*
X49364107Y-31677083D01*
X49364107Y-31677083D02*
X49506964Y-31677083D01*
X49506964Y-31677083D02*
X49602202Y-31629464D01*
X49602202Y-31629464D02*
X49649821Y-31581845D01*
X49649821Y-31581845D02*
X49697440Y-31486607D01*
X49697440Y-31486607D02*
X49697440Y-31105655D01*
X50173630Y-32629464D02*
X50173630Y-32058036D01*
X50173630Y-32343750D02*
X49173630Y-32343750D01*
X49173630Y-32343750D02*
X49316488Y-32248512D01*
X49316488Y-32248512D02*
X49411726Y-32153274D01*
X49411726Y-32153274D02*
X49459345Y-32058036D01*
X19389880Y-9055655D02*
X18389880Y-9055655D01*
X18389880Y-9055655D02*
X18389880Y-9293750D01*
X18389880Y-9293750D02*
X18437500Y-9436607D01*
X18437500Y-9436607D02*
X18532738Y-9531845D01*
X18532738Y-9531845D02*
X18627976Y-9579464D01*
X18627976Y-9579464D02*
X18818452Y-9627083D01*
X18818452Y-9627083D02*
X18961309Y-9627083D01*
X18961309Y-9627083D02*
X19151785Y-9579464D01*
X19151785Y-9579464D02*
X19247023Y-9531845D01*
X19247023Y-9531845D02*
X19342261Y-9436607D01*
X19342261Y-9436607D02*
X19389880Y-9293750D01*
X19389880Y-9293750D02*
X19389880Y-9055655D01*
X19389880Y-10579464D02*
X19389880Y-10008036D01*
X19389880Y-10293750D02*
X18389880Y-10293750D01*
X18389880Y-10293750D02*
X18532738Y-10198512D01*
X18532738Y-10198512D02*
X18627976Y-10103274D01*
X18627976Y-10103274D02*
X18675595Y-10008036D01*
X22564880Y-9055655D02*
X21564880Y-9055655D01*
X21564880Y-9055655D02*
X21564880Y-9293750D01*
X21564880Y-9293750D02*
X21612500Y-9436607D01*
X21612500Y-9436607D02*
X21707738Y-9531845D01*
X21707738Y-9531845D02*
X21802976Y-9579464D01*
X21802976Y-9579464D02*
X21993452Y-9627083D01*
X21993452Y-9627083D02*
X22136309Y-9627083D01*
X22136309Y-9627083D02*
X22326785Y-9579464D01*
X22326785Y-9579464D02*
X22422023Y-9531845D01*
X22422023Y-9531845D02*
X22517261Y-9436607D01*
X22517261Y-9436607D02*
X22564880Y-9293750D01*
X22564880Y-9293750D02*
X22564880Y-9055655D01*
X21660119Y-10008036D02*
X21612500Y-10055655D01*
X21612500Y-10055655D02*
X21564880Y-10150893D01*
X21564880Y-10150893D02*
X21564880Y-10388988D01*
X21564880Y-10388988D02*
X21612500Y-10484226D01*
X21612500Y-10484226D02*
X21660119Y-10531845D01*
X21660119Y-10531845D02*
X21755357Y-10579464D01*
X21755357Y-10579464D02*
X21850595Y-10579464D01*
X21850595Y-10579464D02*
X21993452Y-10531845D01*
X21993452Y-10531845D02*
X22564880Y-9960417D01*
X22564880Y-9960417D02*
X22564880Y-10579464D01*
X40027380Y-9055655D02*
X39027380Y-9055655D01*
X39027380Y-9055655D02*
X39027380Y-9293750D01*
X39027380Y-9293750D02*
X39075000Y-9436607D01*
X39075000Y-9436607D02*
X39170238Y-9531845D01*
X39170238Y-9531845D02*
X39265476Y-9579464D01*
X39265476Y-9579464D02*
X39455952Y-9627083D01*
X39455952Y-9627083D02*
X39598809Y-9627083D01*
X39598809Y-9627083D02*
X39789285Y-9579464D01*
X39789285Y-9579464D02*
X39884523Y-9531845D01*
X39884523Y-9531845D02*
X39979761Y-9436607D01*
X39979761Y-9436607D02*
X40027380Y-9293750D01*
X40027380Y-9293750D02*
X40027380Y-9055655D01*
X39027380Y-9960417D02*
X39027380Y-10579464D01*
X39027380Y-10579464D02*
X39408333Y-10246131D01*
X39408333Y-10246131D02*
X39408333Y-10388988D01*
X39408333Y-10388988D02*
X39455952Y-10484226D01*
X39455952Y-10484226D02*
X39503571Y-10531845D01*
X39503571Y-10531845D02*
X39598809Y-10579464D01*
X39598809Y-10579464D02*
X39836904Y-10579464D01*
X39836904Y-10579464D02*
X39932142Y-10531845D01*
X39932142Y-10531845D02*
X39979761Y-10484226D01*
X39979761Y-10484226D02*
X40027380Y-10388988D01*
X40027380Y-10388988D02*
X40027380Y-10103274D01*
X40027380Y-10103274D02*
X39979761Y-10008036D01*
X39979761Y-10008036D02*
X39932142Y-9960417D01*
X59077380Y-9055655D02*
X58077380Y-9055655D01*
X58077380Y-9055655D02*
X58077380Y-9293750D01*
X58077380Y-9293750D02*
X58125000Y-9436607D01*
X58125000Y-9436607D02*
X58220238Y-9531845D01*
X58220238Y-9531845D02*
X58315476Y-9579464D01*
X58315476Y-9579464D02*
X58505952Y-9627083D01*
X58505952Y-9627083D02*
X58648809Y-9627083D01*
X58648809Y-9627083D02*
X58839285Y-9579464D01*
X58839285Y-9579464D02*
X58934523Y-9531845D01*
X58934523Y-9531845D02*
X59029761Y-9436607D01*
X59029761Y-9436607D02*
X59077380Y-9293750D01*
X59077380Y-9293750D02*
X59077380Y-9055655D01*
X58410714Y-10484226D02*
X59077380Y-10484226D01*
X58029761Y-10246131D02*
X58744047Y-10008036D01*
X58744047Y-10008036D02*
X58744047Y-10627083D01*
X78127380Y-9055655D02*
X77127380Y-9055655D01*
X77127380Y-9055655D02*
X77127380Y-9293750D01*
X77127380Y-9293750D02*
X77175000Y-9436607D01*
X77175000Y-9436607D02*
X77270238Y-9531845D01*
X77270238Y-9531845D02*
X77365476Y-9579464D01*
X77365476Y-9579464D02*
X77555952Y-9627083D01*
X77555952Y-9627083D02*
X77698809Y-9627083D01*
X77698809Y-9627083D02*
X77889285Y-9579464D01*
X77889285Y-9579464D02*
X77984523Y-9531845D01*
X77984523Y-9531845D02*
X78079761Y-9436607D01*
X78079761Y-9436607D02*
X78127380Y-9293750D01*
X78127380Y-9293750D02*
X78127380Y-9055655D01*
X77127380Y-10531845D02*
X77127380Y-10055655D01*
X77127380Y-10055655D02*
X77603571Y-10008036D01*
X77603571Y-10008036D02*
X77555952Y-10055655D01*
X77555952Y-10055655D02*
X77508333Y-10150893D01*
X77508333Y-10150893D02*
X77508333Y-10388988D01*
X77508333Y-10388988D02*
X77555952Y-10484226D01*
X77555952Y-10484226D02*
X77603571Y-10531845D01*
X77603571Y-10531845D02*
X77698809Y-10579464D01*
X77698809Y-10579464D02*
X77936904Y-10579464D01*
X77936904Y-10579464D02*
X78032142Y-10531845D01*
X78032142Y-10531845D02*
X78079761Y-10484226D01*
X78079761Y-10484226D02*
X78127380Y-10388988D01*
X78127380Y-10388988D02*
X78127380Y-10150893D01*
X78127380Y-10150893D02*
X78079761Y-10055655D01*
X78079761Y-10055655D02*
X78032142Y-10008036D01*
X97177380Y-9055655D02*
X96177380Y-9055655D01*
X96177380Y-9055655D02*
X96177380Y-9293750D01*
X96177380Y-9293750D02*
X96225000Y-9436607D01*
X96225000Y-9436607D02*
X96320238Y-9531845D01*
X96320238Y-9531845D02*
X96415476Y-9579464D01*
X96415476Y-9579464D02*
X96605952Y-9627083D01*
X96605952Y-9627083D02*
X96748809Y-9627083D01*
X96748809Y-9627083D02*
X96939285Y-9579464D01*
X96939285Y-9579464D02*
X97034523Y-9531845D01*
X97034523Y-9531845D02*
X97129761Y-9436607D01*
X97129761Y-9436607D02*
X97177380Y-9293750D01*
X97177380Y-9293750D02*
X97177380Y-9055655D01*
X96177380Y-10484226D02*
X96177380Y-10293750D01*
X96177380Y-10293750D02*
X96225000Y-10198512D01*
X96225000Y-10198512D02*
X96272619Y-10150893D01*
X96272619Y-10150893D02*
X96415476Y-10055655D01*
X96415476Y-10055655D02*
X96605952Y-10008036D01*
X96605952Y-10008036D02*
X96986904Y-10008036D01*
X96986904Y-10008036D02*
X97082142Y-10055655D01*
X97082142Y-10055655D02*
X97129761Y-10103274D01*
X97129761Y-10103274D02*
X97177380Y-10198512D01*
X97177380Y-10198512D02*
X97177380Y-10388988D01*
X97177380Y-10388988D02*
X97129761Y-10484226D01*
X97129761Y-10484226D02*
X97082142Y-10531845D01*
X97082142Y-10531845D02*
X96986904Y-10579464D01*
X96986904Y-10579464D02*
X96748809Y-10579464D01*
X96748809Y-10579464D02*
X96653571Y-10531845D01*
X96653571Y-10531845D02*
X96605952Y-10484226D01*
X96605952Y-10484226D02*
X96558333Y-10388988D01*
X96558333Y-10388988D02*
X96558333Y-10198512D01*
X96558333Y-10198512D02*
X96605952Y-10103274D01*
X96605952Y-10103274D02*
X96653571Y-10055655D01*
X96653571Y-10055655D02*
X96748809Y-10008036D01*
X116227380Y-9055655D02*
X115227380Y-9055655D01*
X115227380Y-9055655D02*
X115227380Y-9293750D01*
X115227380Y-9293750D02*
X115275000Y-9436607D01*
X115275000Y-9436607D02*
X115370238Y-9531845D01*
X115370238Y-9531845D02*
X115465476Y-9579464D01*
X115465476Y-9579464D02*
X115655952Y-9627083D01*
X115655952Y-9627083D02*
X115798809Y-9627083D01*
X115798809Y-9627083D02*
X115989285Y-9579464D01*
X115989285Y-9579464D02*
X116084523Y-9531845D01*
X116084523Y-9531845D02*
X116179761Y-9436607D01*
X116179761Y-9436607D02*
X116227380Y-9293750D01*
X116227380Y-9293750D02*
X116227380Y-9055655D01*
X115227380Y-9960417D02*
X115227380Y-10627083D01*
X115227380Y-10627083D02*
X116227380Y-10198512D01*
X135277380Y-9055655D02*
X134277380Y-9055655D01*
X134277380Y-9055655D02*
X134277380Y-9293750D01*
X134277380Y-9293750D02*
X134325000Y-9436607D01*
X134325000Y-9436607D02*
X134420238Y-9531845D01*
X134420238Y-9531845D02*
X134515476Y-9579464D01*
X134515476Y-9579464D02*
X134705952Y-9627083D01*
X134705952Y-9627083D02*
X134848809Y-9627083D01*
X134848809Y-9627083D02*
X135039285Y-9579464D01*
X135039285Y-9579464D02*
X135134523Y-9531845D01*
X135134523Y-9531845D02*
X135229761Y-9436607D01*
X135229761Y-9436607D02*
X135277380Y-9293750D01*
X135277380Y-9293750D02*
X135277380Y-9055655D01*
X134705952Y-10198512D02*
X134658333Y-10103274D01*
X134658333Y-10103274D02*
X134610714Y-10055655D01*
X134610714Y-10055655D02*
X134515476Y-10008036D01*
X134515476Y-10008036D02*
X134467857Y-10008036D01*
X134467857Y-10008036D02*
X134372619Y-10055655D01*
X134372619Y-10055655D02*
X134325000Y-10103274D01*
X134325000Y-10103274D02*
X134277380Y-10198512D01*
X134277380Y-10198512D02*
X134277380Y-10388988D01*
X134277380Y-10388988D02*
X134325000Y-10484226D01*
X134325000Y-10484226D02*
X134372619Y-10531845D01*
X134372619Y-10531845D02*
X134467857Y-10579464D01*
X134467857Y-10579464D02*
X134515476Y-10579464D01*
X134515476Y-10579464D02*
X134610714Y-10531845D01*
X134610714Y-10531845D02*
X134658333Y-10484226D01*
X134658333Y-10484226D02*
X134705952Y-10388988D01*
X134705952Y-10388988D02*
X134705952Y-10198512D01*
X134705952Y-10198512D02*
X134753571Y-10103274D01*
X134753571Y-10103274D02*
X134801190Y-10055655D01*
X134801190Y-10055655D02*
X134896428Y-10008036D01*
X134896428Y-10008036D02*
X135086904Y-10008036D01*
X135086904Y-10008036D02*
X135182142Y-10055655D01*
X135182142Y-10055655D02*
X135229761Y-10103274D01*
X135229761Y-10103274D02*
X135277380Y-10198512D01*
X135277380Y-10198512D02*
X135277380Y-10388988D01*
X135277380Y-10388988D02*
X135229761Y-10484226D01*
X135229761Y-10484226D02*
X135182142Y-10531845D01*
X135182142Y-10531845D02*
X135086904Y-10579464D01*
X135086904Y-10579464D02*
X134896428Y-10579464D01*
X134896428Y-10579464D02*
X134801190Y-10531845D01*
X134801190Y-10531845D02*
X134753571Y-10484226D01*
X134753571Y-10484226D02*
X134705952Y-10388988D01*
X154327380Y-9055655D02*
X153327380Y-9055655D01*
X153327380Y-9055655D02*
X153327380Y-9293750D01*
X153327380Y-9293750D02*
X153375000Y-9436607D01*
X153375000Y-9436607D02*
X153470238Y-9531845D01*
X153470238Y-9531845D02*
X153565476Y-9579464D01*
X153565476Y-9579464D02*
X153755952Y-9627083D01*
X153755952Y-9627083D02*
X153898809Y-9627083D01*
X153898809Y-9627083D02*
X154089285Y-9579464D01*
X154089285Y-9579464D02*
X154184523Y-9531845D01*
X154184523Y-9531845D02*
X154279761Y-9436607D01*
X154279761Y-9436607D02*
X154327380Y-9293750D01*
X154327380Y-9293750D02*
X154327380Y-9055655D01*
X154327380Y-10103274D02*
X154327380Y-10293750D01*
X154327380Y-10293750D02*
X154279761Y-10388988D01*
X154279761Y-10388988D02*
X154232142Y-10436607D01*
X154232142Y-10436607D02*
X154089285Y-10531845D01*
X154089285Y-10531845D02*
X153898809Y-10579464D01*
X153898809Y-10579464D02*
X153517857Y-10579464D01*
X153517857Y-10579464D02*
X153422619Y-10531845D01*
X153422619Y-10531845D02*
X153375000Y-10484226D01*
X153375000Y-10484226D02*
X153327380Y-10388988D01*
X153327380Y-10388988D02*
X153327380Y-10198512D01*
X153327380Y-10198512D02*
X153375000Y-10103274D01*
X153375000Y-10103274D02*
X153422619Y-10055655D01*
X153422619Y-10055655D02*
X153517857Y-10008036D01*
X153517857Y-10008036D02*
X153755952Y-10008036D01*
X153755952Y-10008036D02*
X153851190Y-10055655D01*
X153851190Y-10055655D02*
X153898809Y-10103274D01*
X153898809Y-10103274D02*
X153946428Y-10198512D01*
X153946428Y-10198512D02*
X153946428Y-10388988D01*
X153946428Y-10388988D02*
X153898809Y-10484226D01*
X153898809Y-10484226D02*
X153851190Y-10531845D01*
X153851190Y-10531845D02*
X153755952Y-10579464D01*
X173377380Y-8579464D02*
X172377380Y-8579464D01*
X172377380Y-8579464D02*
X172377380Y-8817559D01*
X172377380Y-8817559D02*
X172425000Y-8960416D01*
X172425000Y-8960416D02*
X172520238Y-9055654D01*
X172520238Y-9055654D02*
X172615476Y-9103273D01*
X172615476Y-9103273D02*
X172805952Y-9150892D01*
X172805952Y-9150892D02*
X172948809Y-9150892D01*
X172948809Y-9150892D02*
X173139285Y-9103273D01*
X173139285Y-9103273D02*
X173234523Y-9055654D01*
X173234523Y-9055654D02*
X173329761Y-8960416D01*
X173329761Y-8960416D02*
X173377380Y-8817559D01*
X173377380Y-8817559D02*
X173377380Y-8579464D01*
X173377380Y-10103273D02*
X173377380Y-9531845D01*
X173377380Y-9817559D02*
X172377380Y-9817559D01*
X172377380Y-9817559D02*
X172520238Y-9722321D01*
X172520238Y-9722321D02*
X172615476Y-9627083D01*
X172615476Y-9627083D02*
X172663095Y-9531845D01*
X172377380Y-10722321D02*
X172377380Y-10817559D01*
X172377380Y-10817559D02*
X172425000Y-10912797D01*
X172425000Y-10912797D02*
X172472619Y-10960416D01*
X172472619Y-10960416D02*
X172567857Y-11008035D01*
X172567857Y-11008035D02*
X172758333Y-11055654D01*
X172758333Y-11055654D02*
X172996428Y-11055654D01*
X172996428Y-11055654D02*
X173186904Y-11008035D01*
X173186904Y-11008035D02*
X173282142Y-10960416D01*
X173282142Y-10960416D02*
X173329761Y-10912797D01*
X173329761Y-10912797D02*
X173377380Y-10817559D01*
X173377380Y-10817559D02*
X173377380Y-10722321D01*
X173377380Y-10722321D02*
X173329761Y-10627083D01*
X173329761Y-10627083D02*
X173282142Y-10579464D01*
X173282142Y-10579464D02*
X173186904Y-10531845D01*
X173186904Y-10531845D02*
X172996428Y-10484226D01*
X172996428Y-10484226D02*
X172758333Y-10484226D01*
X172758333Y-10484226D02*
X172567857Y-10531845D01*
X172567857Y-10531845D02*
X172472619Y-10579464D01*
X172472619Y-10579464D02*
X172425000Y-10627083D01*
X172425000Y-10627083D02*
X172377380Y-10722321D01*
X192427380Y-8579464D02*
X191427380Y-8579464D01*
X191427380Y-8579464D02*
X191427380Y-8817559D01*
X191427380Y-8817559D02*
X191475000Y-8960416D01*
X191475000Y-8960416D02*
X191570238Y-9055654D01*
X191570238Y-9055654D02*
X191665476Y-9103273D01*
X191665476Y-9103273D02*
X191855952Y-9150892D01*
X191855952Y-9150892D02*
X191998809Y-9150892D01*
X191998809Y-9150892D02*
X192189285Y-9103273D01*
X192189285Y-9103273D02*
X192284523Y-9055654D01*
X192284523Y-9055654D02*
X192379761Y-8960416D01*
X192379761Y-8960416D02*
X192427380Y-8817559D01*
X192427380Y-8817559D02*
X192427380Y-8579464D01*
X192427380Y-10103273D02*
X192427380Y-9531845D01*
X192427380Y-9817559D02*
X191427380Y-9817559D01*
X191427380Y-9817559D02*
X191570238Y-9722321D01*
X191570238Y-9722321D02*
X191665476Y-9627083D01*
X191665476Y-9627083D02*
X191713095Y-9531845D01*
X192427380Y-11055654D02*
X192427380Y-10484226D01*
X192427380Y-10769940D02*
X191427380Y-10769940D01*
X191427380Y-10769940D02*
X191570238Y-10674702D01*
X191570238Y-10674702D02*
X191665476Y-10579464D01*
X191665476Y-10579464D02*
X191713095Y-10484226D01*
X211477380Y-8579464D02*
X210477380Y-8579464D01*
X210477380Y-8579464D02*
X210477380Y-8817559D01*
X210477380Y-8817559D02*
X210525000Y-8960416D01*
X210525000Y-8960416D02*
X210620238Y-9055654D01*
X210620238Y-9055654D02*
X210715476Y-9103273D01*
X210715476Y-9103273D02*
X210905952Y-9150892D01*
X210905952Y-9150892D02*
X211048809Y-9150892D01*
X211048809Y-9150892D02*
X211239285Y-9103273D01*
X211239285Y-9103273D02*
X211334523Y-9055654D01*
X211334523Y-9055654D02*
X211429761Y-8960416D01*
X211429761Y-8960416D02*
X211477380Y-8817559D01*
X211477380Y-8817559D02*
X211477380Y-8579464D01*
X211477380Y-10103273D02*
X211477380Y-9531845D01*
X211477380Y-9817559D02*
X210477380Y-9817559D01*
X210477380Y-9817559D02*
X210620238Y-9722321D01*
X210620238Y-9722321D02*
X210715476Y-9627083D01*
X210715476Y-9627083D02*
X210763095Y-9531845D01*
X210572619Y-10484226D02*
X210525000Y-10531845D01*
X210525000Y-10531845D02*
X210477380Y-10627083D01*
X210477380Y-10627083D02*
X210477380Y-10865178D01*
X210477380Y-10865178D02*
X210525000Y-10960416D01*
X210525000Y-10960416D02*
X210572619Y-11008035D01*
X210572619Y-11008035D02*
X210667857Y-11055654D01*
X210667857Y-11055654D02*
X210763095Y-11055654D01*
X210763095Y-11055654D02*
X210905952Y-11008035D01*
X210905952Y-11008035D02*
X211477380Y-10436607D01*
X211477380Y-10436607D02*
X211477380Y-11055654D01*
X249577380Y-8579464D02*
X248577380Y-8579464D01*
X248577380Y-8579464D02*
X248577380Y-8817559D01*
X248577380Y-8817559D02*
X248625000Y-8960416D01*
X248625000Y-8960416D02*
X248720238Y-9055654D01*
X248720238Y-9055654D02*
X248815476Y-9103273D01*
X248815476Y-9103273D02*
X249005952Y-9150892D01*
X249005952Y-9150892D02*
X249148809Y-9150892D01*
X249148809Y-9150892D02*
X249339285Y-9103273D01*
X249339285Y-9103273D02*
X249434523Y-9055654D01*
X249434523Y-9055654D02*
X249529761Y-8960416D01*
X249529761Y-8960416D02*
X249577380Y-8817559D01*
X249577380Y-8817559D02*
X249577380Y-8579464D01*
X249577380Y-10103273D02*
X249577380Y-9531845D01*
X249577380Y-9817559D02*
X248577380Y-9817559D01*
X248577380Y-9817559D02*
X248720238Y-9722321D01*
X248720238Y-9722321D02*
X248815476Y-9627083D01*
X248815476Y-9627083D02*
X248863095Y-9531845D01*
X248910714Y-10960416D02*
X249577380Y-10960416D01*
X248529761Y-10722321D02*
X249244047Y-10484226D01*
X249244047Y-10484226D02*
X249244047Y-11103273D01*
X273724380Y-12247714D02*
X272724380Y-12247714D01*
X272724380Y-12247714D02*
X272724380Y-12485809D01*
X272724380Y-12485809D02*
X272772000Y-12628666D01*
X272772000Y-12628666D02*
X272867238Y-12723904D01*
X272867238Y-12723904D02*
X272962476Y-12771523D01*
X272962476Y-12771523D02*
X273152952Y-12819142D01*
X273152952Y-12819142D02*
X273295809Y-12819142D01*
X273295809Y-12819142D02*
X273486285Y-12771523D01*
X273486285Y-12771523D02*
X273581523Y-12723904D01*
X273581523Y-12723904D02*
X273676761Y-12628666D01*
X273676761Y-12628666D02*
X273724380Y-12485809D01*
X273724380Y-12485809D02*
X273724380Y-12247714D01*
X273724380Y-13771523D02*
X273724380Y-13200095D01*
X273724380Y-13485809D02*
X272724380Y-13485809D01*
X272724380Y-13485809D02*
X272867238Y-13390571D01*
X272867238Y-13390571D02*
X272962476Y-13295333D01*
X272962476Y-13295333D02*
X273010095Y-13200095D01*
X272724380Y-14676285D02*
X272724380Y-14200095D01*
X272724380Y-14200095D02*
X273200571Y-14152476D01*
X273200571Y-14152476D02*
X273152952Y-14200095D01*
X273152952Y-14200095D02*
X273105333Y-14295333D01*
X273105333Y-14295333D02*
X273105333Y-14533428D01*
X273105333Y-14533428D02*
X273152952Y-14628666D01*
X273152952Y-14628666D02*
X273200571Y-14676285D01*
X273200571Y-14676285D02*
X273295809Y-14723904D01*
X273295809Y-14723904D02*
X273533904Y-14723904D01*
X273533904Y-14723904D02*
X273629142Y-14676285D01*
X273629142Y-14676285D02*
X273676761Y-14628666D01*
X273676761Y-14628666D02*
X273724380Y-14533428D01*
X273724380Y-14533428D02*
X273724380Y-14295333D01*
X273724380Y-14295333D02*
X273676761Y-14200095D01*
X273676761Y-14200095D02*
X273629142Y-14152476D01*
X285186285Y-17819380D02*
X285186285Y-16819380D01*
X285186285Y-16819380D02*
X284948190Y-16819380D01*
X284948190Y-16819380D02*
X284805333Y-16867000D01*
X284805333Y-16867000D02*
X284710095Y-16962238D01*
X284710095Y-16962238D02*
X284662476Y-17057476D01*
X284662476Y-17057476D02*
X284614857Y-17247952D01*
X284614857Y-17247952D02*
X284614857Y-17390809D01*
X284614857Y-17390809D02*
X284662476Y-17581285D01*
X284662476Y-17581285D02*
X284710095Y-17676523D01*
X284710095Y-17676523D02*
X284805333Y-17771761D01*
X284805333Y-17771761D02*
X284948190Y-17819380D01*
X284948190Y-17819380D02*
X285186285Y-17819380D01*
X283662476Y-17819380D02*
X284233904Y-17819380D01*
X283948190Y-17819380D02*
X283948190Y-16819380D01*
X283948190Y-16819380D02*
X284043428Y-16962238D01*
X284043428Y-16962238D02*
X284138666Y-17057476D01*
X284138666Y-17057476D02*
X284233904Y-17105095D01*
X282805333Y-16819380D02*
X282995809Y-16819380D01*
X282995809Y-16819380D02*
X283091047Y-16867000D01*
X283091047Y-16867000D02*
X283138666Y-16914619D01*
X283138666Y-16914619D02*
X283233904Y-17057476D01*
X283233904Y-17057476D02*
X283281523Y-17247952D01*
X283281523Y-17247952D02*
X283281523Y-17628904D01*
X283281523Y-17628904D02*
X283233904Y-17724142D01*
X283233904Y-17724142D02*
X283186285Y-17771761D01*
X283186285Y-17771761D02*
X283091047Y-17819380D01*
X283091047Y-17819380D02*
X282900571Y-17819380D01*
X282900571Y-17819380D02*
X282805333Y-17771761D01*
X282805333Y-17771761D02*
X282757714Y-17724142D01*
X282757714Y-17724142D02*
X282710095Y-17628904D01*
X282710095Y-17628904D02*
X282710095Y-17390809D01*
X282710095Y-17390809D02*
X282757714Y-17295571D01*
X282757714Y-17295571D02*
X282805333Y-17247952D01*
X282805333Y-17247952D02*
X282900571Y-17200333D01*
X282900571Y-17200333D02*
X283091047Y-17200333D01*
X283091047Y-17200333D02*
X283186285Y-17247952D01*
X283186285Y-17247952D02*
X283233904Y-17295571D01*
X283233904Y-17295571D02*
X283281523Y-17390809D01*
X8277380Y-28423214D02*
X7277380Y-28423214D01*
X7277380Y-28423214D02*
X7277380Y-28661309D01*
X7277380Y-28661309D02*
X7325000Y-28804166D01*
X7325000Y-28804166D02*
X7420238Y-28899404D01*
X7420238Y-28899404D02*
X7515476Y-28947023D01*
X7515476Y-28947023D02*
X7705952Y-28994642D01*
X7705952Y-28994642D02*
X7848809Y-28994642D01*
X7848809Y-28994642D02*
X8039285Y-28947023D01*
X8039285Y-28947023D02*
X8134523Y-28899404D01*
X8134523Y-28899404D02*
X8229761Y-28804166D01*
X8229761Y-28804166D02*
X8277380Y-28661309D01*
X8277380Y-28661309D02*
X8277380Y-28423214D01*
X8277380Y-29947023D02*
X8277380Y-29375595D01*
X8277380Y-29661309D02*
X7277380Y-29661309D01*
X7277380Y-29661309D02*
X7420238Y-29566071D01*
X7420238Y-29566071D02*
X7515476Y-29470833D01*
X7515476Y-29470833D02*
X7563095Y-29375595D01*
X7277380Y-30280357D02*
X7277380Y-30947023D01*
X7277380Y-30947023D02*
X8277380Y-30518452D01*
X70189880Y-27629464D02*
X69189880Y-27629464D01*
X69189880Y-27629464D02*
X69189880Y-27867559D01*
X69189880Y-27867559D02*
X69237500Y-28010416D01*
X69237500Y-28010416D02*
X69332738Y-28105654D01*
X69332738Y-28105654D02*
X69427976Y-28153273D01*
X69427976Y-28153273D02*
X69618452Y-28200892D01*
X69618452Y-28200892D02*
X69761309Y-28200892D01*
X69761309Y-28200892D02*
X69951785Y-28153273D01*
X69951785Y-28153273D02*
X70047023Y-28105654D01*
X70047023Y-28105654D02*
X70142261Y-28010416D01*
X70142261Y-28010416D02*
X70189880Y-27867559D01*
X70189880Y-27867559D02*
X70189880Y-27629464D01*
X70189880Y-29153273D02*
X70189880Y-28581845D01*
X70189880Y-28867559D02*
X69189880Y-28867559D01*
X69189880Y-28867559D02*
X69332738Y-28772321D01*
X69332738Y-28772321D02*
X69427976Y-28677083D01*
X69427976Y-28677083D02*
X69475595Y-28581845D01*
X69618452Y-29724702D02*
X69570833Y-29629464D01*
X69570833Y-29629464D02*
X69523214Y-29581845D01*
X69523214Y-29581845D02*
X69427976Y-29534226D01*
X69427976Y-29534226D02*
X69380357Y-29534226D01*
X69380357Y-29534226D02*
X69285119Y-29581845D01*
X69285119Y-29581845D02*
X69237500Y-29629464D01*
X69237500Y-29629464D02*
X69189880Y-29724702D01*
X69189880Y-29724702D02*
X69189880Y-29915178D01*
X69189880Y-29915178D02*
X69237500Y-30010416D01*
X69237500Y-30010416D02*
X69285119Y-30058035D01*
X69285119Y-30058035D02*
X69380357Y-30105654D01*
X69380357Y-30105654D02*
X69427976Y-30105654D01*
X69427976Y-30105654D02*
X69523214Y-30058035D01*
X69523214Y-30058035D02*
X69570833Y-30010416D01*
X69570833Y-30010416D02*
X69618452Y-29915178D01*
X69618452Y-29915178D02*
X69618452Y-29724702D01*
X69618452Y-29724702D02*
X69666071Y-29629464D01*
X69666071Y-29629464D02*
X69713690Y-29581845D01*
X69713690Y-29581845D02*
X69808928Y-29534226D01*
X69808928Y-29534226D02*
X69999404Y-29534226D01*
X69999404Y-29534226D02*
X70094642Y-29581845D01*
X70094642Y-29581845D02*
X70142261Y-29629464D01*
X70142261Y-29629464D02*
X70189880Y-29724702D01*
X70189880Y-29724702D02*
X70189880Y-29915178D01*
X70189880Y-29915178D02*
X70142261Y-30010416D01*
X70142261Y-30010416D02*
X70094642Y-30058035D01*
X70094642Y-30058035D02*
X69999404Y-30105654D01*
X69999404Y-30105654D02*
X69808928Y-30105654D01*
X69808928Y-30105654D02*
X69713690Y-30058035D01*
X69713690Y-30058035D02*
X69666071Y-30010416D01*
X69666071Y-30010416D02*
X69618452Y-29915178D01*
X67014880Y-27629464D02*
X66014880Y-27629464D01*
X66014880Y-27629464D02*
X66014880Y-27867559D01*
X66014880Y-27867559D02*
X66062500Y-28010416D01*
X66062500Y-28010416D02*
X66157738Y-28105654D01*
X66157738Y-28105654D02*
X66252976Y-28153273D01*
X66252976Y-28153273D02*
X66443452Y-28200892D01*
X66443452Y-28200892D02*
X66586309Y-28200892D01*
X66586309Y-28200892D02*
X66776785Y-28153273D01*
X66776785Y-28153273D02*
X66872023Y-28105654D01*
X66872023Y-28105654D02*
X66967261Y-28010416D01*
X66967261Y-28010416D02*
X67014880Y-27867559D01*
X67014880Y-27867559D02*
X67014880Y-27629464D01*
X67014880Y-29153273D02*
X67014880Y-28581845D01*
X67014880Y-28867559D02*
X66014880Y-28867559D01*
X66014880Y-28867559D02*
X66157738Y-28772321D01*
X66157738Y-28772321D02*
X66252976Y-28677083D01*
X66252976Y-28677083D02*
X66300595Y-28581845D01*
X67014880Y-29629464D02*
X67014880Y-29819940D01*
X67014880Y-29819940D02*
X66967261Y-29915178D01*
X66967261Y-29915178D02*
X66919642Y-29962797D01*
X66919642Y-29962797D02*
X66776785Y-30058035D01*
X66776785Y-30058035D02*
X66586309Y-30105654D01*
X66586309Y-30105654D02*
X66205357Y-30105654D01*
X66205357Y-30105654D02*
X66110119Y-30058035D01*
X66110119Y-30058035D02*
X66062500Y-30010416D01*
X66062500Y-30010416D02*
X66014880Y-29915178D01*
X66014880Y-29915178D02*
X66014880Y-29724702D01*
X66014880Y-29724702D02*
X66062500Y-29629464D01*
X66062500Y-29629464D02*
X66110119Y-29581845D01*
X66110119Y-29581845D02*
X66205357Y-29534226D01*
X66205357Y-29534226D02*
X66443452Y-29534226D01*
X66443452Y-29534226D02*
X66538690Y-29581845D01*
X66538690Y-29581845D02*
X66586309Y-29629464D01*
X66586309Y-29629464D02*
X66633928Y-29724702D01*
X66633928Y-29724702D02*
X66633928Y-29915178D01*
X66633928Y-29915178D02*
X66586309Y-30010416D01*
X66586309Y-30010416D02*
X66538690Y-30058035D01*
X66538690Y-30058035D02*
X66443452Y-30105654D01*
X86064880Y-27629464D02*
X85064880Y-27629464D01*
X85064880Y-27629464D02*
X85064880Y-27867559D01*
X85064880Y-27867559D02*
X85112500Y-28010416D01*
X85112500Y-28010416D02*
X85207738Y-28105654D01*
X85207738Y-28105654D02*
X85302976Y-28153273D01*
X85302976Y-28153273D02*
X85493452Y-28200892D01*
X85493452Y-28200892D02*
X85636309Y-28200892D01*
X85636309Y-28200892D02*
X85826785Y-28153273D01*
X85826785Y-28153273D02*
X85922023Y-28105654D01*
X85922023Y-28105654D02*
X86017261Y-28010416D01*
X86017261Y-28010416D02*
X86064880Y-27867559D01*
X86064880Y-27867559D02*
X86064880Y-27629464D01*
X85160119Y-28581845D02*
X85112500Y-28629464D01*
X85112500Y-28629464D02*
X85064880Y-28724702D01*
X85064880Y-28724702D02*
X85064880Y-28962797D01*
X85064880Y-28962797D02*
X85112500Y-29058035D01*
X85112500Y-29058035D02*
X85160119Y-29105654D01*
X85160119Y-29105654D02*
X85255357Y-29153273D01*
X85255357Y-29153273D02*
X85350595Y-29153273D01*
X85350595Y-29153273D02*
X85493452Y-29105654D01*
X85493452Y-29105654D02*
X86064880Y-28534226D01*
X86064880Y-28534226D02*
X86064880Y-29153273D01*
X85064880Y-29772321D02*
X85064880Y-29867559D01*
X85064880Y-29867559D02*
X85112500Y-29962797D01*
X85112500Y-29962797D02*
X85160119Y-30010416D01*
X85160119Y-30010416D02*
X85255357Y-30058035D01*
X85255357Y-30058035D02*
X85445833Y-30105654D01*
X85445833Y-30105654D02*
X85683928Y-30105654D01*
X85683928Y-30105654D02*
X85874404Y-30058035D01*
X85874404Y-30058035D02*
X85969642Y-30010416D01*
X85969642Y-30010416D02*
X86017261Y-29962797D01*
X86017261Y-29962797D02*
X86064880Y-29867559D01*
X86064880Y-29867559D02*
X86064880Y-29772321D01*
X86064880Y-29772321D02*
X86017261Y-29677083D01*
X86017261Y-29677083D02*
X85969642Y-29629464D01*
X85969642Y-29629464D02*
X85874404Y-29581845D01*
X85874404Y-29581845D02*
X85683928Y-29534226D01*
X85683928Y-29534226D02*
X85445833Y-29534226D01*
X85445833Y-29534226D02*
X85255357Y-29581845D01*
X85255357Y-29581845D02*
X85160119Y-29629464D01*
X85160119Y-29629464D02*
X85112500Y-29677083D01*
X85112500Y-29677083D02*
X85064880Y-29772321D01*
X89239880Y-27629464D02*
X88239880Y-27629464D01*
X88239880Y-27629464D02*
X88239880Y-27867559D01*
X88239880Y-27867559D02*
X88287500Y-28010416D01*
X88287500Y-28010416D02*
X88382738Y-28105654D01*
X88382738Y-28105654D02*
X88477976Y-28153273D01*
X88477976Y-28153273D02*
X88668452Y-28200892D01*
X88668452Y-28200892D02*
X88811309Y-28200892D01*
X88811309Y-28200892D02*
X89001785Y-28153273D01*
X89001785Y-28153273D02*
X89097023Y-28105654D01*
X89097023Y-28105654D02*
X89192261Y-28010416D01*
X89192261Y-28010416D02*
X89239880Y-27867559D01*
X89239880Y-27867559D02*
X89239880Y-27629464D01*
X88335119Y-28581845D02*
X88287500Y-28629464D01*
X88287500Y-28629464D02*
X88239880Y-28724702D01*
X88239880Y-28724702D02*
X88239880Y-28962797D01*
X88239880Y-28962797D02*
X88287500Y-29058035D01*
X88287500Y-29058035D02*
X88335119Y-29105654D01*
X88335119Y-29105654D02*
X88430357Y-29153273D01*
X88430357Y-29153273D02*
X88525595Y-29153273D01*
X88525595Y-29153273D02*
X88668452Y-29105654D01*
X88668452Y-29105654D02*
X89239880Y-28534226D01*
X89239880Y-28534226D02*
X89239880Y-29153273D01*
X89239880Y-30105654D02*
X89239880Y-29534226D01*
X89239880Y-29819940D02*
X88239880Y-29819940D01*
X88239880Y-29819940D02*
X88382738Y-29724702D01*
X88382738Y-29724702D02*
X88477976Y-29629464D01*
X88477976Y-29629464D02*
X88525595Y-29534226D01*
X106702380Y-27629464D02*
X105702380Y-27629464D01*
X105702380Y-27629464D02*
X105702380Y-27867559D01*
X105702380Y-27867559D02*
X105750000Y-28010416D01*
X105750000Y-28010416D02*
X105845238Y-28105654D01*
X105845238Y-28105654D02*
X105940476Y-28153273D01*
X105940476Y-28153273D02*
X106130952Y-28200892D01*
X106130952Y-28200892D02*
X106273809Y-28200892D01*
X106273809Y-28200892D02*
X106464285Y-28153273D01*
X106464285Y-28153273D02*
X106559523Y-28105654D01*
X106559523Y-28105654D02*
X106654761Y-28010416D01*
X106654761Y-28010416D02*
X106702380Y-27867559D01*
X106702380Y-27867559D02*
X106702380Y-27629464D01*
X105797619Y-28581845D02*
X105750000Y-28629464D01*
X105750000Y-28629464D02*
X105702380Y-28724702D01*
X105702380Y-28724702D02*
X105702380Y-28962797D01*
X105702380Y-28962797D02*
X105750000Y-29058035D01*
X105750000Y-29058035D02*
X105797619Y-29105654D01*
X105797619Y-29105654D02*
X105892857Y-29153273D01*
X105892857Y-29153273D02*
X105988095Y-29153273D01*
X105988095Y-29153273D02*
X106130952Y-29105654D01*
X106130952Y-29105654D02*
X106702380Y-28534226D01*
X106702380Y-28534226D02*
X106702380Y-29153273D01*
X105797619Y-29534226D02*
X105750000Y-29581845D01*
X105750000Y-29581845D02*
X105702380Y-29677083D01*
X105702380Y-29677083D02*
X105702380Y-29915178D01*
X105702380Y-29915178D02*
X105750000Y-30010416D01*
X105750000Y-30010416D02*
X105797619Y-30058035D01*
X105797619Y-30058035D02*
X105892857Y-30105654D01*
X105892857Y-30105654D02*
X105988095Y-30105654D01*
X105988095Y-30105654D02*
X106130952Y-30058035D01*
X106130952Y-30058035D02*
X106702380Y-29486607D01*
X106702380Y-29486607D02*
X106702380Y-30105654D01*
X125752380Y-27629464D02*
X124752380Y-27629464D01*
X124752380Y-27629464D02*
X124752380Y-27867559D01*
X124752380Y-27867559D02*
X124800000Y-28010416D01*
X124800000Y-28010416D02*
X124895238Y-28105654D01*
X124895238Y-28105654D02*
X124990476Y-28153273D01*
X124990476Y-28153273D02*
X125180952Y-28200892D01*
X125180952Y-28200892D02*
X125323809Y-28200892D01*
X125323809Y-28200892D02*
X125514285Y-28153273D01*
X125514285Y-28153273D02*
X125609523Y-28105654D01*
X125609523Y-28105654D02*
X125704761Y-28010416D01*
X125704761Y-28010416D02*
X125752380Y-27867559D01*
X125752380Y-27867559D02*
X125752380Y-27629464D01*
X124847619Y-28581845D02*
X124800000Y-28629464D01*
X124800000Y-28629464D02*
X124752380Y-28724702D01*
X124752380Y-28724702D02*
X124752380Y-28962797D01*
X124752380Y-28962797D02*
X124800000Y-29058035D01*
X124800000Y-29058035D02*
X124847619Y-29105654D01*
X124847619Y-29105654D02*
X124942857Y-29153273D01*
X124942857Y-29153273D02*
X125038095Y-29153273D01*
X125038095Y-29153273D02*
X125180952Y-29105654D01*
X125180952Y-29105654D02*
X125752380Y-28534226D01*
X125752380Y-28534226D02*
X125752380Y-29153273D01*
X124752380Y-29486607D02*
X124752380Y-30105654D01*
X124752380Y-30105654D02*
X125133333Y-29772321D01*
X125133333Y-29772321D02*
X125133333Y-29915178D01*
X125133333Y-29915178D02*
X125180952Y-30010416D01*
X125180952Y-30010416D02*
X125228571Y-30058035D01*
X125228571Y-30058035D02*
X125323809Y-30105654D01*
X125323809Y-30105654D02*
X125561904Y-30105654D01*
X125561904Y-30105654D02*
X125657142Y-30058035D01*
X125657142Y-30058035D02*
X125704761Y-30010416D01*
X125704761Y-30010416D02*
X125752380Y-29915178D01*
X125752380Y-29915178D02*
X125752380Y-29629464D01*
X125752380Y-29629464D02*
X125704761Y-29534226D01*
X125704761Y-29534226D02*
X125657142Y-29486607D01*
X144802380Y-27629464D02*
X143802380Y-27629464D01*
X143802380Y-27629464D02*
X143802380Y-27867559D01*
X143802380Y-27867559D02*
X143850000Y-28010416D01*
X143850000Y-28010416D02*
X143945238Y-28105654D01*
X143945238Y-28105654D02*
X144040476Y-28153273D01*
X144040476Y-28153273D02*
X144230952Y-28200892D01*
X144230952Y-28200892D02*
X144373809Y-28200892D01*
X144373809Y-28200892D02*
X144564285Y-28153273D01*
X144564285Y-28153273D02*
X144659523Y-28105654D01*
X144659523Y-28105654D02*
X144754761Y-28010416D01*
X144754761Y-28010416D02*
X144802380Y-27867559D01*
X144802380Y-27867559D02*
X144802380Y-27629464D01*
X143897619Y-28581845D02*
X143850000Y-28629464D01*
X143850000Y-28629464D02*
X143802380Y-28724702D01*
X143802380Y-28724702D02*
X143802380Y-28962797D01*
X143802380Y-28962797D02*
X143850000Y-29058035D01*
X143850000Y-29058035D02*
X143897619Y-29105654D01*
X143897619Y-29105654D02*
X143992857Y-29153273D01*
X143992857Y-29153273D02*
X144088095Y-29153273D01*
X144088095Y-29153273D02*
X144230952Y-29105654D01*
X144230952Y-29105654D02*
X144802380Y-28534226D01*
X144802380Y-28534226D02*
X144802380Y-29153273D01*
X144135714Y-30010416D02*
X144802380Y-30010416D01*
X143754761Y-29772321D02*
X144469047Y-29534226D01*
X144469047Y-29534226D02*
X144469047Y-30153273D01*
X163852380Y-27629464D02*
X162852380Y-27629464D01*
X162852380Y-27629464D02*
X162852380Y-27867559D01*
X162852380Y-27867559D02*
X162900000Y-28010416D01*
X162900000Y-28010416D02*
X162995238Y-28105654D01*
X162995238Y-28105654D02*
X163090476Y-28153273D01*
X163090476Y-28153273D02*
X163280952Y-28200892D01*
X163280952Y-28200892D02*
X163423809Y-28200892D01*
X163423809Y-28200892D02*
X163614285Y-28153273D01*
X163614285Y-28153273D02*
X163709523Y-28105654D01*
X163709523Y-28105654D02*
X163804761Y-28010416D01*
X163804761Y-28010416D02*
X163852380Y-27867559D01*
X163852380Y-27867559D02*
X163852380Y-27629464D01*
X162947619Y-28581845D02*
X162900000Y-28629464D01*
X162900000Y-28629464D02*
X162852380Y-28724702D01*
X162852380Y-28724702D02*
X162852380Y-28962797D01*
X162852380Y-28962797D02*
X162900000Y-29058035D01*
X162900000Y-29058035D02*
X162947619Y-29105654D01*
X162947619Y-29105654D02*
X163042857Y-29153273D01*
X163042857Y-29153273D02*
X163138095Y-29153273D01*
X163138095Y-29153273D02*
X163280952Y-29105654D01*
X163280952Y-29105654D02*
X163852380Y-28534226D01*
X163852380Y-28534226D02*
X163852380Y-29153273D01*
X162852380Y-30058035D02*
X162852380Y-29581845D01*
X162852380Y-29581845D02*
X163328571Y-29534226D01*
X163328571Y-29534226D02*
X163280952Y-29581845D01*
X163280952Y-29581845D02*
X163233333Y-29677083D01*
X163233333Y-29677083D02*
X163233333Y-29915178D01*
X163233333Y-29915178D02*
X163280952Y-30010416D01*
X163280952Y-30010416D02*
X163328571Y-30058035D01*
X163328571Y-30058035D02*
X163423809Y-30105654D01*
X163423809Y-30105654D02*
X163661904Y-30105654D01*
X163661904Y-30105654D02*
X163757142Y-30058035D01*
X163757142Y-30058035D02*
X163804761Y-30010416D01*
X163804761Y-30010416D02*
X163852380Y-29915178D01*
X163852380Y-29915178D02*
X163852380Y-29677083D01*
X163852380Y-29677083D02*
X163804761Y-29581845D01*
X163804761Y-29581845D02*
X163757142Y-29534226D01*
X182902380Y-27629464D02*
X181902380Y-27629464D01*
X181902380Y-27629464D02*
X181902380Y-27867559D01*
X181902380Y-27867559D02*
X181950000Y-28010416D01*
X181950000Y-28010416D02*
X182045238Y-28105654D01*
X182045238Y-28105654D02*
X182140476Y-28153273D01*
X182140476Y-28153273D02*
X182330952Y-28200892D01*
X182330952Y-28200892D02*
X182473809Y-28200892D01*
X182473809Y-28200892D02*
X182664285Y-28153273D01*
X182664285Y-28153273D02*
X182759523Y-28105654D01*
X182759523Y-28105654D02*
X182854761Y-28010416D01*
X182854761Y-28010416D02*
X182902380Y-27867559D01*
X182902380Y-27867559D02*
X182902380Y-27629464D01*
X181997619Y-28581845D02*
X181950000Y-28629464D01*
X181950000Y-28629464D02*
X181902380Y-28724702D01*
X181902380Y-28724702D02*
X181902380Y-28962797D01*
X181902380Y-28962797D02*
X181950000Y-29058035D01*
X181950000Y-29058035D02*
X181997619Y-29105654D01*
X181997619Y-29105654D02*
X182092857Y-29153273D01*
X182092857Y-29153273D02*
X182188095Y-29153273D01*
X182188095Y-29153273D02*
X182330952Y-29105654D01*
X182330952Y-29105654D02*
X182902380Y-28534226D01*
X182902380Y-28534226D02*
X182902380Y-29153273D01*
X181902380Y-30010416D02*
X181902380Y-29819940D01*
X181902380Y-29819940D02*
X181950000Y-29724702D01*
X181950000Y-29724702D02*
X181997619Y-29677083D01*
X181997619Y-29677083D02*
X182140476Y-29581845D01*
X182140476Y-29581845D02*
X182330952Y-29534226D01*
X182330952Y-29534226D02*
X182711904Y-29534226D01*
X182711904Y-29534226D02*
X182807142Y-29581845D01*
X182807142Y-29581845D02*
X182854761Y-29629464D01*
X182854761Y-29629464D02*
X182902380Y-29724702D01*
X182902380Y-29724702D02*
X182902380Y-29915178D01*
X182902380Y-29915178D02*
X182854761Y-30010416D01*
X182854761Y-30010416D02*
X182807142Y-30058035D01*
X182807142Y-30058035D02*
X182711904Y-30105654D01*
X182711904Y-30105654D02*
X182473809Y-30105654D01*
X182473809Y-30105654D02*
X182378571Y-30058035D01*
X182378571Y-30058035D02*
X182330952Y-30010416D01*
X182330952Y-30010416D02*
X182283333Y-29915178D01*
X182283333Y-29915178D02*
X182283333Y-29724702D01*
X182283333Y-29724702D02*
X182330952Y-29629464D01*
X182330952Y-29629464D02*
X182378571Y-29581845D01*
X182378571Y-29581845D02*
X182473809Y-29534226D01*
X201952380Y-27629464D02*
X200952380Y-27629464D01*
X200952380Y-27629464D02*
X200952380Y-27867559D01*
X200952380Y-27867559D02*
X201000000Y-28010416D01*
X201000000Y-28010416D02*
X201095238Y-28105654D01*
X201095238Y-28105654D02*
X201190476Y-28153273D01*
X201190476Y-28153273D02*
X201380952Y-28200892D01*
X201380952Y-28200892D02*
X201523809Y-28200892D01*
X201523809Y-28200892D02*
X201714285Y-28153273D01*
X201714285Y-28153273D02*
X201809523Y-28105654D01*
X201809523Y-28105654D02*
X201904761Y-28010416D01*
X201904761Y-28010416D02*
X201952380Y-27867559D01*
X201952380Y-27867559D02*
X201952380Y-27629464D01*
X201047619Y-28581845D02*
X201000000Y-28629464D01*
X201000000Y-28629464D02*
X200952380Y-28724702D01*
X200952380Y-28724702D02*
X200952380Y-28962797D01*
X200952380Y-28962797D02*
X201000000Y-29058035D01*
X201000000Y-29058035D02*
X201047619Y-29105654D01*
X201047619Y-29105654D02*
X201142857Y-29153273D01*
X201142857Y-29153273D02*
X201238095Y-29153273D01*
X201238095Y-29153273D02*
X201380952Y-29105654D01*
X201380952Y-29105654D02*
X201952380Y-28534226D01*
X201952380Y-28534226D02*
X201952380Y-29153273D01*
X200952380Y-29486607D02*
X200952380Y-30153273D01*
X200952380Y-30153273D02*
X201952380Y-29724702D01*
X221002380Y-27629464D02*
X220002380Y-27629464D01*
X220002380Y-27629464D02*
X220002380Y-27867559D01*
X220002380Y-27867559D02*
X220050000Y-28010416D01*
X220050000Y-28010416D02*
X220145238Y-28105654D01*
X220145238Y-28105654D02*
X220240476Y-28153273D01*
X220240476Y-28153273D02*
X220430952Y-28200892D01*
X220430952Y-28200892D02*
X220573809Y-28200892D01*
X220573809Y-28200892D02*
X220764285Y-28153273D01*
X220764285Y-28153273D02*
X220859523Y-28105654D01*
X220859523Y-28105654D02*
X220954761Y-28010416D01*
X220954761Y-28010416D02*
X221002380Y-27867559D01*
X221002380Y-27867559D02*
X221002380Y-27629464D01*
X220097619Y-28581845D02*
X220050000Y-28629464D01*
X220050000Y-28629464D02*
X220002380Y-28724702D01*
X220002380Y-28724702D02*
X220002380Y-28962797D01*
X220002380Y-28962797D02*
X220050000Y-29058035D01*
X220050000Y-29058035D02*
X220097619Y-29105654D01*
X220097619Y-29105654D02*
X220192857Y-29153273D01*
X220192857Y-29153273D02*
X220288095Y-29153273D01*
X220288095Y-29153273D02*
X220430952Y-29105654D01*
X220430952Y-29105654D02*
X221002380Y-28534226D01*
X221002380Y-28534226D02*
X221002380Y-29153273D01*
X220430952Y-29724702D02*
X220383333Y-29629464D01*
X220383333Y-29629464D02*
X220335714Y-29581845D01*
X220335714Y-29581845D02*
X220240476Y-29534226D01*
X220240476Y-29534226D02*
X220192857Y-29534226D01*
X220192857Y-29534226D02*
X220097619Y-29581845D01*
X220097619Y-29581845D02*
X220050000Y-29629464D01*
X220050000Y-29629464D02*
X220002380Y-29724702D01*
X220002380Y-29724702D02*
X220002380Y-29915178D01*
X220002380Y-29915178D02*
X220050000Y-30010416D01*
X220050000Y-30010416D02*
X220097619Y-30058035D01*
X220097619Y-30058035D02*
X220192857Y-30105654D01*
X220192857Y-30105654D02*
X220240476Y-30105654D01*
X220240476Y-30105654D02*
X220335714Y-30058035D01*
X220335714Y-30058035D02*
X220383333Y-30010416D01*
X220383333Y-30010416D02*
X220430952Y-29915178D01*
X220430952Y-29915178D02*
X220430952Y-29724702D01*
X220430952Y-29724702D02*
X220478571Y-29629464D01*
X220478571Y-29629464D02*
X220526190Y-29581845D01*
X220526190Y-29581845D02*
X220621428Y-29534226D01*
X220621428Y-29534226D02*
X220811904Y-29534226D01*
X220811904Y-29534226D02*
X220907142Y-29581845D01*
X220907142Y-29581845D02*
X220954761Y-29629464D01*
X220954761Y-29629464D02*
X221002380Y-29724702D01*
X221002380Y-29724702D02*
X221002380Y-29915178D01*
X221002380Y-29915178D02*
X220954761Y-30010416D01*
X220954761Y-30010416D02*
X220907142Y-30058035D01*
X220907142Y-30058035D02*
X220811904Y-30105654D01*
X220811904Y-30105654D02*
X220621428Y-30105654D01*
X220621428Y-30105654D02*
X220526190Y-30058035D01*
X220526190Y-30058035D02*
X220478571Y-30010416D01*
X220478571Y-30010416D02*
X220430952Y-29915178D01*
X240052380Y-27629464D02*
X239052380Y-27629464D01*
X239052380Y-27629464D02*
X239052380Y-27867559D01*
X239052380Y-27867559D02*
X239100000Y-28010416D01*
X239100000Y-28010416D02*
X239195238Y-28105654D01*
X239195238Y-28105654D02*
X239290476Y-28153273D01*
X239290476Y-28153273D02*
X239480952Y-28200892D01*
X239480952Y-28200892D02*
X239623809Y-28200892D01*
X239623809Y-28200892D02*
X239814285Y-28153273D01*
X239814285Y-28153273D02*
X239909523Y-28105654D01*
X239909523Y-28105654D02*
X240004761Y-28010416D01*
X240004761Y-28010416D02*
X240052380Y-27867559D01*
X240052380Y-27867559D02*
X240052380Y-27629464D01*
X239147619Y-28581845D02*
X239100000Y-28629464D01*
X239100000Y-28629464D02*
X239052380Y-28724702D01*
X239052380Y-28724702D02*
X239052380Y-28962797D01*
X239052380Y-28962797D02*
X239100000Y-29058035D01*
X239100000Y-29058035D02*
X239147619Y-29105654D01*
X239147619Y-29105654D02*
X239242857Y-29153273D01*
X239242857Y-29153273D02*
X239338095Y-29153273D01*
X239338095Y-29153273D02*
X239480952Y-29105654D01*
X239480952Y-29105654D02*
X240052380Y-28534226D01*
X240052380Y-28534226D02*
X240052380Y-29153273D01*
X240052380Y-29629464D02*
X240052380Y-29819940D01*
X240052380Y-29819940D02*
X240004761Y-29915178D01*
X240004761Y-29915178D02*
X239957142Y-29962797D01*
X239957142Y-29962797D02*
X239814285Y-30058035D01*
X239814285Y-30058035D02*
X239623809Y-30105654D01*
X239623809Y-30105654D02*
X239242857Y-30105654D01*
X239242857Y-30105654D02*
X239147619Y-30058035D01*
X239147619Y-30058035D02*
X239100000Y-30010416D01*
X239100000Y-30010416D02*
X239052380Y-29915178D01*
X239052380Y-29915178D02*
X239052380Y-29724702D01*
X239052380Y-29724702D02*
X239100000Y-29629464D01*
X239100000Y-29629464D02*
X239147619Y-29581845D01*
X239147619Y-29581845D02*
X239242857Y-29534226D01*
X239242857Y-29534226D02*
X239480952Y-29534226D01*
X239480952Y-29534226D02*
X239576190Y-29581845D01*
X239576190Y-29581845D02*
X239623809Y-29629464D01*
X239623809Y-29629464D02*
X239671428Y-29724702D01*
X239671428Y-29724702D02*
X239671428Y-29915178D01*
X239671428Y-29915178D02*
X239623809Y-30010416D01*
X239623809Y-30010416D02*
X239576190Y-30058035D01*
X239576190Y-30058035D02*
X239480952Y-30105654D01*
X263864880Y-27629464D02*
X262864880Y-27629464D01*
X262864880Y-27629464D02*
X262864880Y-27867559D01*
X262864880Y-27867559D02*
X262912500Y-28010416D01*
X262912500Y-28010416D02*
X263007738Y-28105654D01*
X263007738Y-28105654D02*
X263102976Y-28153273D01*
X263102976Y-28153273D02*
X263293452Y-28200892D01*
X263293452Y-28200892D02*
X263436309Y-28200892D01*
X263436309Y-28200892D02*
X263626785Y-28153273D01*
X263626785Y-28153273D02*
X263722023Y-28105654D01*
X263722023Y-28105654D02*
X263817261Y-28010416D01*
X263817261Y-28010416D02*
X263864880Y-27867559D01*
X263864880Y-27867559D02*
X263864880Y-27629464D01*
X262864880Y-28534226D02*
X262864880Y-29153273D01*
X262864880Y-29153273D02*
X263245833Y-28819940D01*
X263245833Y-28819940D02*
X263245833Y-28962797D01*
X263245833Y-28962797D02*
X263293452Y-29058035D01*
X263293452Y-29058035D02*
X263341071Y-29105654D01*
X263341071Y-29105654D02*
X263436309Y-29153273D01*
X263436309Y-29153273D02*
X263674404Y-29153273D01*
X263674404Y-29153273D02*
X263769642Y-29105654D01*
X263769642Y-29105654D02*
X263817261Y-29058035D01*
X263817261Y-29058035D02*
X263864880Y-28962797D01*
X263864880Y-28962797D02*
X263864880Y-28677083D01*
X263864880Y-28677083D02*
X263817261Y-28581845D01*
X263817261Y-28581845D02*
X263769642Y-28534226D01*
X262864880Y-29772321D02*
X262864880Y-29867559D01*
X262864880Y-29867559D02*
X262912500Y-29962797D01*
X262912500Y-29962797D02*
X262960119Y-30010416D01*
X262960119Y-30010416D02*
X263055357Y-30058035D01*
X263055357Y-30058035D02*
X263245833Y-30105654D01*
X263245833Y-30105654D02*
X263483928Y-30105654D01*
X263483928Y-30105654D02*
X263674404Y-30058035D01*
X263674404Y-30058035D02*
X263769642Y-30010416D01*
X263769642Y-30010416D02*
X263817261Y-29962797D01*
X263817261Y-29962797D02*
X263864880Y-29867559D01*
X263864880Y-29867559D02*
X263864880Y-29772321D01*
X263864880Y-29772321D02*
X263817261Y-29677083D01*
X263817261Y-29677083D02*
X263769642Y-29629464D01*
X263769642Y-29629464D02*
X263674404Y-29581845D01*
X263674404Y-29581845D02*
X263483928Y-29534226D01*
X263483928Y-29534226D02*
X263245833Y-29534226D01*
X263245833Y-29534226D02*
X263055357Y-29581845D01*
X263055357Y-29581845D02*
X262960119Y-29629464D01*
X262960119Y-29629464D02*
X262912500Y-29677083D01*
X262912500Y-29677083D02*
X262864880Y-29772321D01*
X287677380Y-27629464D02*
X286677380Y-27629464D01*
X286677380Y-27629464D02*
X286677380Y-27867559D01*
X286677380Y-27867559D02*
X286725000Y-28010416D01*
X286725000Y-28010416D02*
X286820238Y-28105654D01*
X286820238Y-28105654D02*
X286915476Y-28153273D01*
X286915476Y-28153273D02*
X287105952Y-28200892D01*
X287105952Y-28200892D02*
X287248809Y-28200892D01*
X287248809Y-28200892D02*
X287439285Y-28153273D01*
X287439285Y-28153273D02*
X287534523Y-28105654D01*
X287534523Y-28105654D02*
X287629761Y-28010416D01*
X287629761Y-28010416D02*
X287677380Y-27867559D01*
X287677380Y-27867559D02*
X287677380Y-27629464D01*
X286677380Y-28534226D02*
X286677380Y-29153273D01*
X286677380Y-29153273D02*
X287058333Y-28819940D01*
X287058333Y-28819940D02*
X287058333Y-28962797D01*
X287058333Y-28962797D02*
X287105952Y-29058035D01*
X287105952Y-29058035D02*
X287153571Y-29105654D01*
X287153571Y-29105654D02*
X287248809Y-29153273D01*
X287248809Y-29153273D02*
X287486904Y-29153273D01*
X287486904Y-29153273D02*
X287582142Y-29105654D01*
X287582142Y-29105654D02*
X287629761Y-29058035D01*
X287629761Y-29058035D02*
X287677380Y-28962797D01*
X287677380Y-28962797D02*
X287677380Y-28677083D01*
X287677380Y-28677083D02*
X287629761Y-28581845D01*
X287629761Y-28581845D02*
X287582142Y-28534226D01*
X287677380Y-30105654D02*
X287677380Y-29534226D01*
X287677380Y-29819940D02*
X286677380Y-29819940D01*
X286677380Y-29819940D02*
X286820238Y-29724702D01*
X286820238Y-29724702D02*
X286915476Y-29629464D01*
X286915476Y-29629464D02*
X286963095Y-29534226D01*
X26533630Y-46679464D02*
X25533630Y-46679464D01*
X25533630Y-46679464D02*
X25533630Y-46917559D01*
X25533630Y-46917559D02*
X25581250Y-47060416D01*
X25581250Y-47060416D02*
X25676488Y-47155654D01*
X25676488Y-47155654D02*
X25771726Y-47203273D01*
X25771726Y-47203273D02*
X25962202Y-47250892D01*
X25962202Y-47250892D02*
X26105059Y-47250892D01*
X26105059Y-47250892D02*
X26295535Y-47203273D01*
X26295535Y-47203273D02*
X26390773Y-47155654D01*
X26390773Y-47155654D02*
X26486011Y-47060416D01*
X26486011Y-47060416D02*
X26533630Y-46917559D01*
X26533630Y-46917559D02*
X26533630Y-46679464D01*
X25533630Y-47584226D02*
X25533630Y-48203273D01*
X25533630Y-48203273D02*
X25914583Y-47869940D01*
X25914583Y-47869940D02*
X25914583Y-48012797D01*
X25914583Y-48012797D02*
X25962202Y-48108035D01*
X25962202Y-48108035D02*
X26009821Y-48155654D01*
X26009821Y-48155654D02*
X26105059Y-48203273D01*
X26105059Y-48203273D02*
X26343154Y-48203273D01*
X26343154Y-48203273D02*
X26438392Y-48155654D01*
X26438392Y-48155654D02*
X26486011Y-48108035D01*
X26486011Y-48108035D02*
X26533630Y-48012797D01*
X26533630Y-48012797D02*
X26533630Y-47727083D01*
X26533630Y-47727083D02*
X26486011Y-47631845D01*
X26486011Y-47631845D02*
X26438392Y-47584226D01*
X25628869Y-48584226D02*
X25581250Y-48631845D01*
X25581250Y-48631845D02*
X25533630Y-48727083D01*
X25533630Y-48727083D02*
X25533630Y-48965178D01*
X25533630Y-48965178D02*
X25581250Y-49060416D01*
X25581250Y-49060416D02*
X25628869Y-49108035D01*
X25628869Y-49108035D02*
X25724107Y-49155654D01*
X25724107Y-49155654D02*
X25819345Y-49155654D01*
X25819345Y-49155654D02*
X25962202Y-49108035D01*
X25962202Y-49108035D02*
X26533630Y-48536607D01*
X26533630Y-48536607D02*
X26533630Y-49155654D01*
X52727380Y-46679464D02*
X51727380Y-46679464D01*
X51727380Y-46679464D02*
X51727380Y-46917559D01*
X51727380Y-46917559D02*
X51775000Y-47060416D01*
X51775000Y-47060416D02*
X51870238Y-47155654D01*
X51870238Y-47155654D02*
X51965476Y-47203273D01*
X51965476Y-47203273D02*
X52155952Y-47250892D01*
X52155952Y-47250892D02*
X52298809Y-47250892D01*
X52298809Y-47250892D02*
X52489285Y-47203273D01*
X52489285Y-47203273D02*
X52584523Y-47155654D01*
X52584523Y-47155654D02*
X52679761Y-47060416D01*
X52679761Y-47060416D02*
X52727380Y-46917559D01*
X52727380Y-46917559D02*
X52727380Y-46679464D01*
X51727380Y-47584226D02*
X51727380Y-48203273D01*
X51727380Y-48203273D02*
X52108333Y-47869940D01*
X52108333Y-47869940D02*
X52108333Y-48012797D01*
X52108333Y-48012797D02*
X52155952Y-48108035D01*
X52155952Y-48108035D02*
X52203571Y-48155654D01*
X52203571Y-48155654D02*
X52298809Y-48203273D01*
X52298809Y-48203273D02*
X52536904Y-48203273D01*
X52536904Y-48203273D02*
X52632142Y-48155654D01*
X52632142Y-48155654D02*
X52679761Y-48108035D01*
X52679761Y-48108035D02*
X52727380Y-48012797D01*
X52727380Y-48012797D02*
X52727380Y-47727083D01*
X52727380Y-47727083D02*
X52679761Y-47631845D01*
X52679761Y-47631845D02*
X52632142Y-47584226D01*
X51727380Y-48536607D02*
X51727380Y-49155654D01*
X51727380Y-49155654D02*
X52108333Y-48822321D01*
X52108333Y-48822321D02*
X52108333Y-48965178D01*
X52108333Y-48965178D02*
X52155952Y-49060416D01*
X52155952Y-49060416D02*
X52203571Y-49108035D01*
X52203571Y-49108035D02*
X52298809Y-49155654D01*
X52298809Y-49155654D02*
X52536904Y-49155654D01*
X52536904Y-49155654D02*
X52632142Y-49108035D01*
X52632142Y-49108035D02*
X52679761Y-49060416D01*
X52679761Y-49060416D02*
X52727380Y-48965178D01*
X52727380Y-48965178D02*
X52727380Y-48679464D01*
X52727380Y-48679464D02*
X52679761Y-48584226D01*
X52679761Y-48584226D02*
X52632142Y-48536607D01*
X55902380Y-46679464D02*
X54902380Y-46679464D01*
X54902380Y-46679464D02*
X54902380Y-46917559D01*
X54902380Y-46917559D02*
X54950000Y-47060416D01*
X54950000Y-47060416D02*
X55045238Y-47155654D01*
X55045238Y-47155654D02*
X55140476Y-47203273D01*
X55140476Y-47203273D02*
X55330952Y-47250892D01*
X55330952Y-47250892D02*
X55473809Y-47250892D01*
X55473809Y-47250892D02*
X55664285Y-47203273D01*
X55664285Y-47203273D02*
X55759523Y-47155654D01*
X55759523Y-47155654D02*
X55854761Y-47060416D01*
X55854761Y-47060416D02*
X55902380Y-46917559D01*
X55902380Y-46917559D02*
X55902380Y-46679464D01*
X54902380Y-47584226D02*
X54902380Y-48203273D01*
X54902380Y-48203273D02*
X55283333Y-47869940D01*
X55283333Y-47869940D02*
X55283333Y-48012797D01*
X55283333Y-48012797D02*
X55330952Y-48108035D01*
X55330952Y-48108035D02*
X55378571Y-48155654D01*
X55378571Y-48155654D02*
X55473809Y-48203273D01*
X55473809Y-48203273D02*
X55711904Y-48203273D01*
X55711904Y-48203273D02*
X55807142Y-48155654D01*
X55807142Y-48155654D02*
X55854761Y-48108035D01*
X55854761Y-48108035D02*
X55902380Y-48012797D01*
X55902380Y-48012797D02*
X55902380Y-47727083D01*
X55902380Y-47727083D02*
X55854761Y-47631845D01*
X55854761Y-47631845D02*
X55807142Y-47584226D01*
X55235714Y-49060416D02*
X55902380Y-49060416D01*
X54854761Y-48822321D02*
X55569047Y-48584226D01*
X55569047Y-48584226D02*
X55569047Y-49203273D01*
X73364880Y-46679464D02*
X72364880Y-46679464D01*
X72364880Y-46679464D02*
X72364880Y-46917559D01*
X72364880Y-46917559D02*
X72412500Y-47060416D01*
X72412500Y-47060416D02*
X72507738Y-47155654D01*
X72507738Y-47155654D02*
X72602976Y-47203273D01*
X72602976Y-47203273D02*
X72793452Y-47250892D01*
X72793452Y-47250892D02*
X72936309Y-47250892D01*
X72936309Y-47250892D02*
X73126785Y-47203273D01*
X73126785Y-47203273D02*
X73222023Y-47155654D01*
X73222023Y-47155654D02*
X73317261Y-47060416D01*
X73317261Y-47060416D02*
X73364880Y-46917559D01*
X73364880Y-46917559D02*
X73364880Y-46679464D01*
X72364880Y-47584226D02*
X72364880Y-48203273D01*
X72364880Y-48203273D02*
X72745833Y-47869940D01*
X72745833Y-47869940D02*
X72745833Y-48012797D01*
X72745833Y-48012797D02*
X72793452Y-48108035D01*
X72793452Y-48108035D02*
X72841071Y-48155654D01*
X72841071Y-48155654D02*
X72936309Y-48203273D01*
X72936309Y-48203273D02*
X73174404Y-48203273D01*
X73174404Y-48203273D02*
X73269642Y-48155654D01*
X73269642Y-48155654D02*
X73317261Y-48108035D01*
X73317261Y-48108035D02*
X73364880Y-48012797D01*
X73364880Y-48012797D02*
X73364880Y-47727083D01*
X73364880Y-47727083D02*
X73317261Y-47631845D01*
X73317261Y-47631845D02*
X73269642Y-47584226D01*
X72364880Y-49108035D02*
X72364880Y-48631845D01*
X72364880Y-48631845D02*
X72841071Y-48584226D01*
X72841071Y-48584226D02*
X72793452Y-48631845D01*
X72793452Y-48631845D02*
X72745833Y-48727083D01*
X72745833Y-48727083D02*
X72745833Y-48965178D01*
X72745833Y-48965178D02*
X72793452Y-49060416D01*
X72793452Y-49060416D02*
X72841071Y-49108035D01*
X72841071Y-49108035D02*
X72936309Y-49155654D01*
X72936309Y-49155654D02*
X73174404Y-49155654D01*
X73174404Y-49155654D02*
X73269642Y-49108035D01*
X73269642Y-49108035D02*
X73317261Y-49060416D01*
X73317261Y-49060416D02*
X73364880Y-48965178D01*
X73364880Y-48965178D02*
X73364880Y-48727083D01*
X73364880Y-48727083D02*
X73317261Y-48631845D01*
X73317261Y-48631845D02*
X73269642Y-48584226D01*
X111464880Y-46679464D02*
X110464880Y-46679464D01*
X110464880Y-46679464D02*
X110464880Y-46917559D01*
X110464880Y-46917559D02*
X110512500Y-47060416D01*
X110512500Y-47060416D02*
X110607738Y-47155654D01*
X110607738Y-47155654D02*
X110702976Y-47203273D01*
X110702976Y-47203273D02*
X110893452Y-47250892D01*
X110893452Y-47250892D02*
X111036309Y-47250892D01*
X111036309Y-47250892D02*
X111226785Y-47203273D01*
X111226785Y-47203273D02*
X111322023Y-47155654D01*
X111322023Y-47155654D02*
X111417261Y-47060416D01*
X111417261Y-47060416D02*
X111464880Y-46917559D01*
X111464880Y-46917559D02*
X111464880Y-46679464D01*
X110464880Y-47584226D02*
X110464880Y-48203273D01*
X110464880Y-48203273D02*
X110845833Y-47869940D01*
X110845833Y-47869940D02*
X110845833Y-48012797D01*
X110845833Y-48012797D02*
X110893452Y-48108035D01*
X110893452Y-48108035D02*
X110941071Y-48155654D01*
X110941071Y-48155654D02*
X111036309Y-48203273D01*
X111036309Y-48203273D02*
X111274404Y-48203273D01*
X111274404Y-48203273D02*
X111369642Y-48155654D01*
X111369642Y-48155654D02*
X111417261Y-48108035D01*
X111417261Y-48108035D02*
X111464880Y-48012797D01*
X111464880Y-48012797D02*
X111464880Y-47727083D01*
X111464880Y-47727083D02*
X111417261Y-47631845D01*
X111417261Y-47631845D02*
X111369642Y-47584226D01*
X110464880Y-48536607D02*
X110464880Y-49203273D01*
X110464880Y-49203273D02*
X111464880Y-48774702D01*
X130514880Y-46679464D02*
X129514880Y-46679464D01*
X129514880Y-46679464D02*
X129514880Y-46917559D01*
X129514880Y-46917559D02*
X129562500Y-47060416D01*
X129562500Y-47060416D02*
X129657738Y-47155654D01*
X129657738Y-47155654D02*
X129752976Y-47203273D01*
X129752976Y-47203273D02*
X129943452Y-47250892D01*
X129943452Y-47250892D02*
X130086309Y-47250892D01*
X130086309Y-47250892D02*
X130276785Y-47203273D01*
X130276785Y-47203273D02*
X130372023Y-47155654D01*
X130372023Y-47155654D02*
X130467261Y-47060416D01*
X130467261Y-47060416D02*
X130514880Y-46917559D01*
X130514880Y-46917559D02*
X130514880Y-46679464D01*
X129514880Y-47584226D02*
X129514880Y-48203273D01*
X129514880Y-48203273D02*
X129895833Y-47869940D01*
X129895833Y-47869940D02*
X129895833Y-48012797D01*
X129895833Y-48012797D02*
X129943452Y-48108035D01*
X129943452Y-48108035D02*
X129991071Y-48155654D01*
X129991071Y-48155654D02*
X130086309Y-48203273D01*
X130086309Y-48203273D02*
X130324404Y-48203273D01*
X130324404Y-48203273D02*
X130419642Y-48155654D01*
X130419642Y-48155654D02*
X130467261Y-48108035D01*
X130467261Y-48108035D02*
X130514880Y-48012797D01*
X130514880Y-48012797D02*
X130514880Y-47727083D01*
X130514880Y-47727083D02*
X130467261Y-47631845D01*
X130467261Y-47631845D02*
X130419642Y-47584226D01*
X129943452Y-48774702D02*
X129895833Y-48679464D01*
X129895833Y-48679464D02*
X129848214Y-48631845D01*
X129848214Y-48631845D02*
X129752976Y-48584226D01*
X129752976Y-48584226D02*
X129705357Y-48584226D01*
X129705357Y-48584226D02*
X129610119Y-48631845D01*
X129610119Y-48631845D02*
X129562500Y-48679464D01*
X129562500Y-48679464D02*
X129514880Y-48774702D01*
X129514880Y-48774702D02*
X129514880Y-48965178D01*
X129514880Y-48965178D02*
X129562500Y-49060416D01*
X129562500Y-49060416D02*
X129610119Y-49108035D01*
X129610119Y-49108035D02*
X129705357Y-49155654D01*
X129705357Y-49155654D02*
X129752976Y-49155654D01*
X129752976Y-49155654D02*
X129848214Y-49108035D01*
X129848214Y-49108035D02*
X129895833Y-49060416D01*
X129895833Y-49060416D02*
X129943452Y-48965178D01*
X129943452Y-48965178D02*
X129943452Y-48774702D01*
X129943452Y-48774702D02*
X129991071Y-48679464D01*
X129991071Y-48679464D02*
X130038690Y-48631845D01*
X130038690Y-48631845D02*
X130133928Y-48584226D01*
X130133928Y-48584226D02*
X130324404Y-48584226D01*
X130324404Y-48584226D02*
X130419642Y-48631845D01*
X130419642Y-48631845D02*
X130467261Y-48679464D01*
X130467261Y-48679464D02*
X130514880Y-48774702D01*
X130514880Y-48774702D02*
X130514880Y-48965178D01*
X130514880Y-48965178D02*
X130467261Y-49060416D01*
X130467261Y-49060416D02*
X130419642Y-49108035D01*
X130419642Y-49108035D02*
X130324404Y-49155654D01*
X130324404Y-49155654D02*
X130133928Y-49155654D01*
X130133928Y-49155654D02*
X130038690Y-49108035D01*
X130038690Y-49108035D02*
X129991071Y-49060416D01*
X129991071Y-49060416D02*
X129943452Y-48965178D01*
X149564880Y-46679464D02*
X148564880Y-46679464D01*
X148564880Y-46679464D02*
X148564880Y-46917559D01*
X148564880Y-46917559D02*
X148612500Y-47060416D01*
X148612500Y-47060416D02*
X148707738Y-47155654D01*
X148707738Y-47155654D02*
X148802976Y-47203273D01*
X148802976Y-47203273D02*
X148993452Y-47250892D01*
X148993452Y-47250892D02*
X149136309Y-47250892D01*
X149136309Y-47250892D02*
X149326785Y-47203273D01*
X149326785Y-47203273D02*
X149422023Y-47155654D01*
X149422023Y-47155654D02*
X149517261Y-47060416D01*
X149517261Y-47060416D02*
X149564880Y-46917559D01*
X149564880Y-46917559D02*
X149564880Y-46679464D01*
X148564880Y-47584226D02*
X148564880Y-48203273D01*
X148564880Y-48203273D02*
X148945833Y-47869940D01*
X148945833Y-47869940D02*
X148945833Y-48012797D01*
X148945833Y-48012797D02*
X148993452Y-48108035D01*
X148993452Y-48108035D02*
X149041071Y-48155654D01*
X149041071Y-48155654D02*
X149136309Y-48203273D01*
X149136309Y-48203273D02*
X149374404Y-48203273D01*
X149374404Y-48203273D02*
X149469642Y-48155654D01*
X149469642Y-48155654D02*
X149517261Y-48108035D01*
X149517261Y-48108035D02*
X149564880Y-48012797D01*
X149564880Y-48012797D02*
X149564880Y-47727083D01*
X149564880Y-47727083D02*
X149517261Y-47631845D01*
X149517261Y-47631845D02*
X149469642Y-47584226D01*
X149564880Y-48679464D02*
X149564880Y-48869940D01*
X149564880Y-48869940D02*
X149517261Y-48965178D01*
X149517261Y-48965178D02*
X149469642Y-49012797D01*
X149469642Y-49012797D02*
X149326785Y-49108035D01*
X149326785Y-49108035D02*
X149136309Y-49155654D01*
X149136309Y-49155654D02*
X148755357Y-49155654D01*
X148755357Y-49155654D02*
X148660119Y-49108035D01*
X148660119Y-49108035D02*
X148612500Y-49060416D01*
X148612500Y-49060416D02*
X148564880Y-48965178D01*
X148564880Y-48965178D02*
X148564880Y-48774702D01*
X148564880Y-48774702D02*
X148612500Y-48679464D01*
X148612500Y-48679464D02*
X148660119Y-48631845D01*
X148660119Y-48631845D02*
X148755357Y-48584226D01*
X148755357Y-48584226D02*
X148993452Y-48584226D01*
X148993452Y-48584226D02*
X149088690Y-48631845D01*
X149088690Y-48631845D02*
X149136309Y-48679464D01*
X149136309Y-48679464D02*
X149183928Y-48774702D01*
X149183928Y-48774702D02*
X149183928Y-48965178D01*
X149183928Y-48965178D02*
X149136309Y-49060416D01*
X149136309Y-49060416D02*
X149088690Y-49108035D01*
X149088690Y-49108035D02*
X148993452Y-49155654D01*
X168614880Y-46679464D02*
X167614880Y-46679464D01*
X167614880Y-46679464D02*
X167614880Y-46917559D01*
X167614880Y-46917559D02*
X167662500Y-47060416D01*
X167662500Y-47060416D02*
X167757738Y-47155654D01*
X167757738Y-47155654D02*
X167852976Y-47203273D01*
X167852976Y-47203273D02*
X168043452Y-47250892D01*
X168043452Y-47250892D02*
X168186309Y-47250892D01*
X168186309Y-47250892D02*
X168376785Y-47203273D01*
X168376785Y-47203273D02*
X168472023Y-47155654D01*
X168472023Y-47155654D02*
X168567261Y-47060416D01*
X168567261Y-47060416D02*
X168614880Y-46917559D01*
X168614880Y-46917559D02*
X168614880Y-46679464D01*
X167948214Y-48108035D02*
X168614880Y-48108035D01*
X167567261Y-47869940D02*
X168281547Y-47631845D01*
X168281547Y-47631845D02*
X168281547Y-48250892D01*
X167614880Y-48822321D02*
X167614880Y-48917559D01*
X167614880Y-48917559D02*
X167662500Y-49012797D01*
X167662500Y-49012797D02*
X167710119Y-49060416D01*
X167710119Y-49060416D02*
X167805357Y-49108035D01*
X167805357Y-49108035D02*
X167995833Y-49155654D01*
X167995833Y-49155654D02*
X168233928Y-49155654D01*
X168233928Y-49155654D02*
X168424404Y-49108035D01*
X168424404Y-49108035D02*
X168519642Y-49060416D01*
X168519642Y-49060416D02*
X168567261Y-49012797D01*
X168567261Y-49012797D02*
X168614880Y-48917559D01*
X168614880Y-48917559D02*
X168614880Y-48822321D01*
X168614880Y-48822321D02*
X168567261Y-48727083D01*
X168567261Y-48727083D02*
X168519642Y-48679464D01*
X168519642Y-48679464D02*
X168424404Y-48631845D01*
X168424404Y-48631845D02*
X168233928Y-48584226D01*
X168233928Y-48584226D02*
X167995833Y-48584226D01*
X167995833Y-48584226D02*
X167805357Y-48631845D01*
X167805357Y-48631845D02*
X167710119Y-48679464D01*
X167710119Y-48679464D02*
X167662500Y-48727083D01*
X167662500Y-48727083D02*
X167614880Y-48822321D01*
X187664880Y-46679464D02*
X186664880Y-46679464D01*
X186664880Y-46679464D02*
X186664880Y-46917559D01*
X186664880Y-46917559D02*
X186712500Y-47060416D01*
X186712500Y-47060416D02*
X186807738Y-47155654D01*
X186807738Y-47155654D02*
X186902976Y-47203273D01*
X186902976Y-47203273D02*
X187093452Y-47250892D01*
X187093452Y-47250892D02*
X187236309Y-47250892D01*
X187236309Y-47250892D02*
X187426785Y-47203273D01*
X187426785Y-47203273D02*
X187522023Y-47155654D01*
X187522023Y-47155654D02*
X187617261Y-47060416D01*
X187617261Y-47060416D02*
X187664880Y-46917559D01*
X187664880Y-46917559D02*
X187664880Y-46679464D01*
X186998214Y-48108035D02*
X187664880Y-48108035D01*
X186617261Y-47869940D02*
X187331547Y-47631845D01*
X187331547Y-47631845D02*
X187331547Y-48250892D01*
X187664880Y-49155654D02*
X187664880Y-48584226D01*
X187664880Y-48869940D02*
X186664880Y-48869940D01*
X186664880Y-48869940D02*
X186807738Y-48774702D01*
X186807738Y-48774702D02*
X186902976Y-48679464D01*
X186902976Y-48679464D02*
X186950595Y-48584226D01*
X206714880Y-46679464D02*
X205714880Y-46679464D01*
X205714880Y-46679464D02*
X205714880Y-46917559D01*
X205714880Y-46917559D02*
X205762500Y-47060416D01*
X205762500Y-47060416D02*
X205857738Y-47155654D01*
X205857738Y-47155654D02*
X205952976Y-47203273D01*
X205952976Y-47203273D02*
X206143452Y-47250892D01*
X206143452Y-47250892D02*
X206286309Y-47250892D01*
X206286309Y-47250892D02*
X206476785Y-47203273D01*
X206476785Y-47203273D02*
X206572023Y-47155654D01*
X206572023Y-47155654D02*
X206667261Y-47060416D01*
X206667261Y-47060416D02*
X206714880Y-46917559D01*
X206714880Y-46917559D02*
X206714880Y-46679464D01*
X206048214Y-48108035D02*
X206714880Y-48108035D01*
X205667261Y-47869940D02*
X206381547Y-47631845D01*
X206381547Y-47631845D02*
X206381547Y-48250892D01*
X205810119Y-48584226D02*
X205762500Y-48631845D01*
X205762500Y-48631845D02*
X205714880Y-48727083D01*
X205714880Y-48727083D02*
X205714880Y-48965178D01*
X205714880Y-48965178D02*
X205762500Y-49060416D01*
X205762500Y-49060416D02*
X205810119Y-49108035D01*
X205810119Y-49108035D02*
X205905357Y-49155654D01*
X205905357Y-49155654D02*
X206000595Y-49155654D01*
X206000595Y-49155654D02*
X206143452Y-49108035D01*
X206143452Y-49108035D02*
X206714880Y-48536607D01*
X206714880Y-48536607D02*
X206714880Y-49155654D01*
X225764880Y-46679464D02*
X224764880Y-46679464D01*
X224764880Y-46679464D02*
X224764880Y-46917559D01*
X224764880Y-46917559D02*
X224812500Y-47060416D01*
X224812500Y-47060416D02*
X224907738Y-47155654D01*
X224907738Y-47155654D02*
X225002976Y-47203273D01*
X225002976Y-47203273D02*
X225193452Y-47250892D01*
X225193452Y-47250892D02*
X225336309Y-47250892D01*
X225336309Y-47250892D02*
X225526785Y-47203273D01*
X225526785Y-47203273D02*
X225622023Y-47155654D01*
X225622023Y-47155654D02*
X225717261Y-47060416D01*
X225717261Y-47060416D02*
X225764880Y-46917559D01*
X225764880Y-46917559D02*
X225764880Y-46679464D01*
X225098214Y-48108035D02*
X225764880Y-48108035D01*
X224717261Y-47869940D02*
X225431547Y-47631845D01*
X225431547Y-47631845D02*
X225431547Y-48250892D01*
X224764880Y-48536607D02*
X224764880Y-49155654D01*
X224764880Y-49155654D02*
X225145833Y-48822321D01*
X225145833Y-48822321D02*
X225145833Y-48965178D01*
X225145833Y-48965178D02*
X225193452Y-49060416D01*
X225193452Y-49060416D02*
X225241071Y-49108035D01*
X225241071Y-49108035D02*
X225336309Y-49155654D01*
X225336309Y-49155654D02*
X225574404Y-49155654D01*
X225574404Y-49155654D02*
X225669642Y-49108035D01*
X225669642Y-49108035D02*
X225717261Y-49060416D01*
X225717261Y-49060416D02*
X225764880Y-48965178D01*
X225764880Y-48965178D02*
X225764880Y-48679464D01*
X225764880Y-48679464D02*
X225717261Y-48584226D01*
X225717261Y-48584226D02*
X225669642Y-48536607D01*
X260167285Y-52617380D02*
X260167285Y-51617380D01*
X260167285Y-51617380D02*
X259929190Y-51617380D01*
X259929190Y-51617380D02*
X259786333Y-51665000D01*
X259786333Y-51665000D02*
X259691095Y-51760238D01*
X259691095Y-51760238D02*
X259643476Y-51855476D01*
X259643476Y-51855476D02*
X259595857Y-52045952D01*
X259595857Y-52045952D02*
X259595857Y-52188809D01*
X259595857Y-52188809D02*
X259643476Y-52379285D01*
X259643476Y-52379285D02*
X259691095Y-52474523D01*
X259691095Y-52474523D02*
X259786333Y-52569761D01*
X259786333Y-52569761D02*
X259929190Y-52617380D01*
X259929190Y-52617380D02*
X260167285Y-52617380D01*
X258738714Y-51950714D02*
X258738714Y-52617380D01*
X258976809Y-51569761D02*
X259214904Y-52284047D01*
X259214904Y-52284047D02*
X258595857Y-52284047D01*
X257786333Y-51950714D02*
X257786333Y-52617380D01*
X258024428Y-51569761D02*
X258262523Y-52284047D01*
X258262523Y-52284047D02*
X257643476Y-52284047D01*
X287677380Y-46679464D02*
X286677380Y-46679464D01*
X286677380Y-46679464D02*
X286677380Y-46917559D01*
X286677380Y-46917559D02*
X286725000Y-47060416D01*
X286725000Y-47060416D02*
X286820238Y-47155654D01*
X286820238Y-47155654D02*
X286915476Y-47203273D01*
X286915476Y-47203273D02*
X287105952Y-47250892D01*
X287105952Y-47250892D02*
X287248809Y-47250892D01*
X287248809Y-47250892D02*
X287439285Y-47203273D01*
X287439285Y-47203273D02*
X287534523Y-47155654D01*
X287534523Y-47155654D02*
X287629761Y-47060416D01*
X287629761Y-47060416D02*
X287677380Y-46917559D01*
X287677380Y-46917559D02*
X287677380Y-46679464D01*
X287010714Y-48108035D02*
X287677380Y-48108035D01*
X286629761Y-47869940D02*
X287344047Y-47631845D01*
X287344047Y-47631845D02*
X287344047Y-48250892D01*
X286677380Y-49108035D02*
X286677380Y-48631845D01*
X286677380Y-48631845D02*
X287153571Y-48584226D01*
X287153571Y-48584226D02*
X287105952Y-48631845D01*
X287105952Y-48631845D02*
X287058333Y-48727083D01*
X287058333Y-48727083D02*
X287058333Y-48965178D01*
X287058333Y-48965178D02*
X287105952Y-49060416D01*
X287105952Y-49060416D02*
X287153571Y-49108035D01*
X287153571Y-49108035D02*
X287248809Y-49155654D01*
X287248809Y-49155654D02*
X287486904Y-49155654D01*
X287486904Y-49155654D02*
X287582142Y-49108035D01*
X287582142Y-49108035D02*
X287629761Y-49060416D01*
X287629761Y-49060416D02*
X287677380Y-48965178D01*
X287677380Y-48965178D02*
X287677380Y-48727083D01*
X287677380Y-48727083D02*
X287629761Y-48631845D01*
X287629761Y-48631845D02*
X287582142Y-48584226D01*
X18105285Y-70334380D02*
X18105285Y-69334380D01*
X18105285Y-69334380D02*
X17867190Y-69334380D01*
X17867190Y-69334380D02*
X17724333Y-69382000D01*
X17724333Y-69382000D02*
X17629095Y-69477238D01*
X17629095Y-69477238D02*
X17581476Y-69572476D01*
X17581476Y-69572476D02*
X17533857Y-69762952D01*
X17533857Y-69762952D02*
X17533857Y-69905809D01*
X17533857Y-69905809D02*
X17581476Y-70096285D01*
X17581476Y-70096285D02*
X17629095Y-70191523D01*
X17629095Y-70191523D02*
X17724333Y-70286761D01*
X17724333Y-70286761D02*
X17867190Y-70334380D01*
X17867190Y-70334380D02*
X18105285Y-70334380D01*
X16676714Y-69667714D02*
X16676714Y-70334380D01*
X16914809Y-69286761D02*
X17152904Y-70001047D01*
X17152904Y-70001047D02*
X16533857Y-70001047D01*
X15724333Y-69334380D02*
X15914809Y-69334380D01*
X15914809Y-69334380D02*
X16010047Y-69382000D01*
X16010047Y-69382000D02*
X16057666Y-69429619D01*
X16057666Y-69429619D02*
X16152904Y-69572476D01*
X16152904Y-69572476D02*
X16200523Y-69762952D01*
X16200523Y-69762952D02*
X16200523Y-70143904D01*
X16200523Y-70143904D02*
X16152904Y-70239142D01*
X16152904Y-70239142D02*
X16105285Y-70286761D01*
X16105285Y-70286761D02*
X16010047Y-70334380D01*
X16010047Y-70334380D02*
X15819571Y-70334380D01*
X15819571Y-70334380D02*
X15724333Y-70286761D01*
X15724333Y-70286761D02*
X15676714Y-70239142D01*
X15676714Y-70239142D02*
X15629095Y-70143904D01*
X15629095Y-70143904D02*
X15629095Y-69905809D01*
X15629095Y-69905809D02*
X15676714Y-69810571D01*
X15676714Y-69810571D02*
X15724333Y-69762952D01*
X15724333Y-69762952D02*
X15819571Y-69715333D01*
X15819571Y-69715333D02*
X16010047Y-69715333D01*
X16010047Y-69715333D02*
X16105285Y-69762952D01*
X16105285Y-69762952D02*
X16152904Y-69810571D01*
X16152904Y-69810571D02*
X16200523Y-69905809D01*
X46394380Y-65587714D02*
X45394380Y-65587714D01*
X45394380Y-65587714D02*
X45394380Y-65825809D01*
X45394380Y-65825809D02*
X45442000Y-65968666D01*
X45442000Y-65968666D02*
X45537238Y-66063904D01*
X45537238Y-66063904D02*
X45632476Y-66111523D01*
X45632476Y-66111523D02*
X45822952Y-66159142D01*
X45822952Y-66159142D02*
X45965809Y-66159142D01*
X45965809Y-66159142D02*
X46156285Y-66111523D01*
X46156285Y-66111523D02*
X46251523Y-66063904D01*
X46251523Y-66063904D02*
X46346761Y-65968666D01*
X46346761Y-65968666D02*
X46394380Y-65825809D01*
X46394380Y-65825809D02*
X46394380Y-65587714D01*
X45727714Y-67016285D02*
X46394380Y-67016285D01*
X45346761Y-66778190D02*
X46061047Y-66540095D01*
X46061047Y-66540095D02*
X46061047Y-67159142D01*
X45394380Y-67444857D02*
X45394380Y-68111523D01*
X45394380Y-68111523D02*
X46394380Y-67682952D01*
X63839880Y-65729464D02*
X62839880Y-65729464D01*
X62839880Y-65729464D02*
X62839880Y-65967559D01*
X62839880Y-65967559D02*
X62887500Y-66110416D01*
X62887500Y-66110416D02*
X62982738Y-66205654D01*
X62982738Y-66205654D02*
X63077976Y-66253273D01*
X63077976Y-66253273D02*
X63268452Y-66300892D01*
X63268452Y-66300892D02*
X63411309Y-66300892D01*
X63411309Y-66300892D02*
X63601785Y-66253273D01*
X63601785Y-66253273D02*
X63697023Y-66205654D01*
X63697023Y-66205654D02*
X63792261Y-66110416D01*
X63792261Y-66110416D02*
X63839880Y-65967559D01*
X63839880Y-65967559D02*
X63839880Y-65729464D01*
X63173214Y-67158035D02*
X63839880Y-67158035D01*
X62792261Y-66919940D02*
X63506547Y-66681845D01*
X63506547Y-66681845D02*
X63506547Y-67300892D01*
X63268452Y-67824702D02*
X63220833Y-67729464D01*
X63220833Y-67729464D02*
X63173214Y-67681845D01*
X63173214Y-67681845D02*
X63077976Y-67634226D01*
X63077976Y-67634226D02*
X63030357Y-67634226D01*
X63030357Y-67634226D02*
X62935119Y-67681845D01*
X62935119Y-67681845D02*
X62887500Y-67729464D01*
X62887500Y-67729464D02*
X62839880Y-67824702D01*
X62839880Y-67824702D02*
X62839880Y-68015178D01*
X62839880Y-68015178D02*
X62887500Y-68110416D01*
X62887500Y-68110416D02*
X62935119Y-68158035D01*
X62935119Y-68158035D02*
X63030357Y-68205654D01*
X63030357Y-68205654D02*
X63077976Y-68205654D01*
X63077976Y-68205654D02*
X63173214Y-68158035D01*
X63173214Y-68158035D02*
X63220833Y-68110416D01*
X63220833Y-68110416D02*
X63268452Y-68015178D01*
X63268452Y-68015178D02*
X63268452Y-67824702D01*
X63268452Y-67824702D02*
X63316071Y-67729464D01*
X63316071Y-67729464D02*
X63363690Y-67681845D01*
X63363690Y-67681845D02*
X63458928Y-67634226D01*
X63458928Y-67634226D02*
X63649404Y-67634226D01*
X63649404Y-67634226D02*
X63744642Y-67681845D01*
X63744642Y-67681845D02*
X63792261Y-67729464D01*
X63792261Y-67729464D02*
X63839880Y-67824702D01*
X63839880Y-67824702D02*
X63839880Y-68015178D01*
X63839880Y-68015178D02*
X63792261Y-68110416D01*
X63792261Y-68110416D02*
X63744642Y-68158035D01*
X63744642Y-68158035D02*
X63649404Y-68205654D01*
X63649404Y-68205654D02*
X63458928Y-68205654D01*
X63458928Y-68205654D02*
X63363690Y-68158035D01*
X63363690Y-68158035D02*
X63316071Y-68110416D01*
X63316071Y-68110416D02*
X63268452Y-68015178D01*
X82889880Y-65729464D02*
X81889880Y-65729464D01*
X81889880Y-65729464D02*
X81889880Y-65967559D01*
X81889880Y-65967559D02*
X81937500Y-66110416D01*
X81937500Y-66110416D02*
X82032738Y-66205654D01*
X82032738Y-66205654D02*
X82127976Y-66253273D01*
X82127976Y-66253273D02*
X82318452Y-66300892D01*
X82318452Y-66300892D02*
X82461309Y-66300892D01*
X82461309Y-66300892D02*
X82651785Y-66253273D01*
X82651785Y-66253273D02*
X82747023Y-66205654D01*
X82747023Y-66205654D02*
X82842261Y-66110416D01*
X82842261Y-66110416D02*
X82889880Y-65967559D01*
X82889880Y-65967559D02*
X82889880Y-65729464D01*
X82223214Y-67158035D02*
X82889880Y-67158035D01*
X81842261Y-66919940D02*
X82556547Y-66681845D01*
X82556547Y-66681845D02*
X82556547Y-67300892D01*
X82889880Y-67729464D02*
X82889880Y-67919940D01*
X82889880Y-67919940D02*
X82842261Y-68015178D01*
X82842261Y-68015178D02*
X82794642Y-68062797D01*
X82794642Y-68062797D02*
X82651785Y-68158035D01*
X82651785Y-68158035D02*
X82461309Y-68205654D01*
X82461309Y-68205654D02*
X82080357Y-68205654D01*
X82080357Y-68205654D02*
X81985119Y-68158035D01*
X81985119Y-68158035D02*
X81937500Y-68110416D01*
X81937500Y-68110416D02*
X81889880Y-68015178D01*
X81889880Y-68015178D02*
X81889880Y-67824702D01*
X81889880Y-67824702D02*
X81937500Y-67729464D01*
X81937500Y-67729464D02*
X81985119Y-67681845D01*
X81985119Y-67681845D02*
X82080357Y-67634226D01*
X82080357Y-67634226D02*
X82318452Y-67634226D01*
X82318452Y-67634226D02*
X82413690Y-67681845D01*
X82413690Y-67681845D02*
X82461309Y-67729464D01*
X82461309Y-67729464D02*
X82508928Y-67824702D01*
X82508928Y-67824702D02*
X82508928Y-68015178D01*
X82508928Y-68015178D02*
X82461309Y-68110416D01*
X82461309Y-68110416D02*
X82413690Y-68158035D01*
X82413690Y-68158035D02*
X82318452Y-68205654D01*
X101939880Y-65729464D02*
X100939880Y-65729464D01*
X100939880Y-65729464D02*
X100939880Y-65967559D01*
X100939880Y-65967559D02*
X100987500Y-66110416D01*
X100987500Y-66110416D02*
X101082738Y-66205654D01*
X101082738Y-66205654D02*
X101177976Y-66253273D01*
X101177976Y-66253273D02*
X101368452Y-66300892D01*
X101368452Y-66300892D02*
X101511309Y-66300892D01*
X101511309Y-66300892D02*
X101701785Y-66253273D01*
X101701785Y-66253273D02*
X101797023Y-66205654D01*
X101797023Y-66205654D02*
X101892261Y-66110416D01*
X101892261Y-66110416D02*
X101939880Y-65967559D01*
X101939880Y-65967559D02*
X101939880Y-65729464D01*
X100939880Y-67205654D02*
X100939880Y-66729464D01*
X100939880Y-66729464D02*
X101416071Y-66681845D01*
X101416071Y-66681845D02*
X101368452Y-66729464D01*
X101368452Y-66729464D02*
X101320833Y-66824702D01*
X101320833Y-66824702D02*
X101320833Y-67062797D01*
X101320833Y-67062797D02*
X101368452Y-67158035D01*
X101368452Y-67158035D02*
X101416071Y-67205654D01*
X101416071Y-67205654D02*
X101511309Y-67253273D01*
X101511309Y-67253273D02*
X101749404Y-67253273D01*
X101749404Y-67253273D02*
X101844642Y-67205654D01*
X101844642Y-67205654D02*
X101892261Y-67158035D01*
X101892261Y-67158035D02*
X101939880Y-67062797D01*
X101939880Y-67062797D02*
X101939880Y-66824702D01*
X101939880Y-66824702D02*
X101892261Y-66729464D01*
X101892261Y-66729464D02*
X101844642Y-66681845D01*
X100939880Y-67872321D02*
X100939880Y-67967559D01*
X100939880Y-67967559D02*
X100987500Y-68062797D01*
X100987500Y-68062797D02*
X101035119Y-68110416D01*
X101035119Y-68110416D02*
X101130357Y-68158035D01*
X101130357Y-68158035D02*
X101320833Y-68205654D01*
X101320833Y-68205654D02*
X101558928Y-68205654D01*
X101558928Y-68205654D02*
X101749404Y-68158035D01*
X101749404Y-68158035D02*
X101844642Y-68110416D01*
X101844642Y-68110416D02*
X101892261Y-68062797D01*
X101892261Y-68062797D02*
X101939880Y-67967559D01*
X101939880Y-67967559D02*
X101939880Y-67872321D01*
X101939880Y-67872321D02*
X101892261Y-67777083D01*
X101892261Y-67777083D02*
X101844642Y-67729464D01*
X101844642Y-67729464D02*
X101749404Y-67681845D01*
X101749404Y-67681845D02*
X101558928Y-67634226D01*
X101558928Y-67634226D02*
X101320833Y-67634226D01*
X101320833Y-67634226D02*
X101130357Y-67681845D01*
X101130357Y-67681845D02*
X101035119Y-67729464D01*
X101035119Y-67729464D02*
X100987500Y-67777083D01*
X100987500Y-67777083D02*
X100939880Y-67872321D01*
X120989880Y-65729464D02*
X119989880Y-65729464D01*
X119989880Y-65729464D02*
X119989880Y-65967559D01*
X119989880Y-65967559D02*
X120037500Y-66110416D01*
X120037500Y-66110416D02*
X120132738Y-66205654D01*
X120132738Y-66205654D02*
X120227976Y-66253273D01*
X120227976Y-66253273D02*
X120418452Y-66300892D01*
X120418452Y-66300892D02*
X120561309Y-66300892D01*
X120561309Y-66300892D02*
X120751785Y-66253273D01*
X120751785Y-66253273D02*
X120847023Y-66205654D01*
X120847023Y-66205654D02*
X120942261Y-66110416D01*
X120942261Y-66110416D02*
X120989880Y-65967559D01*
X120989880Y-65967559D02*
X120989880Y-65729464D01*
X119989880Y-67205654D02*
X119989880Y-66729464D01*
X119989880Y-66729464D02*
X120466071Y-66681845D01*
X120466071Y-66681845D02*
X120418452Y-66729464D01*
X120418452Y-66729464D02*
X120370833Y-66824702D01*
X120370833Y-66824702D02*
X120370833Y-67062797D01*
X120370833Y-67062797D02*
X120418452Y-67158035D01*
X120418452Y-67158035D02*
X120466071Y-67205654D01*
X120466071Y-67205654D02*
X120561309Y-67253273D01*
X120561309Y-67253273D02*
X120799404Y-67253273D01*
X120799404Y-67253273D02*
X120894642Y-67205654D01*
X120894642Y-67205654D02*
X120942261Y-67158035D01*
X120942261Y-67158035D02*
X120989880Y-67062797D01*
X120989880Y-67062797D02*
X120989880Y-66824702D01*
X120989880Y-66824702D02*
X120942261Y-66729464D01*
X120942261Y-66729464D02*
X120894642Y-66681845D01*
X120989880Y-68205654D02*
X120989880Y-67634226D01*
X120989880Y-67919940D02*
X119989880Y-67919940D01*
X119989880Y-67919940D02*
X120132738Y-67824702D01*
X120132738Y-67824702D02*
X120227976Y-67729464D01*
X120227976Y-67729464D02*
X120275595Y-67634226D01*
X140039880Y-65729464D02*
X139039880Y-65729464D01*
X139039880Y-65729464D02*
X139039880Y-65967559D01*
X139039880Y-65967559D02*
X139087500Y-66110416D01*
X139087500Y-66110416D02*
X139182738Y-66205654D01*
X139182738Y-66205654D02*
X139277976Y-66253273D01*
X139277976Y-66253273D02*
X139468452Y-66300892D01*
X139468452Y-66300892D02*
X139611309Y-66300892D01*
X139611309Y-66300892D02*
X139801785Y-66253273D01*
X139801785Y-66253273D02*
X139897023Y-66205654D01*
X139897023Y-66205654D02*
X139992261Y-66110416D01*
X139992261Y-66110416D02*
X140039880Y-65967559D01*
X140039880Y-65967559D02*
X140039880Y-65729464D01*
X139039880Y-67205654D02*
X139039880Y-66729464D01*
X139039880Y-66729464D02*
X139516071Y-66681845D01*
X139516071Y-66681845D02*
X139468452Y-66729464D01*
X139468452Y-66729464D02*
X139420833Y-66824702D01*
X139420833Y-66824702D02*
X139420833Y-67062797D01*
X139420833Y-67062797D02*
X139468452Y-67158035D01*
X139468452Y-67158035D02*
X139516071Y-67205654D01*
X139516071Y-67205654D02*
X139611309Y-67253273D01*
X139611309Y-67253273D02*
X139849404Y-67253273D01*
X139849404Y-67253273D02*
X139944642Y-67205654D01*
X139944642Y-67205654D02*
X139992261Y-67158035D01*
X139992261Y-67158035D02*
X140039880Y-67062797D01*
X140039880Y-67062797D02*
X140039880Y-66824702D01*
X140039880Y-66824702D02*
X139992261Y-66729464D01*
X139992261Y-66729464D02*
X139944642Y-66681845D01*
X139135119Y-67634226D02*
X139087500Y-67681845D01*
X139087500Y-67681845D02*
X139039880Y-67777083D01*
X139039880Y-67777083D02*
X139039880Y-68015178D01*
X139039880Y-68015178D02*
X139087500Y-68110416D01*
X139087500Y-68110416D02*
X139135119Y-68158035D01*
X139135119Y-68158035D02*
X139230357Y-68205654D01*
X139230357Y-68205654D02*
X139325595Y-68205654D01*
X139325595Y-68205654D02*
X139468452Y-68158035D01*
X139468452Y-68158035D02*
X140039880Y-67586607D01*
X140039880Y-67586607D02*
X140039880Y-68205654D01*
X159089880Y-65729464D02*
X158089880Y-65729464D01*
X158089880Y-65729464D02*
X158089880Y-65967559D01*
X158089880Y-65967559D02*
X158137500Y-66110416D01*
X158137500Y-66110416D02*
X158232738Y-66205654D01*
X158232738Y-66205654D02*
X158327976Y-66253273D01*
X158327976Y-66253273D02*
X158518452Y-66300892D01*
X158518452Y-66300892D02*
X158661309Y-66300892D01*
X158661309Y-66300892D02*
X158851785Y-66253273D01*
X158851785Y-66253273D02*
X158947023Y-66205654D01*
X158947023Y-66205654D02*
X159042261Y-66110416D01*
X159042261Y-66110416D02*
X159089880Y-65967559D01*
X159089880Y-65967559D02*
X159089880Y-65729464D01*
X158089880Y-67205654D02*
X158089880Y-66729464D01*
X158089880Y-66729464D02*
X158566071Y-66681845D01*
X158566071Y-66681845D02*
X158518452Y-66729464D01*
X158518452Y-66729464D02*
X158470833Y-66824702D01*
X158470833Y-66824702D02*
X158470833Y-67062797D01*
X158470833Y-67062797D02*
X158518452Y-67158035D01*
X158518452Y-67158035D02*
X158566071Y-67205654D01*
X158566071Y-67205654D02*
X158661309Y-67253273D01*
X158661309Y-67253273D02*
X158899404Y-67253273D01*
X158899404Y-67253273D02*
X158994642Y-67205654D01*
X158994642Y-67205654D02*
X159042261Y-67158035D01*
X159042261Y-67158035D02*
X159089880Y-67062797D01*
X159089880Y-67062797D02*
X159089880Y-66824702D01*
X159089880Y-66824702D02*
X159042261Y-66729464D01*
X159042261Y-66729464D02*
X158994642Y-66681845D01*
X158089880Y-67586607D02*
X158089880Y-68205654D01*
X158089880Y-68205654D02*
X158470833Y-67872321D01*
X158470833Y-67872321D02*
X158470833Y-68015178D01*
X158470833Y-68015178D02*
X158518452Y-68110416D01*
X158518452Y-68110416D02*
X158566071Y-68158035D01*
X158566071Y-68158035D02*
X158661309Y-68205654D01*
X158661309Y-68205654D02*
X158899404Y-68205654D01*
X158899404Y-68205654D02*
X158994642Y-68158035D01*
X158994642Y-68158035D02*
X159042261Y-68110416D01*
X159042261Y-68110416D02*
X159089880Y-68015178D01*
X159089880Y-68015178D02*
X159089880Y-67729464D01*
X159089880Y-67729464D02*
X159042261Y-67634226D01*
X159042261Y-67634226D02*
X158994642Y-67586607D01*
X178139880Y-65729464D02*
X177139880Y-65729464D01*
X177139880Y-65729464D02*
X177139880Y-65967559D01*
X177139880Y-65967559D02*
X177187500Y-66110416D01*
X177187500Y-66110416D02*
X177282738Y-66205654D01*
X177282738Y-66205654D02*
X177377976Y-66253273D01*
X177377976Y-66253273D02*
X177568452Y-66300892D01*
X177568452Y-66300892D02*
X177711309Y-66300892D01*
X177711309Y-66300892D02*
X177901785Y-66253273D01*
X177901785Y-66253273D02*
X177997023Y-66205654D01*
X177997023Y-66205654D02*
X178092261Y-66110416D01*
X178092261Y-66110416D02*
X178139880Y-65967559D01*
X178139880Y-65967559D02*
X178139880Y-65729464D01*
X177139880Y-67205654D02*
X177139880Y-66729464D01*
X177139880Y-66729464D02*
X177616071Y-66681845D01*
X177616071Y-66681845D02*
X177568452Y-66729464D01*
X177568452Y-66729464D02*
X177520833Y-66824702D01*
X177520833Y-66824702D02*
X177520833Y-67062797D01*
X177520833Y-67062797D02*
X177568452Y-67158035D01*
X177568452Y-67158035D02*
X177616071Y-67205654D01*
X177616071Y-67205654D02*
X177711309Y-67253273D01*
X177711309Y-67253273D02*
X177949404Y-67253273D01*
X177949404Y-67253273D02*
X178044642Y-67205654D01*
X178044642Y-67205654D02*
X178092261Y-67158035D01*
X178092261Y-67158035D02*
X178139880Y-67062797D01*
X178139880Y-67062797D02*
X178139880Y-66824702D01*
X178139880Y-66824702D02*
X178092261Y-66729464D01*
X178092261Y-66729464D02*
X178044642Y-66681845D01*
X177473214Y-68110416D02*
X178139880Y-68110416D01*
X177092261Y-67872321D02*
X177806547Y-67634226D01*
X177806547Y-67634226D02*
X177806547Y-68253273D01*
X197189880Y-65729464D02*
X196189880Y-65729464D01*
X196189880Y-65729464D02*
X196189880Y-65967559D01*
X196189880Y-65967559D02*
X196237500Y-66110416D01*
X196237500Y-66110416D02*
X196332738Y-66205654D01*
X196332738Y-66205654D02*
X196427976Y-66253273D01*
X196427976Y-66253273D02*
X196618452Y-66300892D01*
X196618452Y-66300892D02*
X196761309Y-66300892D01*
X196761309Y-66300892D02*
X196951785Y-66253273D01*
X196951785Y-66253273D02*
X197047023Y-66205654D01*
X197047023Y-66205654D02*
X197142261Y-66110416D01*
X197142261Y-66110416D02*
X197189880Y-65967559D01*
X197189880Y-65967559D02*
X197189880Y-65729464D01*
X196189880Y-67205654D02*
X196189880Y-66729464D01*
X196189880Y-66729464D02*
X196666071Y-66681845D01*
X196666071Y-66681845D02*
X196618452Y-66729464D01*
X196618452Y-66729464D02*
X196570833Y-66824702D01*
X196570833Y-66824702D02*
X196570833Y-67062797D01*
X196570833Y-67062797D02*
X196618452Y-67158035D01*
X196618452Y-67158035D02*
X196666071Y-67205654D01*
X196666071Y-67205654D02*
X196761309Y-67253273D01*
X196761309Y-67253273D02*
X196999404Y-67253273D01*
X196999404Y-67253273D02*
X197094642Y-67205654D01*
X197094642Y-67205654D02*
X197142261Y-67158035D01*
X197142261Y-67158035D02*
X197189880Y-67062797D01*
X197189880Y-67062797D02*
X197189880Y-66824702D01*
X197189880Y-66824702D02*
X197142261Y-66729464D01*
X197142261Y-66729464D02*
X197094642Y-66681845D01*
X196189880Y-68158035D02*
X196189880Y-67681845D01*
X196189880Y-67681845D02*
X196666071Y-67634226D01*
X196666071Y-67634226D02*
X196618452Y-67681845D01*
X196618452Y-67681845D02*
X196570833Y-67777083D01*
X196570833Y-67777083D02*
X196570833Y-68015178D01*
X196570833Y-68015178D02*
X196618452Y-68110416D01*
X196618452Y-68110416D02*
X196666071Y-68158035D01*
X196666071Y-68158035D02*
X196761309Y-68205654D01*
X196761309Y-68205654D02*
X196999404Y-68205654D01*
X196999404Y-68205654D02*
X197094642Y-68158035D01*
X197094642Y-68158035D02*
X197142261Y-68110416D01*
X197142261Y-68110416D02*
X197189880Y-68015178D01*
X197189880Y-68015178D02*
X197189880Y-67777083D01*
X197189880Y-67777083D02*
X197142261Y-67681845D01*
X197142261Y-67681845D02*
X197094642Y-67634226D01*
X216239880Y-65729464D02*
X215239880Y-65729464D01*
X215239880Y-65729464D02*
X215239880Y-65967559D01*
X215239880Y-65967559D02*
X215287500Y-66110416D01*
X215287500Y-66110416D02*
X215382738Y-66205654D01*
X215382738Y-66205654D02*
X215477976Y-66253273D01*
X215477976Y-66253273D02*
X215668452Y-66300892D01*
X215668452Y-66300892D02*
X215811309Y-66300892D01*
X215811309Y-66300892D02*
X216001785Y-66253273D01*
X216001785Y-66253273D02*
X216097023Y-66205654D01*
X216097023Y-66205654D02*
X216192261Y-66110416D01*
X216192261Y-66110416D02*
X216239880Y-65967559D01*
X216239880Y-65967559D02*
X216239880Y-65729464D01*
X215239880Y-67205654D02*
X215239880Y-66729464D01*
X215239880Y-66729464D02*
X215716071Y-66681845D01*
X215716071Y-66681845D02*
X215668452Y-66729464D01*
X215668452Y-66729464D02*
X215620833Y-66824702D01*
X215620833Y-66824702D02*
X215620833Y-67062797D01*
X215620833Y-67062797D02*
X215668452Y-67158035D01*
X215668452Y-67158035D02*
X215716071Y-67205654D01*
X215716071Y-67205654D02*
X215811309Y-67253273D01*
X215811309Y-67253273D02*
X216049404Y-67253273D01*
X216049404Y-67253273D02*
X216144642Y-67205654D01*
X216144642Y-67205654D02*
X216192261Y-67158035D01*
X216192261Y-67158035D02*
X216239880Y-67062797D01*
X216239880Y-67062797D02*
X216239880Y-66824702D01*
X216239880Y-66824702D02*
X216192261Y-66729464D01*
X216192261Y-66729464D02*
X216144642Y-66681845D01*
X215239880Y-68110416D02*
X215239880Y-67919940D01*
X215239880Y-67919940D02*
X215287500Y-67824702D01*
X215287500Y-67824702D02*
X215335119Y-67777083D01*
X215335119Y-67777083D02*
X215477976Y-67681845D01*
X215477976Y-67681845D02*
X215668452Y-67634226D01*
X215668452Y-67634226D02*
X216049404Y-67634226D01*
X216049404Y-67634226D02*
X216144642Y-67681845D01*
X216144642Y-67681845D02*
X216192261Y-67729464D01*
X216192261Y-67729464D02*
X216239880Y-67824702D01*
X216239880Y-67824702D02*
X216239880Y-68015178D01*
X216239880Y-68015178D02*
X216192261Y-68110416D01*
X216192261Y-68110416D02*
X216144642Y-68158035D01*
X216144642Y-68158035D02*
X216049404Y-68205654D01*
X216049404Y-68205654D02*
X215811309Y-68205654D01*
X215811309Y-68205654D02*
X215716071Y-68158035D01*
X215716071Y-68158035D02*
X215668452Y-68110416D01*
X215668452Y-68110416D02*
X215620833Y-68015178D01*
X215620833Y-68015178D02*
X215620833Y-67824702D01*
X215620833Y-67824702D02*
X215668452Y-67729464D01*
X215668452Y-67729464D02*
X215716071Y-67681845D01*
X215716071Y-67681845D02*
X215811309Y-67634226D01*
X242433630Y-65729464D02*
X241433630Y-65729464D01*
X241433630Y-65729464D02*
X241433630Y-65967559D01*
X241433630Y-65967559D02*
X241481250Y-66110416D01*
X241481250Y-66110416D02*
X241576488Y-66205654D01*
X241576488Y-66205654D02*
X241671726Y-66253273D01*
X241671726Y-66253273D02*
X241862202Y-66300892D01*
X241862202Y-66300892D02*
X242005059Y-66300892D01*
X242005059Y-66300892D02*
X242195535Y-66253273D01*
X242195535Y-66253273D02*
X242290773Y-66205654D01*
X242290773Y-66205654D02*
X242386011Y-66110416D01*
X242386011Y-66110416D02*
X242433630Y-65967559D01*
X242433630Y-65967559D02*
X242433630Y-65729464D01*
X241433630Y-67205654D02*
X241433630Y-66729464D01*
X241433630Y-66729464D02*
X241909821Y-66681845D01*
X241909821Y-66681845D02*
X241862202Y-66729464D01*
X241862202Y-66729464D02*
X241814583Y-66824702D01*
X241814583Y-66824702D02*
X241814583Y-67062797D01*
X241814583Y-67062797D02*
X241862202Y-67158035D01*
X241862202Y-67158035D02*
X241909821Y-67205654D01*
X241909821Y-67205654D02*
X242005059Y-67253273D01*
X242005059Y-67253273D02*
X242243154Y-67253273D01*
X242243154Y-67253273D02*
X242338392Y-67205654D01*
X242338392Y-67205654D02*
X242386011Y-67158035D01*
X242386011Y-67158035D02*
X242433630Y-67062797D01*
X242433630Y-67062797D02*
X242433630Y-66824702D01*
X242433630Y-66824702D02*
X242386011Y-66729464D01*
X242386011Y-66729464D02*
X242338392Y-66681845D01*
X241433630Y-67586607D02*
X241433630Y-68253273D01*
X241433630Y-68253273D02*
X242433630Y-67824702D01*
X268627380Y-65729464D02*
X267627380Y-65729464D01*
X267627380Y-65729464D02*
X267627380Y-65967559D01*
X267627380Y-65967559D02*
X267675000Y-66110416D01*
X267675000Y-66110416D02*
X267770238Y-66205654D01*
X267770238Y-66205654D02*
X267865476Y-66253273D01*
X267865476Y-66253273D02*
X268055952Y-66300892D01*
X268055952Y-66300892D02*
X268198809Y-66300892D01*
X268198809Y-66300892D02*
X268389285Y-66253273D01*
X268389285Y-66253273D02*
X268484523Y-66205654D01*
X268484523Y-66205654D02*
X268579761Y-66110416D01*
X268579761Y-66110416D02*
X268627380Y-65967559D01*
X268627380Y-65967559D02*
X268627380Y-65729464D01*
X267627380Y-67205654D02*
X267627380Y-66729464D01*
X267627380Y-66729464D02*
X268103571Y-66681845D01*
X268103571Y-66681845D02*
X268055952Y-66729464D01*
X268055952Y-66729464D02*
X268008333Y-66824702D01*
X268008333Y-66824702D02*
X268008333Y-67062797D01*
X268008333Y-67062797D02*
X268055952Y-67158035D01*
X268055952Y-67158035D02*
X268103571Y-67205654D01*
X268103571Y-67205654D02*
X268198809Y-67253273D01*
X268198809Y-67253273D02*
X268436904Y-67253273D01*
X268436904Y-67253273D02*
X268532142Y-67205654D01*
X268532142Y-67205654D02*
X268579761Y-67158035D01*
X268579761Y-67158035D02*
X268627380Y-67062797D01*
X268627380Y-67062797D02*
X268627380Y-66824702D01*
X268627380Y-66824702D02*
X268579761Y-66729464D01*
X268579761Y-66729464D02*
X268532142Y-66681845D01*
X268055952Y-67824702D02*
X268008333Y-67729464D01*
X268008333Y-67729464D02*
X267960714Y-67681845D01*
X267960714Y-67681845D02*
X267865476Y-67634226D01*
X267865476Y-67634226D02*
X267817857Y-67634226D01*
X267817857Y-67634226D02*
X267722619Y-67681845D01*
X267722619Y-67681845D02*
X267675000Y-67729464D01*
X267675000Y-67729464D02*
X267627380Y-67824702D01*
X267627380Y-67824702D02*
X267627380Y-68015178D01*
X267627380Y-68015178D02*
X267675000Y-68110416D01*
X267675000Y-68110416D02*
X267722619Y-68158035D01*
X267722619Y-68158035D02*
X267817857Y-68205654D01*
X267817857Y-68205654D02*
X267865476Y-68205654D01*
X267865476Y-68205654D02*
X267960714Y-68158035D01*
X267960714Y-68158035D02*
X268008333Y-68110416D01*
X268008333Y-68110416D02*
X268055952Y-68015178D01*
X268055952Y-68015178D02*
X268055952Y-67824702D01*
X268055952Y-67824702D02*
X268103571Y-67729464D01*
X268103571Y-67729464D02*
X268151190Y-67681845D01*
X268151190Y-67681845D02*
X268246428Y-67634226D01*
X268246428Y-67634226D02*
X268436904Y-67634226D01*
X268436904Y-67634226D02*
X268532142Y-67681845D01*
X268532142Y-67681845D02*
X268579761Y-67729464D01*
X268579761Y-67729464D02*
X268627380Y-67824702D01*
X268627380Y-67824702D02*
X268627380Y-68015178D01*
X268627380Y-68015178D02*
X268579761Y-68110416D01*
X268579761Y-68110416D02*
X268532142Y-68158035D01*
X268532142Y-68158035D02*
X268436904Y-68205654D01*
X268436904Y-68205654D02*
X268246428Y-68205654D01*
X268246428Y-68205654D02*
X268151190Y-68158035D01*
X268151190Y-68158035D02*
X268103571Y-68110416D01*
X268103571Y-68110416D02*
X268055952Y-68015178D01*
X287677380Y-65729464D02*
X286677380Y-65729464D01*
X286677380Y-65729464D02*
X286677380Y-65967559D01*
X286677380Y-65967559D02*
X286725000Y-66110416D01*
X286725000Y-66110416D02*
X286820238Y-66205654D01*
X286820238Y-66205654D02*
X286915476Y-66253273D01*
X286915476Y-66253273D02*
X287105952Y-66300892D01*
X287105952Y-66300892D02*
X287248809Y-66300892D01*
X287248809Y-66300892D02*
X287439285Y-66253273D01*
X287439285Y-66253273D02*
X287534523Y-66205654D01*
X287534523Y-66205654D02*
X287629761Y-66110416D01*
X287629761Y-66110416D02*
X287677380Y-65967559D01*
X287677380Y-65967559D02*
X287677380Y-65729464D01*
X286677380Y-67205654D02*
X286677380Y-66729464D01*
X286677380Y-66729464D02*
X287153571Y-66681845D01*
X287153571Y-66681845D02*
X287105952Y-66729464D01*
X287105952Y-66729464D02*
X287058333Y-66824702D01*
X287058333Y-66824702D02*
X287058333Y-67062797D01*
X287058333Y-67062797D02*
X287105952Y-67158035D01*
X287105952Y-67158035D02*
X287153571Y-67205654D01*
X287153571Y-67205654D02*
X287248809Y-67253273D01*
X287248809Y-67253273D02*
X287486904Y-67253273D01*
X287486904Y-67253273D02*
X287582142Y-67205654D01*
X287582142Y-67205654D02*
X287629761Y-67158035D01*
X287629761Y-67158035D02*
X287677380Y-67062797D01*
X287677380Y-67062797D02*
X287677380Y-66824702D01*
X287677380Y-66824702D02*
X287629761Y-66729464D01*
X287629761Y-66729464D02*
X287582142Y-66681845D01*
X287677380Y-67729464D02*
X287677380Y-67919940D01*
X287677380Y-67919940D02*
X287629761Y-68015178D01*
X287629761Y-68015178D02*
X287582142Y-68062797D01*
X287582142Y-68062797D02*
X287439285Y-68158035D01*
X287439285Y-68158035D02*
X287248809Y-68205654D01*
X287248809Y-68205654D02*
X286867857Y-68205654D01*
X286867857Y-68205654D02*
X286772619Y-68158035D01*
X286772619Y-68158035D02*
X286725000Y-68110416D01*
X286725000Y-68110416D02*
X286677380Y-68015178D01*
X286677380Y-68015178D02*
X286677380Y-67824702D01*
X286677380Y-67824702D02*
X286725000Y-67729464D01*
X286725000Y-67729464D02*
X286772619Y-67681845D01*
X286772619Y-67681845D02*
X286867857Y-67634226D01*
X286867857Y-67634226D02*
X287105952Y-67634226D01*
X287105952Y-67634226D02*
X287201190Y-67681845D01*
X287201190Y-67681845D02*
X287248809Y-67729464D01*
X287248809Y-67729464D02*
X287296428Y-67824702D01*
X287296428Y-67824702D02*
X287296428Y-68015178D01*
X287296428Y-68015178D02*
X287248809Y-68110416D01*
X287248809Y-68110416D02*
X287201190Y-68158035D01*
X287201190Y-68158035D02*
X287105952Y-68205654D01*
X24152380Y-84779464D02*
X23152380Y-84779464D01*
X23152380Y-84779464D02*
X23152380Y-85017559D01*
X23152380Y-85017559D02*
X23200000Y-85160416D01*
X23200000Y-85160416D02*
X23295238Y-85255654D01*
X23295238Y-85255654D02*
X23390476Y-85303273D01*
X23390476Y-85303273D02*
X23580952Y-85350892D01*
X23580952Y-85350892D02*
X23723809Y-85350892D01*
X23723809Y-85350892D02*
X23914285Y-85303273D01*
X23914285Y-85303273D02*
X24009523Y-85255654D01*
X24009523Y-85255654D02*
X24104761Y-85160416D01*
X24104761Y-85160416D02*
X24152380Y-85017559D01*
X24152380Y-85017559D02*
X24152380Y-84779464D01*
X23152380Y-86208035D02*
X23152380Y-86017559D01*
X23152380Y-86017559D02*
X23200000Y-85922321D01*
X23200000Y-85922321D02*
X23247619Y-85874702D01*
X23247619Y-85874702D02*
X23390476Y-85779464D01*
X23390476Y-85779464D02*
X23580952Y-85731845D01*
X23580952Y-85731845D02*
X23961904Y-85731845D01*
X23961904Y-85731845D02*
X24057142Y-85779464D01*
X24057142Y-85779464D02*
X24104761Y-85827083D01*
X24104761Y-85827083D02*
X24152380Y-85922321D01*
X24152380Y-85922321D02*
X24152380Y-86112797D01*
X24152380Y-86112797D02*
X24104761Y-86208035D01*
X24104761Y-86208035D02*
X24057142Y-86255654D01*
X24057142Y-86255654D02*
X23961904Y-86303273D01*
X23961904Y-86303273D02*
X23723809Y-86303273D01*
X23723809Y-86303273D02*
X23628571Y-86255654D01*
X23628571Y-86255654D02*
X23580952Y-86208035D01*
X23580952Y-86208035D02*
X23533333Y-86112797D01*
X23533333Y-86112797D02*
X23533333Y-85922321D01*
X23533333Y-85922321D02*
X23580952Y-85827083D01*
X23580952Y-85827083D02*
X23628571Y-85779464D01*
X23628571Y-85779464D02*
X23723809Y-85731845D01*
X23152380Y-86922321D02*
X23152380Y-87017559D01*
X23152380Y-87017559D02*
X23200000Y-87112797D01*
X23200000Y-87112797D02*
X23247619Y-87160416D01*
X23247619Y-87160416D02*
X23342857Y-87208035D01*
X23342857Y-87208035D02*
X23533333Y-87255654D01*
X23533333Y-87255654D02*
X23771428Y-87255654D01*
X23771428Y-87255654D02*
X23961904Y-87208035D01*
X23961904Y-87208035D02*
X24057142Y-87160416D01*
X24057142Y-87160416D02*
X24104761Y-87112797D01*
X24104761Y-87112797D02*
X24152380Y-87017559D01*
X24152380Y-87017559D02*
X24152380Y-86922321D01*
X24152380Y-86922321D02*
X24104761Y-86827083D01*
X24104761Y-86827083D02*
X24057142Y-86779464D01*
X24057142Y-86779464D02*
X23961904Y-86731845D01*
X23961904Y-86731845D02*
X23771428Y-86684226D01*
X23771428Y-86684226D02*
X23533333Y-86684226D01*
X23533333Y-86684226D02*
X23342857Y-86731845D01*
X23342857Y-86731845D02*
X23247619Y-86779464D01*
X23247619Y-86779464D02*
X23200000Y-86827083D01*
X23200000Y-86827083D02*
X23152380Y-86922321D01*
X28121130Y-84779464D02*
X27121130Y-84779464D01*
X27121130Y-84779464D02*
X27121130Y-85017559D01*
X27121130Y-85017559D02*
X27168750Y-85160416D01*
X27168750Y-85160416D02*
X27263988Y-85255654D01*
X27263988Y-85255654D02*
X27359226Y-85303273D01*
X27359226Y-85303273D02*
X27549702Y-85350892D01*
X27549702Y-85350892D02*
X27692559Y-85350892D01*
X27692559Y-85350892D02*
X27883035Y-85303273D01*
X27883035Y-85303273D02*
X27978273Y-85255654D01*
X27978273Y-85255654D02*
X28073511Y-85160416D01*
X28073511Y-85160416D02*
X28121130Y-85017559D01*
X28121130Y-85017559D02*
X28121130Y-84779464D01*
X27121130Y-86208035D02*
X27121130Y-86017559D01*
X27121130Y-86017559D02*
X27168750Y-85922321D01*
X27168750Y-85922321D02*
X27216369Y-85874702D01*
X27216369Y-85874702D02*
X27359226Y-85779464D01*
X27359226Y-85779464D02*
X27549702Y-85731845D01*
X27549702Y-85731845D02*
X27930654Y-85731845D01*
X27930654Y-85731845D02*
X28025892Y-85779464D01*
X28025892Y-85779464D02*
X28073511Y-85827083D01*
X28073511Y-85827083D02*
X28121130Y-85922321D01*
X28121130Y-85922321D02*
X28121130Y-86112797D01*
X28121130Y-86112797D02*
X28073511Y-86208035D01*
X28073511Y-86208035D02*
X28025892Y-86255654D01*
X28025892Y-86255654D02*
X27930654Y-86303273D01*
X27930654Y-86303273D02*
X27692559Y-86303273D01*
X27692559Y-86303273D02*
X27597321Y-86255654D01*
X27597321Y-86255654D02*
X27549702Y-86208035D01*
X27549702Y-86208035D02*
X27502083Y-86112797D01*
X27502083Y-86112797D02*
X27502083Y-85922321D01*
X27502083Y-85922321D02*
X27549702Y-85827083D01*
X27549702Y-85827083D02*
X27597321Y-85779464D01*
X27597321Y-85779464D02*
X27692559Y-85731845D01*
X28121130Y-87255654D02*
X28121130Y-86684226D01*
X28121130Y-86969940D02*
X27121130Y-86969940D01*
X27121130Y-86969940D02*
X27263988Y-86874702D01*
X27263988Y-86874702D02*
X27359226Y-86779464D01*
X27359226Y-86779464D02*
X27406845Y-86684226D01*
X81446380Y-83494714D02*
X80446380Y-83494714D01*
X80446380Y-83494714D02*
X80446380Y-83732809D01*
X80446380Y-83732809D02*
X80494000Y-83875666D01*
X80494000Y-83875666D02*
X80589238Y-83970904D01*
X80589238Y-83970904D02*
X80684476Y-84018523D01*
X80684476Y-84018523D02*
X80874952Y-84066142D01*
X80874952Y-84066142D02*
X81017809Y-84066142D01*
X81017809Y-84066142D02*
X81208285Y-84018523D01*
X81208285Y-84018523D02*
X81303523Y-83970904D01*
X81303523Y-83970904D02*
X81398761Y-83875666D01*
X81398761Y-83875666D02*
X81446380Y-83732809D01*
X81446380Y-83732809D02*
X81446380Y-83494714D01*
X80446380Y-84923285D02*
X80446380Y-84732809D01*
X80446380Y-84732809D02*
X80494000Y-84637571D01*
X80494000Y-84637571D02*
X80541619Y-84589952D01*
X80541619Y-84589952D02*
X80684476Y-84494714D01*
X80684476Y-84494714D02*
X80874952Y-84447095D01*
X80874952Y-84447095D02*
X81255904Y-84447095D01*
X81255904Y-84447095D02*
X81351142Y-84494714D01*
X81351142Y-84494714D02*
X81398761Y-84542333D01*
X81398761Y-84542333D02*
X81446380Y-84637571D01*
X81446380Y-84637571D02*
X81446380Y-84828047D01*
X81446380Y-84828047D02*
X81398761Y-84923285D01*
X81398761Y-84923285D02*
X81351142Y-84970904D01*
X81351142Y-84970904D02*
X81255904Y-85018523D01*
X81255904Y-85018523D02*
X81017809Y-85018523D01*
X81017809Y-85018523D02*
X80922571Y-84970904D01*
X80922571Y-84970904D02*
X80874952Y-84923285D01*
X80874952Y-84923285D02*
X80827333Y-84828047D01*
X80827333Y-84828047D02*
X80827333Y-84637571D01*
X80827333Y-84637571D02*
X80874952Y-84542333D01*
X80874952Y-84542333D02*
X80922571Y-84494714D01*
X80922571Y-84494714D02*
X81017809Y-84447095D01*
X80541619Y-85399476D02*
X80494000Y-85447095D01*
X80494000Y-85447095D02*
X80446380Y-85542333D01*
X80446380Y-85542333D02*
X80446380Y-85780428D01*
X80446380Y-85780428D02*
X80494000Y-85875666D01*
X80494000Y-85875666D02*
X80541619Y-85923285D01*
X80541619Y-85923285D02*
X80636857Y-85970904D01*
X80636857Y-85970904D02*
X80732095Y-85970904D01*
X80732095Y-85970904D02*
X80874952Y-85923285D01*
X80874952Y-85923285D02*
X81446380Y-85351857D01*
X81446380Y-85351857D02*
X81446380Y-85970904D01*
X119546380Y-83748714D02*
X118546380Y-83748714D01*
X118546380Y-83748714D02*
X118546380Y-83986809D01*
X118546380Y-83986809D02*
X118594000Y-84129666D01*
X118594000Y-84129666D02*
X118689238Y-84224904D01*
X118689238Y-84224904D02*
X118784476Y-84272523D01*
X118784476Y-84272523D02*
X118974952Y-84320142D01*
X118974952Y-84320142D02*
X119117809Y-84320142D01*
X119117809Y-84320142D02*
X119308285Y-84272523D01*
X119308285Y-84272523D02*
X119403523Y-84224904D01*
X119403523Y-84224904D02*
X119498761Y-84129666D01*
X119498761Y-84129666D02*
X119546380Y-83986809D01*
X119546380Y-83986809D02*
X119546380Y-83748714D01*
X118546380Y-85177285D02*
X118546380Y-84986809D01*
X118546380Y-84986809D02*
X118594000Y-84891571D01*
X118594000Y-84891571D02*
X118641619Y-84843952D01*
X118641619Y-84843952D02*
X118784476Y-84748714D01*
X118784476Y-84748714D02*
X118974952Y-84701095D01*
X118974952Y-84701095D02*
X119355904Y-84701095D01*
X119355904Y-84701095D02*
X119451142Y-84748714D01*
X119451142Y-84748714D02*
X119498761Y-84796333D01*
X119498761Y-84796333D02*
X119546380Y-84891571D01*
X119546380Y-84891571D02*
X119546380Y-85082047D01*
X119546380Y-85082047D02*
X119498761Y-85177285D01*
X119498761Y-85177285D02*
X119451142Y-85224904D01*
X119451142Y-85224904D02*
X119355904Y-85272523D01*
X119355904Y-85272523D02*
X119117809Y-85272523D01*
X119117809Y-85272523D02*
X119022571Y-85224904D01*
X119022571Y-85224904D02*
X118974952Y-85177285D01*
X118974952Y-85177285D02*
X118927333Y-85082047D01*
X118927333Y-85082047D02*
X118927333Y-84891571D01*
X118927333Y-84891571D02*
X118974952Y-84796333D01*
X118974952Y-84796333D02*
X119022571Y-84748714D01*
X119022571Y-84748714D02*
X119117809Y-84701095D01*
X118546380Y-85605857D02*
X118546380Y-86224904D01*
X118546380Y-86224904D02*
X118927333Y-85891571D01*
X118927333Y-85891571D02*
X118927333Y-86034428D01*
X118927333Y-86034428D02*
X118974952Y-86129666D01*
X118974952Y-86129666D02*
X119022571Y-86177285D01*
X119022571Y-86177285D02*
X119117809Y-86224904D01*
X119117809Y-86224904D02*
X119355904Y-86224904D01*
X119355904Y-86224904D02*
X119451142Y-86177285D01*
X119451142Y-86177285D02*
X119498761Y-86129666D01*
X119498761Y-86129666D02*
X119546380Y-86034428D01*
X119546380Y-86034428D02*
X119546380Y-85748714D01*
X119546380Y-85748714D02*
X119498761Y-85653476D01*
X119498761Y-85653476D02*
X119451142Y-85605857D01*
X216239880Y-84779464D02*
X215239880Y-84779464D01*
X215239880Y-84779464D02*
X215239880Y-85017559D01*
X215239880Y-85017559D02*
X215287500Y-85160416D01*
X215287500Y-85160416D02*
X215382738Y-85255654D01*
X215382738Y-85255654D02*
X215477976Y-85303273D01*
X215477976Y-85303273D02*
X215668452Y-85350892D01*
X215668452Y-85350892D02*
X215811309Y-85350892D01*
X215811309Y-85350892D02*
X216001785Y-85303273D01*
X216001785Y-85303273D02*
X216097023Y-85255654D01*
X216097023Y-85255654D02*
X216192261Y-85160416D01*
X216192261Y-85160416D02*
X216239880Y-85017559D01*
X216239880Y-85017559D02*
X216239880Y-84779464D01*
X215239880Y-86208035D02*
X215239880Y-86017559D01*
X215239880Y-86017559D02*
X215287500Y-85922321D01*
X215287500Y-85922321D02*
X215335119Y-85874702D01*
X215335119Y-85874702D02*
X215477976Y-85779464D01*
X215477976Y-85779464D02*
X215668452Y-85731845D01*
X215668452Y-85731845D02*
X216049404Y-85731845D01*
X216049404Y-85731845D02*
X216144642Y-85779464D01*
X216144642Y-85779464D02*
X216192261Y-85827083D01*
X216192261Y-85827083D02*
X216239880Y-85922321D01*
X216239880Y-85922321D02*
X216239880Y-86112797D01*
X216239880Y-86112797D02*
X216192261Y-86208035D01*
X216192261Y-86208035D02*
X216144642Y-86255654D01*
X216144642Y-86255654D02*
X216049404Y-86303273D01*
X216049404Y-86303273D02*
X215811309Y-86303273D01*
X215811309Y-86303273D02*
X215716071Y-86255654D01*
X215716071Y-86255654D02*
X215668452Y-86208035D01*
X215668452Y-86208035D02*
X215620833Y-86112797D01*
X215620833Y-86112797D02*
X215620833Y-85922321D01*
X215620833Y-85922321D02*
X215668452Y-85827083D01*
X215668452Y-85827083D02*
X215716071Y-85779464D01*
X215716071Y-85779464D02*
X215811309Y-85731845D01*
X215239880Y-87208035D02*
X215239880Y-86731845D01*
X215239880Y-86731845D02*
X215716071Y-86684226D01*
X215716071Y-86684226D02*
X215668452Y-86731845D01*
X215668452Y-86731845D02*
X215620833Y-86827083D01*
X215620833Y-86827083D02*
X215620833Y-87065178D01*
X215620833Y-87065178D02*
X215668452Y-87160416D01*
X215668452Y-87160416D02*
X215716071Y-87208035D01*
X215716071Y-87208035D02*
X215811309Y-87255654D01*
X215811309Y-87255654D02*
X216049404Y-87255654D01*
X216049404Y-87255654D02*
X216144642Y-87208035D01*
X216144642Y-87208035D02*
X216192261Y-87160416D01*
X216192261Y-87160416D02*
X216239880Y-87065178D01*
X216239880Y-87065178D02*
X216239880Y-86827083D01*
X216239880Y-86827083D02*
X216192261Y-86731845D01*
X216192261Y-86731845D02*
X216144642Y-86684226D01*
X267039880Y-84779464D02*
X266039880Y-84779464D01*
X266039880Y-84779464D02*
X266039880Y-85017559D01*
X266039880Y-85017559D02*
X266087500Y-85160416D01*
X266087500Y-85160416D02*
X266182738Y-85255654D01*
X266182738Y-85255654D02*
X266277976Y-85303273D01*
X266277976Y-85303273D02*
X266468452Y-85350892D01*
X266468452Y-85350892D02*
X266611309Y-85350892D01*
X266611309Y-85350892D02*
X266801785Y-85303273D01*
X266801785Y-85303273D02*
X266897023Y-85255654D01*
X266897023Y-85255654D02*
X266992261Y-85160416D01*
X266992261Y-85160416D02*
X267039880Y-85017559D01*
X267039880Y-85017559D02*
X267039880Y-84779464D01*
X266039880Y-86208035D02*
X266039880Y-86017559D01*
X266039880Y-86017559D02*
X266087500Y-85922321D01*
X266087500Y-85922321D02*
X266135119Y-85874702D01*
X266135119Y-85874702D02*
X266277976Y-85779464D01*
X266277976Y-85779464D02*
X266468452Y-85731845D01*
X266468452Y-85731845D02*
X266849404Y-85731845D01*
X266849404Y-85731845D02*
X266944642Y-85779464D01*
X266944642Y-85779464D02*
X266992261Y-85827083D01*
X266992261Y-85827083D02*
X267039880Y-85922321D01*
X267039880Y-85922321D02*
X267039880Y-86112797D01*
X267039880Y-86112797D02*
X266992261Y-86208035D01*
X266992261Y-86208035D02*
X266944642Y-86255654D01*
X266944642Y-86255654D02*
X266849404Y-86303273D01*
X266849404Y-86303273D02*
X266611309Y-86303273D01*
X266611309Y-86303273D02*
X266516071Y-86255654D01*
X266516071Y-86255654D02*
X266468452Y-86208035D01*
X266468452Y-86208035D02*
X266420833Y-86112797D01*
X266420833Y-86112797D02*
X266420833Y-85922321D01*
X266420833Y-85922321D02*
X266468452Y-85827083D01*
X266468452Y-85827083D02*
X266516071Y-85779464D01*
X266516071Y-85779464D02*
X266611309Y-85731845D01*
X266039880Y-87160416D02*
X266039880Y-86969940D01*
X266039880Y-86969940D02*
X266087500Y-86874702D01*
X266087500Y-86874702D02*
X266135119Y-86827083D01*
X266135119Y-86827083D02*
X266277976Y-86731845D01*
X266277976Y-86731845D02*
X266468452Y-86684226D01*
X266468452Y-86684226D02*
X266849404Y-86684226D01*
X266849404Y-86684226D02*
X266944642Y-86731845D01*
X266944642Y-86731845D02*
X266992261Y-86779464D01*
X266992261Y-86779464D02*
X267039880Y-86874702D01*
X267039880Y-86874702D02*
X267039880Y-87065178D01*
X267039880Y-87065178D02*
X266992261Y-87160416D01*
X266992261Y-87160416D02*
X266944642Y-87208035D01*
X266944642Y-87208035D02*
X266849404Y-87255654D01*
X266849404Y-87255654D02*
X266611309Y-87255654D01*
X266611309Y-87255654D02*
X266516071Y-87208035D01*
X266516071Y-87208035D02*
X266468452Y-87160416D01*
X266468452Y-87160416D02*
X266420833Y-87065178D01*
X266420833Y-87065178D02*
X266420833Y-86874702D01*
X266420833Y-86874702D02*
X266468452Y-86779464D01*
X266468452Y-86779464D02*
X266516071Y-86731845D01*
X266516071Y-86731845D02*
X266611309Y-86684226D01*
X270214880Y-84779464D02*
X269214880Y-84779464D01*
X269214880Y-84779464D02*
X269214880Y-85017559D01*
X269214880Y-85017559D02*
X269262500Y-85160416D01*
X269262500Y-85160416D02*
X269357738Y-85255654D01*
X269357738Y-85255654D02*
X269452976Y-85303273D01*
X269452976Y-85303273D02*
X269643452Y-85350892D01*
X269643452Y-85350892D02*
X269786309Y-85350892D01*
X269786309Y-85350892D02*
X269976785Y-85303273D01*
X269976785Y-85303273D02*
X270072023Y-85255654D01*
X270072023Y-85255654D02*
X270167261Y-85160416D01*
X270167261Y-85160416D02*
X270214880Y-85017559D01*
X270214880Y-85017559D02*
X270214880Y-84779464D01*
X269214880Y-86208035D02*
X269214880Y-86017559D01*
X269214880Y-86017559D02*
X269262500Y-85922321D01*
X269262500Y-85922321D02*
X269310119Y-85874702D01*
X269310119Y-85874702D02*
X269452976Y-85779464D01*
X269452976Y-85779464D02*
X269643452Y-85731845D01*
X269643452Y-85731845D02*
X270024404Y-85731845D01*
X270024404Y-85731845D02*
X270119642Y-85779464D01*
X270119642Y-85779464D02*
X270167261Y-85827083D01*
X270167261Y-85827083D02*
X270214880Y-85922321D01*
X270214880Y-85922321D02*
X270214880Y-86112797D01*
X270214880Y-86112797D02*
X270167261Y-86208035D01*
X270167261Y-86208035D02*
X270119642Y-86255654D01*
X270119642Y-86255654D02*
X270024404Y-86303273D01*
X270024404Y-86303273D02*
X269786309Y-86303273D01*
X269786309Y-86303273D02*
X269691071Y-86255654D01*
X269691071Y-86255654D02*
X269643452Y-86208035D01*
X269643452Y-86208035D02*
X269595833Y-86112797D01*
X269595833Y-86112797D02*
X269595833Y-85922321D01*
X269595833Y-85922321D02*
X269643452Y-85827083D01*
X269643452Y-85827083D02*
X269691071Y-85779464D01*
X269691071Y-85779464D02*
X269786309Y-85731845D01*
X269214880Y-86636607D02*
X269214880Y-87303273D01*
X269214880Y-87303273D02*
X270214880Y-86874702D01*
X287677380Y-84779464D02*
X286677380Y-84779464D01*
X286677380Y-84779464D02*
X286677380Y-85017559D01*
X286677380Y-85017559D02*
X286725000Y-85160416D01*
X286725000Y-85160416D02*
X286820238Y-85255654D01*
X286820238Y-85255654D02*
X286915476Y-85303273D01*
X286915476Y-85303273D02*
X287105952Y-85350892D01*
X287105952Y-85350892D02*
X287248809Y-85350892D01*
X287248809Y-85350892D02*
X287439285Y-85303273D01*
X287439285Y-85303273D02*
X287534523Y-85255654D01*
X287534523Y-85255654D02*
X287629761Y-85160416D01*
X287629761Y-85160416D02*
X287677380Y-85017559D01*
X287677380Y-85017559D02*
X287677380Y-84779464D01*
X286677380Y-86208035D02*
X286677380Y-86017559D01*
X286677380Y-86017559D02*
X286725000Y-85922321D01*
X286725000Y-85922321D02*
X286772619Y-85874702D01*
X286772619Y-85874702D02*
X286915476Y-85779464D01*
X286915476Y-85779464D02*
X287105952Y-85731845D01*
X287105952Y-85731845D02*
X287486904Y-85731845D01*
X287486904Y-85731845D02*
X287582142Y-85779464D01*
X287582142Y-85779464D02*
X287629761Y-85827083D01*
X287629761Y-85827083D02*
X287677380Y-85922321D01*
X287677380Y-85922321D02*
X287677380Y-86112797D01*
X287677380Y-86112797D02*
X287629761Y-86208035D01*
X287629761Y-86208035D02*
X287582142Y-86255654D01*
X287582142Y-86255654D02*
X287486904Y-86303273D01*
X287486904Y-86303273D02*
X287248809Y-86303273D01*
X287248809Y-86303273D02*
X287153571Y-86255654D01*
X287153571Y-86255654D02*
X287105952Y-86208035D01*
X287105952Y-86208035D02*
X287058333Y-86112797D01*
X287058333Y-86112797D02*
X287058333Y-85922321D01*
X287058333Y-85922321D02*
X287105952Y-85827083D01*
X287105952Y-85827083D02*
X287153571Y-85779464D01*
X287153571Y-85779464D02*
X287248809Y-85731845D01*
X287105952Y-86874702D02*
X287058333Y-86779464D01*
X287058333Y-86779464D02*
X287010714Y-86731845D01*
X287010714Y-86731845D02*
X286915476Y-86684226D01*
X286915476Y-86684226D02*
X286867857Y-86684226D01*
X286867857Y-86684226D02*
X286772619Y-86731845D01*
X286772619Y-86731845D02*
X286725000Y-86779464D01*
X286725000Y-86779464D02*
X286677380Y-86874702D01*
X286677380Y-86874702D02*
X286677380Y-87065178D01*
X286677380Y-87065178D02*
X286725000Y-87160416D01*
X286725000Y-87160416D02*
X286772619Y-87208035D01*
X286772619Y-87208035D02*
X286867857Y-87255654D01*
X286867857Y-87255654D02*
X286915476Y-87255654D01*
X286915476Y-87255654D02*
X287010714Y-87208035D01*
X287010714Y-87208035D02*
X287058333Y-87160416D01*
X287058333Y-87160416D02*
X287105952Y-87065178D01*
X287105952Y-87065178D02*
X287105952Y-86874702D01*
X287105952Y-86874702D02*
X287153571Y-86779464D01*
X287153571Y-86779464D02*
X287201190Y-86731845D01*
X287201190Y-86731845D02*
X287296428Y-86684226D01*
X287296428Y-86684226D02*
X287486904Y-86684226D01*
X287486904Y-86684226D02*
X287582142Y-86731845D01*
X287582142Y-86731845D02*
X287629761Y-86779464D01*
X287629761Y-86779464D02*
X287677380Y-86874702D01*
X287677380Y-86874702D02*
X287677380Y-87065178D01*
X287677380Y-87065178D02*
X287629761Y-87160416D01*
X287629761Y-87160416D02*
X287582142Y-87208035D01*
X287582142Y-87208035D02*
X287486904Y-87255654D01*
X287486904Y-87255654D02*
X287296428Y-87255654D01*
X287296428Y-87255654D02*
X287201190Y-87208035D01*
X287201190Y-87208035D02*
X287153571Y-87160416D01*
X287153571Y-87160416D02*
X287105952Y-87065178D01*
X230527380Y-8579464D02*
X229527380Y-8579464D01*
X229527380Y-8579464D02*
X229527380Y-8817559D01*
X229527380Y-8817559D02*
X229575000Y-8960416D01*
X229575000Y-8960416D02*
X229670238Y-9055654D01*
X229670238Y-9055654D02*
X229765476Y-9103273D01*
X229765476Y-9103273D02*
X229955952Y-9150892D01*
X229955952Y-9150892D02*
X230098809Y-9150892D01*
X230098809Y-9150892D02*
X230289285Y-9103273D01*
X230289285Y-9103273D02*
X230384523Y-9055654D01*
X230384523Y-9055654D02*
X230479761Y-8960416D01*
X230479761Y-8960416D02*
X230527380Y-8817559D01*
X230527380Y-8817559D02*
X230527380Y-8579464D01*
X230527380Y-10103273D02*
X230527380Y-9531845D01*
X230527380Y-9817559D02*
X229527380Y-9817559D01*
X229527380Y-9817559D02*
X229670238Y-9722321D01*
X229670238Y-9722321D02*
X229765476Y-9627083D01*
X229765476Y-9627083D02*
X229813095Y-9531845D01*
X229527380Y-10436607D02*
X229527380Y-11055654D01*
X229527380Y-11055654D02*
X229908333Y-10722321D01*
X229908333Y-10722321D02*
X229908333Y-10865178D01*
X229908333Y-10865178D02*
X229955952Y-10960416D01*
X229955952Y-10960416D02*
X230003571Y-11008035D01*
X230003571Y-11008035D02*
X230098809Y-11055654D01*
X230098809Y-11055654D02*
X230336904Y-11055654D01*
X230336904Y-11055654D02*
X230432142Y-11008035D01*
X230432142Y-11008035D02*
X230479761Y-10960416D01*
X230479761Y-10960416D02*
X230527380Y-10865178D01*
X230527380Y-10865178D02*
X230527380Y-10579464D01*
X230527380Y-10579464D02*
X230479761Y-10484226D01*
X230479761Y-10484226D02*
X230432142Y-10436607D01*
X26827142Y-27303333D02*
X26874761Y-27255714D01*
X26874761Y-27255714D02*
X26922380Y-27112857D01*
X26922380Y-27112857D02*
X26922380Y-27017619D01*
X26922380Y-27017619D02*
X26874761Y-26874762D01*
X26874761Y-26874762D02*
X26779523Y-26779524D01*
X26779523Y-26779524D02*
X26684285Y-26731905D01*
X26684285Y-26731905D02*
X26493809Y-26684286D01*
X26493809Y-26684286D02*
X26350952Y-26684286D01*
X26350952Y-26684286D02*
X26160476Y-26731905D01*
X26160476Y-26731905D02*
X26065238Y-26779524D01*
X26065238Y-26779524D02*
X25970000Y-26874762D01*
X25970000Y-26874762D02*
X25922380Y-27017619D01*
X25922380Y-27017619D02*
X25922380Y-27112857D01*
X25922380Y-27112857D02*
X25970000Y-27255714D01*
X25970000Y-27255714D02*
X26017619Y-27303333D01*
X25922380Y-27636667D02*
X25922380Y-28303333D01*
X25922380Y-28303333D02*
X26922380Y-27874762D01*
X43902916Y-40788392D02*
X43950535Y-40836011D01*
X43950535Y-40836011D02*
X44093392Y-40883630D01*
X44093392Y-40883630D02*
X44188630Y-40883630D01*
X44188630Y-40883630D02*
X44331487Y-40836011D01*
X44331487Y-40836011D02*
X44426725Y-40740773D01*
X44426725Y-40740773D02*
X44474344Y-40645535D01*
X44474344Y-40645535D02*
X44521963Y-40455059D01*
X44521963Y-40455059D02*
X44521963Y-40312202D01*
X44521963Y-40312202D02*
X44474344Y-40121726D01*
X44474344Y-40121726D02*
X44426725Y-40026488D01*
X44426725Y-40026488D02*
X44331487Y-39931250D01*
X44331487Y-39931250D02*
X44188630Y-39883630D01*
X44188630Y-39883630D02*
X44093392Y-39883630D01*
X44093392Y-39883630D02*
X43950535Y-39931250D01*
X43950535Y-39931250D02*
X43902916Y-39978869D01*
X43045773Y-39883630D02*
X43236249Y-39883630D01*
X43236249Y-39883630D02*
X43331487Y-39931250D01*
X43331487Y-39931250D02*
X43379106Y-39978869D01*
X43379106Y-39978869D02*
X43474344Y-40121726D01*
X43474344Y-40121726D02*
X43521963Y-40312202D01*
X43521963Y-40312202D02*
X43521963Y-40693154D01*
X43521963Y-40693154D02*
X43474344Y-40788392D01*
X43474344Y-40788392D02*
X43426725Y-40836011D01*
X43426725Y-40836011D02*
X43331487Y-40883630D01*
X43331487Y-40883630D02*
X43141011Y-40883630D01*
X43141011Y-40883630D02*
X43045773Y-40836011D01*
X43045773Y-40836011D02*
X42998154Y-40788392D01*
X42998154Y-40788392D02*
X42950535Y-40693154D01*
X42950535Y-40693154D02*
X42950535Y-40455059D01*
X42950535Y-40455059D02*
X42998154Y-40359821D01*
X42998154Y-40359821D02*
X43045773Y-40312202D01*
X43045773Y-40312202D02*
X43141011Y-40264583D01*
X43141011Y-40264583D02*
X43331487Y-40264583D01*
X43331487Y-40264583D02*
X43426725Y-40312202D01*
X43426725Y-40312202D02*
X43474344Y-40359821D01*
X43474344Y-40359821D02*
X43521963Y-40455059D01*
X31926130Y-55783333D02*
X31449940Y-55450000D01*
X31926130Y-55211905D02*
X30926130Y-55211905D01*
X30926130Y-55211905D02*
X30926130Y-55592857D01*
X30926130Y-55592857D02*
X30973750Y-55688095D01*
X30973750Y-55688095D02*
X31021369Y-55735714D01*
X31021369Y-55735714D02*
X31116607Y-55783333D01*
X31116607Y-55783333D02*
X31259464Y-55783333D01*
X31259464Y-55783333D02*
X31354702Y-55735714D01*
X31354702Y-55735714D02*
X31402321Y-55688095D01*
X31402321Y-55688095D02*
X31449940Y-55592857D01*
X31449940Y-55592857D02*
X31449940Y-55211905D01*
X31259464Y-56640476D02*
X31926130Y-56640476D01*
X30878511Y-56402381D02*
X31592797Y-56164286D01*
X31592797Y-56164286D02*
X31592797Y-56783333D01*
X92414880Y-46679464D02*
X91414880Y-46679464D01*
X91414880Y-46679464D02*
X91414880Y-46917559D01*
X91414880Y-46917559D02*
X91462500Y-47060416D01*
X91462500Y-47060416D02*
X91557738Y-47155654D01*
X91557738Y-47155654D02*
X91652976Y-47203273D01*
X91652976Y-47203273D02*
X91843452Y-47250892D01*
X91843452Y-47250892D02*
X91986309Y-47250892D01*
X91986309Y-47250892D02*
X92176785Y-47203273D01*
X92176785Y-47203273D02*
X92272023Y-47155654D01*
X92272023Y-47155654D02*
X92367261Y-47060416D01*
X92367261Y-47060416D02*
X92414880Y-46917559D01*
X92414880Y-46917559D02*
X92414880Y-46679464D01*
X91414880Y-47584226D02*
X91414880Y-48203273D01*
X91414880Y-48203273D02*
X91795833Y-47869940D01*
X91795833Y-47869940D02*
X91795833Y-48012797D01*
X91795833Y-48012797D02*
X91843452Y-48108035D01*
X91843452Y-48108035D02*
X91891071Y-48155654D01*
X91891071Y-48155654D02*
X91986309Y-48203273D01*
X91986309Y-48203273D02*
X92224404Y-48203273D01*
X92224404Y-48203273D02*
X92319642Y-48155654D01*
X92319642Y-48155654D02*
X92367261Y-48108035D01*
X92367261Y-48108035D02*
X92414880Y-48012797D01*
X92414880Y-48012797D02*
X92414880Y-47727083D01*
X92414880Y-47727083D02*
X92367261Y-47631845D01*
X92367261Y-47631845D02*
X92319642Y-47584226D01*
X91414880Y-49060416D02*
X91414880Y-48869940D01*
X91414880Y-48869940D02*
X91462500Y-48774702D01*
X91462500Y-48774702D02*
X91510119Y-48727083D01*
X91510119Y-48727083D02*
X91652976Y-48631845D01*
X91652976Y-48631845D02*
X91843452Y-48584226D01*
X91843452Y-48584226D02*
X92224404Y-48584226D01*
X92224404Y-48584226D02*
X92319642Y-48631845D01*
X92319642Y-48631845D02*
X92367261Y-48679464D01*
X92367261Y-48679464D02*
X92414880Y-48774702D01*
X92414880Y-48774702D02*
X92414880Y-48965178D01*
X92414880Y-48965178D02*
X92367261Y-49060416D01*
X92367261Y-49060416D02*
X92319642Y-49108035D01*
X92319642Y-49108035D02*
X92224404Y-49155654D01*
X92224404Y-49155654D02*
X91986309Y-49155654D01*
X91986309Y-49155654D02*
X91891071Y-49108035D01*
X91891071Y-49108035D02*
X91843452Y-49060416D01*
X91843452Y-49060416D02*
X91795833Y-48965178D01*
X91795833Y-48965178D02*
X91795833Y-48774702D01*
X91795833Y-48774702D02*
X91843452Y-48679464D01*
X91843452Y-48679464D02*
X91891071Y-48631845D01*
X91891071Y-48631845D02*
X91986309Y-48584226D01*
X194014880Y-84779464D02*
X193014880Y-84779464D01*
X193014880Y-84779464D02*
X193014880Y-85017559D01*
X193014880Y-85017559D02*
X193062500Y-85160416D01*
X193062500Y-85160416D02*
X193157738Y-85255654D01*
X193157738Y-85255654D02*
X193252976Y-85303273D01*
X193252976Y-85303273D02*
X193443452Y-85350892D01*
X193443452Y-85350892D02*
X193586309Y-85350892D01*
X193586309Y-85350892D02*
X193776785Y-85303273D01*
X193776785Y-85303273D02*
X193872023Y-85255654D01*
X193872023Y-85255654D02*
X193967261Y-85160416D01*
X193967261Y-85160416D02*
X194014880Y-85017559D01*
X194014880Y-85017559D02*
X194014880Y-84779464D01*
X193014880Y-86208035D02*
X193014880Y-86017559D01*
X193014880Y-86017559D02*
X193062500Y-85922321D01*
X193062500Y-85922321D02*
X193110119Y-85874702D01*
X193110119Y-85874702D02*
X193252976Y-85779464D01*
X193252976Y-85779464D02*
X193443452Y-85731845D01*
X193443452Y-85731845D02*
X193824404Y-85731845D01*
X193824404Y-85731845D02*
X193919642Y-85779464D01*
X193919642Y-85779464D02*
X193967261Y-85827083D01*
X193967261Y-85827083D02*
X194014880Y-85922321D01*
X194014880Y-85922321D02*
X194014880Y-86112797D01*
X194014880Y-86112797D02*
X193967261Y-86208035D01*
X193967261Y-86208035D02*
X193919642Y-86255654D01*
X193919642Y-86255654D02*
X193824404Y-86303273D01*
X193824404Y-86303273D02*
X193586309Y-86303273D01*
X193586309Y-86303273D02*
X193491071Y-86255654D01*
X193491071Y-86255654D02*
X193443452Y-86208035D01*
X193443452Y-86208035D02*
X193395833Y-86112797D01*
X193395833Y-86112797D02*
X193395833Y-85922321D01*
X193395833Y-85922321D02*
X193443452Y-85827083D01*
X193443452Y-85827083D02*
X193491071Y-85779464D01*
X193491071Y-85779464D02*
X193586309Y-85731845D01*
X193348214Y-87160416D02*
X194014880Y-87160416D01*
X192967261Y-86922321D02*
X193681547Y-86684226D01*
X193681547Y-86684226D02*
X193681547Y-87303273D01*
X17340416Y-40565892D02*
X17388035Y-40613511D01*
X17388035Y-40613511D02*
X17530892Y-40661130D01*
X17530892Y-40661130D02*
X17626130Y-40661130D01*
X17626130Y-40661130D02*
X17768987Y-40613511D01*
X17768987Y-40613511D02*
X17864225Y-40518273D01*
X17864225Y-40518273D02*
X17911844Y-40423035D01*
X17911844Y-40423035D02*
X17959463Y-40232559D01*
X17959463Y-40232559D02*
X17959463Y-40089702D01*
X17959463Y-40089702D02*
X17911844Y-39899226D01*
X17911844Y-39899226D02*
X17864225Y-39803988D01*
X17864225Y-39803988D02*
X17768987Y-39708750D01*
X17768987Y-39708750D02*
X17626130Y-39661130D01*
X17626130Y-39661130D02*
X17530892Y-39661130D01*
X17530892Y-39661130D02*
X17388035Y-39708750D01*
X17388035Y-39708750D02*
X17340416Y-39756369D01*
X16959463Y-39756369D02*
X16911844Y-39708750D01*
X16911844Y-39708750D02*
X16816606Y-39661130D01*
X16816606Y-39661130D02*
X16578511Y-39661130D01*
X16578511Y-39661130D02*
X16483273Y-39708750D01*
X16483273Y-39708750D02*
X16435654Y-39756369D01*
X16435654Y-39756369D02*
X16388035Y-39851607D01*
X16388035Y-39851607D02*
X16388035Y-39946845D01*
X16388035Y-39946845D02*
X16435654Y-40089702D01*
X16435654Y-40089702D02*
X17007082Y-40661130D01*
X17007082Y-40661130D02*
X16388035Y-40661130D01*
X40576130Y-16741845D02*
X41385654Y-16741845D01*
X41385654Y-16741845D02*
X41480892Y-16789464D01*
X41480892Y-16789464D02*
X41528511Y-16837083D01*
X41528511Y-16837083D02*
X41576130Y-16932321D01*
X41576130Y-16932321D02*
X41576130Y-17122797D01*
X41576130Y-17122797D02*
X41528511Y-17218035D01*
X41528511Y-17218035D02*
X41480892Y-17265654D01*
X41480892Y-17265654D02*
X41385654Y-17313273D01*
X41385654Y-17313273D02*
X40576130Y-17313273D01*
X41576130Y-18313274D02*
X41576130Y-17741846D01*
X41576130Y-18027560D02*
X40576130Y-18027560D01*
X40576130Y-18027560D02*
X40718988Y-17932322D01*
X40718988Y-17932322D02*
X40814226Y-17837084D01*
X40814226Y-17837084D02*
X40861845Y-17741846D01*
X43346380Y-65587714D02*
X42346380Y-65587714D01*
X42346380Y-65587714D02*
X42346380Y-65825809D01*
X42346380Y-65825809D02*
X42394000Y-65968666D01*
X42394000Y-65968666D02*
X42489238Y-66063904D01*
X42489238Y-66063904D02*
X42584476Y-66111523D01*
X42584476Y-66111523D02*
X42774952Y-66159142D01*
X42774952Y-66159142D02*
X42917809Y-66159142D01*
X42917809Y-66159142D02*
X43108285Y-66111523D01*
X43108285Y-66111523D02*
X43203523Y-66063904D01*
X43203523Y-66063904D02*
X43298761Y-65968666D01*
X43298761Y-65968666D02*
X43346380Y-65825809D01*
X43346380Y-65825809D02*
X43346380Y-65587714D01*
X42346380Y-67016285D02*
X42346380Y-66825809D01*
X42346380Y-66825809D02*
X42394000Y-66730571D01*
X42394000Y-66730571D02*
X42441619Y-66682952D01*
X42441619Y-66682952D02*
X42584476Y-66587714D01*
X42584476Y-66587714D02*
X42774952Y-66540095D01*
X42774952Y-66540095D02*
X43155904Y-66540095D01*
X43155904Y-66540095D02*
X43251142Y-66587714D01*
X43251142Y-66587714D02*
X43298761Y-66635333D01*
X43298761Y-66635333D02*
X43346380Y-66730571D01*
X43346380Y-66730571D02*
X43346380Y-66921047D01*
X43346380Y-66921047D02*
X43298761Y-67016285D01*
X43298761Y-67016285D02*
X43251142Y-67063904D01*
X43251142Y-67063904D02*
X43155904Y-67111523D01*
X43155904Y-67111523D02*
X42917809Y-67111523D01*
X42917809Y-67111523D02*
X42822571Y-67063904D01*
X42822571Y-67063904D02*
X42774952Y-67016285D01*
X42774952Y-67016285D02*
X42727333Y-66921047D01*
X42727333Y-66921047D02*
X42727333Y-66730571D01*
X42727333Y-66730571D02*
X42774952Y-66635333D01*
X42774952Y-66635333D02*
X42822571Y-66587714D01*
X42822571Y-66587714D02*
X42917809Y-66540095D01*
X43346380Y-67587714D02*
X43346380Y-67778190D01*
X43346380Y-67778190D02*
X43298761Y-67873428D01*
X43298761Y-67873428D02*
X43251142Y-67921047D01*
X43251142Y-67921047D02*
X43108285Y-68016285D01*
X43108285Y-68016285D02*
X42917809Y-68063904D01*
X42917809Y-68063904D02*
X42536857Y-68063904D01*
X42536857Y-68063904D02*
X42441619Y-68016285D01*
X42441619Y-68016285D02*
X42394000Y-67968666D01*
X42394000Y-67968666D02*
X42346380Y-67873428D01*
X42346380Y-67873428D02*
X42346380Y-67682952D01*
X42346380Y-67682952D02*
X42394000Y-67587714D01*
X42394000Y-67587714D02*
X42441619Y-67540095D01*
X42441619Y-67540095D02*
X42536857Y-67492476D01*
X42536857Y-67492476D02*
X42774952Y-67492476D01*
X42774952Y-67492476D02*
X42870190Y-67540095D01*
X42870190Y-67540095D02*
X42917809Y-67587714D01*
X42917809Y-67587714D02*
X42965428Y-67682952D01*
X42965428Y-67682952D02*
X42965428Y-67873428D01*
X42965428Y-67873428D02*
X42917809Y-67968666D01*
X42917809Y-67968666D02*
X42870190Y-68016285D01*
X42870190Y-68016285D02*
X42774952Y-68063904D01*
X84875380Y-83494714D02*
X83875380Y-83494714D01*
X83875380Y-83494714D02*
X83875380Y-83732809D01*
X83875380Y-83732809D02*
X83923000Y-83875666D01*
X83923000Y-83875666D02*
X84018238Y-83970904D01*
X84018238Y-83970904D02*
X84113476Y-84018523D01*
X84113476Y-84018523D02*
X84303952Y-84066142D01*
X84303952Y-84066142D02*
X84446809Y-84066142D01*
X84446809Y-84066142D02*
X84637285Y-84018523D01*
X84637285Y-84018523D02*
X84732523Y-83970904D01*
X84732523Y-83970904D02*
X84827761Y-83875666D01*
X84827761Y-83875666D02*
X84875380Y-83732809D01*
X84875380Y-83732809D02*
X84875380Y-83494714D01*
X83875380Y-84399476D02*
X83875380Y-85066142D01*
X83875380Y-85066142D02*
X84875380Y-84637571D01*
X83875380Y-85637571D02*
X83875380Y-85732809D01*
X83875380Y-85732809D02*
X83923000Y-85828047D01*
X83923000Y-85828047D02*
X83970619Y-85875666D01*
X83970619Y-85875666D02*
X84065857Y-85923285D01*
X84065857Y-85923285D02*
X84256333Y-85970904D01*
X84256333Y-85970904D02*
X84494428Y-85970904D01*
X84494428Y-85970904D02*
X84684904Y-85923285D01*
X84684904Y-85923285D02*
X84780142Y-85875666D01*
X84780142Y-85875666D02*
X84827761Y-85828047D01*
X84827761Y-85828047D02*
X84875380Y-85732809D01*
X84875380Y-85732809D02*
X84875380Y-85637571D01*
X84875380Y-85637571D02*
X84827761Y-85542333D01*
X84827761Y-85542333D02*
X84780142Y-85494714D01*
X84780142Y-85494714D02*
X84684904Y-85447095D01*
X84684904Y-85447095D02*
X84494428Y-85399476D01*
X84494428Y-85399476D02*
X84256333Y-85399476D01*
X84256333Y-85399476D02*
X84065857Y-85447095D01*
X84065857Y-85447095D02*
X83970619Y-85494714D01*
X83970619Y-85494714D02*
X83923000Y-85542333D01*
X83923000Y-85542333D02*
X83875380Y-85637571D01*
X157773380Y-83621714D02*
X156773380Y-83621714D01*
X156773380Y-83621714D02*
X156773380Y-83859809D01*
X156773380Y-83859809D02*
X156821000Y-84002666D01*
X156821000Y-84002666D02*
X156916238Y-84097904D01*
X156916238Y-84097904D02*
X157011476Y-84145523D01*
X157011476Y-84145523D02*
X157201952Y-84193142D01*
X157201952Y-84193142D02*
X157344809Y-84193142D01*
X157344809Y-84193142D02*
X157535285Y-84145523D01*
X157535285Y-84145523D02*
X157630523Y-84097904D01*
X157630523Y-84097904D02*
X157725761Y-84002666D01*
X157725761Y-84002666D02*
X157773380Y-83859809D01*
X157773380Y-83859809D02*
X157773380Y-83621714D01*
X156773380Y-84526476D02*
X156773380Y-85193142D01*
X156773380Y-85193142D02*
X157773380Y-84764571D01*
X157773380Y-86097904D02*
X157773380Y-85526476D01*
X157773380Y-85812190D02*
X156773380Y-85812190D01*
X156773380Y-85812190D02*
X156916238Y-85716952D01*
X156916238Y-85716952D02*
X157011476Y-85621714D01*
X157011476Y-85621714D02*
X157059095Y-85526476D01*
D11*
X288412422Y-19506000D02*
X288929578Y-19506000D01*
X288412422Y-18086000D02*
X288929578Y-18086000D01*
X293238422Y-19506000D02*
X293755578Y-19506000D01*
X293238422Y-18086000D02*
X293755578Y-18086000D01*
X24107936Y-16210000D02*
X25312064Y-16210000D01*
X24107936Y-18030000D02*
X25312064Y-18030000D01*
X66765000Y-14393750D02*
X64265000Y-14393750D01*
X64265000Y-14393750D02*
X64265000Y-15443750D01*
X64265000Y-15443750D02*
X63275000Y-15443750D01*
X68735000Y-15563750D02*
X68735000Y-19443750D01*
X66765000Y-20613750D02*
X64265000Y-20613750D01*
X64265000Y-20613750D02*
X64265000Y-19563750D01*
X32081422Y-18043750D02*
X32598578Y-18043750D01*
X32081422Y-19463750D02*
X32598578Y-19463750D01*
X32081422Y-15543750D02*
X32598578Y-15543750D01*
X32081422Y-16963750D02*
X32598578Y-16963750D01*
X52493750Y-36485000D02*
X52493750Y-34485000D01*
X53543750Y-33185000D02*
X53993750Y-32735000D01*
X53543750Y-37785000D02*
X53993750Y-38235000D01*
X53993750Y-32735000D02*
X56493750Y-32735000D01*
X53993750Y-38235000D02*
X56493750Y-38235000D01*
X56943750Y-33185000D02*
X56493750Y-32735000D01*
X56943750Y-37785000D02*
X56493750Y-38235000D01*
X57993750Y-36485000D02*
X57993750Y-34485000D01*
X41218578Y-35580000D02*
X40701422Y-35580000D01*
X41218578Y-34160000D02*
X40701422Y-34160000D01*
X23382328Y-29460000D02*
X22865172Y-29460000D01*
X23382328Y-28040000D02*
X22865172Y-28040000D01*
X31801422Y-46200000D02*
X32318578Y-46200000D01*
X31801422Y-47620000D02*
X32318578Y-47620000D01*
D10*
X33728750Y-32583750D02*
X33053750Y-32583750D01*
X33728750Y-32583750D02*
X33728750Y-33258750D01*
X23953750Y-32583750D02*
X23953750Y-31308750D01*
X23378750Y-32583750D02*
X23953750Y-32583750D01*
X23378750Y-32583750D02*
X23378750Y-33258750D01*
X33728750Y-42933750D02*
X33728750Y-42258750D01*
X33728750Y-42933750D02*
X33053750Y-42933750D01*
X23378750Y-42933750D02*
X23378750Y-42258750D01*
X23378750Y-42933750D02*
X24053750Y-42933750D01*
D11*
X42960000Y-39320000D02*
X38960000Y-39320000D01*
X42960000Y-36020000D02*
X42960000Y-39320000D01*
X37870000Y-33661422D02*
X37870000Y-34178578D01*
X36450000Y-33661422D02*
X36450000Y-34178578D01*
X50420000Y-34261422D02*
X50420000Y-34778578D01*
X49000000Y-34261422D02*
X49000000Y-34778578D01*
X15937500Y-12043750D02*
X15937500Y-8143750D01*
X17937500Y-12043750D02*
X15937500Y-12043750D01*
X17937500Y-12043750D02*
X17937500Y-8143750D01*
X19112500Y-12043750D02*
X19112500Y-8143750D01*
X21112500Y-12043750D02*
X19112500Y-12043750D01*
X21112500Y-12043750D02*
X21112500Y-8143750D01*
X36575000Y-12043750D02*
X36575000Y-8143750D01*
X38575000Y-12043750D02*
X36575000Y-12043750D01*
X38575000Y-12043750D02*
X38575000Y-8143750D01*
X55625000Y-12043750D02*
X55625000Y-8143750D01*
X57625000Y-12043750D02*
X55625000Y-12043750D01*
X57625000Y-12043750D02*
X57625000Y-8143750D01*
X74675000Y-12043750D02*
X74675000Y-8143750D01*
X76675000Y-12043750D02*
X74675000Y-12043750D01*
X76675000Y-12043750D02*
X76675000Y-8143750D01*
X93725000Y-12043750D02*
X93725000Y-8143750D01*
X95725000Y-12043750D02*
X93725000Y-12043750D01*
X95725000Y-12043750D02*
X95725000Y-8143750D01*
X112775000Y-12043750D02*
X112775000Y-8143750D01*
X114775000Y-12043750D02*
X112775000Y-12043750D01*
X114775000Y-12043750D02*
X114775000Y-8143750D01*
X131825000Y-12043750D02*
X131825000Y-8143750D01*
X133825000Y-12043750D02*
X131825000Y-12043750D01*
X133825000Y-12043750D02*
X133825000Y-8143750D01*
X150875000Y-12043750D02*
X150875000Y-8143750D01*
X152875000Y-12043750D02*
X150875000Y-12043750D01*
X152875000Y-12043750D02*
X152875000Y-8143750D01*
X169925000Y-12043750D02*
X169925000Y-8143750D01*
X171925000Y-12043750D02*
X169925000Y-12043750D01*
X171925000Y-12043750D02*
X171925000Y-8143750D01*
X188975000Y-12043750D02*
X188975000Y-8143750D01*
X190975000Y-12043750D02*
X188975000Y-12043750D01*
X190975000Y-12043750D02*
X190975000Y-8143750D01*
X208025000Y-12043750D02*
X208025000Y-8143750D01*
X210025000Y-12043750D02*
X208025000Y-12043750D01*
X210025000Y-12043750D02*
X210025000Y-8143750D01*
X246125000Y-12043750D02*
X246125000Y-8143750D01*
X248125000Y-12043750D02*
X246125000Y-12043750D01*
X248125000Y-12043750D02*
X248125000Y-8143750D01*
X270272000Y-15712000D02*
X270272000Y-11812000D01*
X272272000Y-15712000D02*
X270272000Y-15712000D01*
X272272000Y-15712000D02*
X272272000Y-11812000D01*
X281722000Y-14367000D02*
X285622000Y-14367000D01*
X281722000Y-16367000D02*
X281722000Y-14367000D01*
X281722000Y-16367000D02*
X285622000Y-16367000D01*
X4825000Y-31887500D02*
X4825000Y-27987500D01*
X6825000Y-31887500D02*
X4825000Y-31887500D01*
X6825000Y-31887500D02*
X6825000Y-27987500D01*
X66737500Y-31093750D02*
X66737500Y-27193750D01*
X68737500Y-31093750D02*
X66737500Y-31093750D01*
X68737500Y-31093750D02*
X68737500Y-27193750D01*
X63562500Y-31093750D02*
X63562500Y-27193750D01*
X65562500Y-31093750D02*
X63562500Y-31093750D01*
X65562500Y-31093750D02*
X65562500Y-27193750D01*
X82612500Y-31093750D02*
X82612500Y-27193750D01*
X84612500Y-31093750D02*
X82612500Y-31093750D01*
X84612500Y-31093750D02*
X84612500Y-27193750D01*
X85787500Y-31093750D02*
X85787500Y-27193750D01*
X87787500Y-31093750D02*
X85787500Y-31093750D01*
X87787500Y-31093750D02*
X87787500Y-27193750D01*
X103250000Y-31093750D02*
X103250000Y-27193750D01*
X105250000Y-31093750D02*
X103250000Y-31093750D01*
X105250000Y-31093750D02*
X105250000Y-27193750D01*
X122300000Y-31093750D02*
X122300000Y-27193750D01*
X124300000Y-31093750D02*
X122300000Y-31093750D01*
X124300000Y-31093750D02*
X124300000Y-27193750D01*
X141350000Y-31093750D02*
X141350000Y-27193750D01*
X143350000Y-31093750D02*
X141350000Y-31093750D01*
X143350000Y-31093750D02*
X143350000Y-27193750D01*
X160400000Y-31093750D02*
X160400000Y-27193750D01*
X162400000Y-31093750D02*
X160400000Y-31093750D01*
X162400000Y-31093750D02*
X162400000Y-27193750D01*
X179450000Y-31093750D02*
X179450000Y-27193750D01*
X181450000Y-31093750D02*
X179450000Y-31093750D01*
X181450000Y-31093750D02*
X181450000Y-27193750D01*
X198500000Y-31093750D02*
X198500000Y-27193750D01*
X200500000Y-31093750D02*
X198500000Y-31093750D01*
X200500000Y-31093750D02*
X200500000Y-27193750D01*
X217550000Y-31093750D02*
X217550000Y-27193750D01*
X219550000Y-31093750D02*
X217550000Y-31093750D01*
X219550000Y-31093750D02*
X219550000Y-27193750D01*
X236600000Y-31093750D02*
X236600000Y-27193750D01*
X238600000Y-31093750D02*
X236600000Y-31093750D01*
X238600000Y-31093750D02*
X238600000Y-27193750D01*
X260412500Y-31093750D02*
X260412500Y-27193750D01*
X262412500Y-31093750D02*
X260412500Y-31093750D01*
X262412500Y-31093750D02*
X262412500Y-27193750D01*
X284225000Y-31093750D02*
X284225000Y-27193750D01*
X286225000Y-31093750D02*
X284225000Y-31093750D01*
X286225000Y-31093750D02*
X286225000Y-27193750D01*
X23081250Y-50143750D02*
X23081250Y-46243750D01*
X25081250Y-50143750D02*
X23081250Y-50143750D01*
X25081250Y-50143750D02*
X25081250Y-46243750D01*
X49275000Y-50143750D02*
X49275000Y-46243750D01*
X51275000Y-50143750D02*
X49275000Y-50143750D01*
X51275000Y-50143750D02*
X51275000Y-46243750D01*
X52450000Y-50143750D02*
X52450000Y-46243750D01*
X54450000Y-50143750D02*
X52450000Y-50143750D01*
X54450000Y-50143750D02*
X54450000Y-46243750D01*
X69912500Y-50143750D02*
X69912500Y-46243750D01*
X71912500Y-50143750D02*
X69912500Y-50143750D01*
X71912500Y-50143750D02*
X71912500Y-46243750D01*
X108012500Y-50143750D02*
X108012500Y-46243750D01*
X110012500Y-50143750D02*
X108012500Y-50143750D01*
X110012500Y-50143750D02*
X110012500Y-46243750D01*
X127062500Y-50143750D02*
X127062500Y-46243750D01*
X129062500Y-50143750D02*
X127062500Y-50143750D01*
X129062500Y-50143750D02*
X129062500Y-46243750D01*
X146112500Y-50143750D02*
X146112500Y-46243750D01*
X148112500Y-50143750D02*
X146112500Y-50143750D01*
X148112500Y-50143750D02*
X148112500Y-46243750D01*
X165162500Y-50143750D02*
X165162500Y-46243750D01*
X167162500Y-50143750D02*
X165162500Y-50143750D01*
X167162500Y-50143750D02*
X167162500Y-46243750D01*
X184212500Y-50143750D02*
X184212500Y-46243750D01*
X186212500Y-50143750D02*
X184212500Y-50143750D01*
X186212500Y-50143750D02*
X186212500Y-46243750D01*
X203262500Y-50143750D02*
X203262500Y-46243750D01*
X205262500Y-50143750D02*
X203262500Y-50143750D01*
X205262500Y-50143750D02*
X205262500Y-46243750D01*
X222312500Y-50143750D02*
X222312500Y-46243750D01*
X224312500Y-50143750D02*
X222312500Y-50143750D01*
X224312500Y-50143750D02*
X224312500Y-46243750D01*
X256703000Y-49165000D02*
X260603000Y-49165000D01*
X256703000Y-51165000D02*
X256703000Y-49165000D01*
X256703000Y-51165000D02*
X260603000Y-51165000D01*
X284225000Y-50143750D02*
X284225000Y-46243750D01*
X286225000Y-50143750D02*
X284225000Y-50143750D01*
X286225000Y-50143750D02*
X286225000Y-46243750D01*
X19141000Y-72882000D02*
X15241000Y-72882000D01*
X19141000Y-70882000D02*
X19141000Y-72882000D01*
X19141000Y-70882000D02*
X15241000Y-70882000D01*
X42942000Y-69052000D02*
X42942000Y-65152000D01*
X44942000Y-69052000D02*
X42942000Y-69052000D01*
X44942000Y-69052000D02*
X44942000Y-65152000D01*
X60387500Y-69193750D02*
X60387500Y-65293750D01*
X62387500Y-69193750D02*
X60387500Y-69193750D01*
X62387500Y-69193750D02*
X62387500Y-65293750D01*
X79437500Y-69193750D02*
X79437500Y-65293750D01*
X81437500Y-69193750D02*
X79437500Y-69193750D01*
X81437500Y-69193750D02*
X81437500Y-65293750D01*
X98487500Y-69193750D02*
X98487500Y-65293750D01*
X100487500Y-69193750D02*
X98487500Y-69193750D01*
X100487500Y-69193750D02*
X100487500Y-65293750D01*
X117537500Y-69193750D02*
X117537500Y-65293750D01*
X119537500Y-69193750D02*
X117537500Y-69193750D01*
X119537500Y-69193750D02*
X119537500Y-65293750D01*
X136587500Y-69193750D02*
X136587500Y-65293750D01*
X138587500Y-69193750D02*
X136587500Y-69193750D01*
X138587500Y-69193750D02*
X138587500Y-65293750D01*
X155637500Y-69193750D02*
X155637500Y-65293750D01*
X157637500Y-69193750D02*
X155637500Y-69193750D01*
X157637500Y-69193750D02*
X157637500Y-65293750D01*
X174687500Y-69193750D02*
X174687500Y-65293750D01*
X176687500Y-69193750D02*
X174687500Y-69193750D01*
X176687500Y-69193750D02*
X176687500Y-65293750D01*
X193737500Y-69193750D02*
X193737500Y-65293750D01*
X195737500Y-69193750D02*
X193737500Y-69193750D01*
X195737500Y-69193750D02*
X195737500Y-65293750D01*
X212787500Y-69193750D02*
X212787500Y-65293750D01*
X214787500Y-69193750D02*
X212787500Y-69193750D01*
X214787500Y-69193750D02*
X214787500Y-65293750D01*
X238981250Y-69193750D02*
X238981250Y-65293750D01*
X240981250Y-69193750D02*
X238981250Y-69193750D01*
X240981250Y-69193750D02*
X240981250Y-65293750D01*
X265175000Y-69193750D02*
X265175000Y-65293750D01*
X267175000Y-69193750D02*
X265175000Y-69193750D01*
X267175000Y-69193750D02*
X267175000Y-65293750D01*
X284225000Y-69193750D02*
X284225000Y-65293750D01*
X286225000Y-69193750D02*
X284225000Y-69193750D01*
X286225000Y-69193750D02*
X286225000Y-65293750D01*
X20700000Y-88243750D02*
X20700000Y-84343750D01*
X22700000Y-88243750D02*
X20700000Y-88243750D01*
X22700000Y-88243750D02*
X22700000Y-84343750D01*
X24668750Y-88243750D02*
X24668750Y-84343750D01*
X26668750Y-88243750D02*
X24668750Y-88243750D01*
X26668750Y-88243750D02*
X26668750Y-84343750D01*
X77994000Y-86959000D02*
X77994000Y-83059000D01*
X79994000Y-86959000D02*
X77994000Y-86959000D01*
X79994000Y-86959000D02*
X79994000Y-83059000D01*
X116094000Y-87213000D02*
X116094000Y-83313000D01*
X118094000Y-87213000D02*
X116094000Y-87213000D01*
X118094000Y-87213000D02*
X118094000Y-83313000D01*
X212787500Y-88243750D02*
X212787500Y-84343750D01*
X214787500Y-88243750D02*
X212787500Y-88243750D01*
X214787500Y-88243750D02*
X214787500Y-84343750D01*
X263587500Y-88243750D02*
X263587500Y-84343750D01*
X265587500Y-88243750D02*
X263587500Y-88243750D01*
X265587500Y-88243750D02*
X265587500Y-84343750D01*
X266762500Y-88243750D02*
X266762500Y-84343750D01*
X268762500Y-88243750D02*
X266762500Y-88243750D01*
X268762500Y-88243750D02*
X268762500Y-84343750D01*
X284225000Y-88243750D02*
X284225000Y-84343750D01*
X286225000Y-88243750D02*
X284225000Y-88243750D01*
X286225000Y-88243750D02*
X286225000Y-84343750D01*
X227075000Y-12043750D02*
X227075000Y-8143750D01*
X229075000Y-12043750D02*
X227075000Y-12043750D01*
X229075000Y-12043750D02*
X229075000Y-8143750D01*
X28830000Y-27211422D02*
X28830000Y-27728578D01*
X27410000Y-27211422D02*
X27410000Y-27728578D01*
X41218578Y-41180000D02*
X40701422Y-41180000D01*
X41218578Y-39760000D02*
X40701422Y-39760000D01*
X29113750Y-56208578D02*
X29113750Y-55691422D01*
X30533750Y-56208578D02*
X30533750Y-55691422D01*
X88962500Y-50143750D02*
X88962500Y-46243750D01*
X90962500Y-50143750D02*
X88962500Y-50143750D01*
X90962500Y-50143750D02*
X90962500Y-46243750D01*
X190562500Y-88243750D02*
X190562500Y-84343750D01*
X192562500Y-88243750D02*
X190562500Y-88243750D01*
X192562500Y-88243750D02*
X192562500Y-84343750D01*
X16915172Y-37848750D02*
X17432328Y-37848750D01*
X16915172Y-39268750D02*
X17432328Y-39268750D01*
X36613750Y-18403750D02*
X36613750Y-16603750D01*
X39833750Y-16603750D02*
X39833750Y-19053750D01*
X39894000Y-69052000D02*
X39894000Y-65152000D01*
X41894000Y-69052000D02*
X39894000Y-69052000D01*
X41894000Y-69052000D02*
X41894000Y-65152000D01*
X81423000Y-86959000D02*
X81423000Y-83059000D01*
X83423000Y-86959000D02*
X81423000Y-86959000D01*
X83423000Y-86959000D02*
X83423000Y-83059000D01*
X154321000Y-87086000D02*
X154321000Y-83186000D01*
X156321000Y-87086000D02*
X154321000Y-87086000D01*
X156321000Y-87086000D02*
X156321000Y-83186000D01*
%LPC*%
D12*
X299830000Y-9000000D03*
X289670000Y-9000000D03*
D13*
X290940000Y-6460000D03*
D14*
X294750000Y-9000000D03*
D13*
X297290000Y-3920000D03*
D15*
X287263000Y-6500000D03*
D16*
X287263000Y-11500000D03*
X287263000Y-9000000D03*
D17*
X294763000Y-3400000D03*
X294763000Y-14600000D03*
D16*
X301763000Y-11500000D03*
X301763000Y-6500000D03*
D18*
X287733500Y-18796000D03*
X289608500Y-18796000D03*
X292559500Y-18796000D03*
X294434500Y-18796000D03*
D12*
X3920000Y-9000000D03*
D14*
X9000000Y-9000000D03*
D12*
X14080000Y-9000000D03*
D19*
X5845000Y-5729999D03*
D13*
X6500000Y-5000000D03*
D20*
X11519999Y-4209999D03*
D13*
X11540000Y-3920000D03*
D12*
X22970000Y-9000000D03*
D14*
X28050000Y-9000000D03*
D12*
X33130000Y-9000000D03*
D19*
X24895000Y-5729999D03*
D13*
X25550000Y-5000000D03*
D20*
X30569999Y-4209999D03*
D13*
X30590000Y-3920000D03*
D12*
X42020000Y-9000000D03*
D14*
X47100000Y-9000000D03*
D12*
X52180000Y-9000000D03*
D19*
X43945000Y-5729999D03*
D13*
X44600000Y-5000000D03*
D20*
X49619999Y-4209999D03*
D13*
X49640000Y-3920000D03*
D12*
X61070000Y-9000000D03*
D14*
X66150000Y-9000000D03*
D12*
X71230000Y-9000000D03*
D19*
X62995000Y-5729999D03*
D13*
X63650000Y-5000000D03*
D20*
X68669999Y-4209999D03*
D13*
X68690000Y-3920000D03*
D12*
X80120000Y-9000000D03*
D14*
X85200000Y-9000000D03*
D12*
X90280000Y-9000000D03*
D19*
X82045000Y-5729999D03*
D13*
X82700000Y-5000000D03*
D20*
X87719999Y-4209999D03*
D13*
X87740000Y-3920000D03*
D12*
X99170000Y-9000000D03*
D14*
X104250000Y-9000000D03*
D12*
X109330000Y-9000000D03*
D19*
X101095000Y-5729999D03*
D13*
X101750000Y-5000000D03*
D20*
X106769999Y-4209999D03*
D13*
X106790000Y-3920000D03*
D12*
X118220000Y-9000000D03*
D14*
X123300000Y-9000000D03*
D12*
X128380000Y-9000000D03*
D19*
X120145000Y-5729999D03*
D13*
X120800000Y-5000000D03*
D20*
X125819999Y-4209999D03*
D13*
X125840000Y-3920000D03*
D12*
X156320000Y-9000000D03*
D14*
X161400000Y-9000000D03*
D12*
X166480000Y-9000000D03*
D19*
X158245000Y-5729999D03*
D13*
X158900000Y-5000000D03*
D20*
X163919999Y-4209999D03*
D13*
X163940000Y-3920000D03*
D12*
X175370000Y-9000000D03*
D14*
X180450000Y-9000000D03*
D12*
X185530000Y-9000000D03*
D19*
X177295000Y-5729999D03*
D13*
X177950000Y-5000000D03*
D20*
X182969999Y-4209999D03*
D13*
X182990000Y-3920000D03*
D12*
X194420000Y-9000000D03*
D14*
X199500000Y-9000000D03*
D12*
X204580000Y-9000000D03*
D19*
X196345000Y-5729999D03*
D13*
X197000000Y-5000000D03*
D20*
X202019999Y-4209999D03*
D13*
X202040000Y-3920000D03*
D12*
X213470000Y-9000000D03*
D14*
X218550000Y-9000000D03*
D12*
X223630000Y-9000000D03*
D19*
X215395000Y-5729999D03*
D13*
X216050000Y-5000000D03*
D20*
X221069999Y-4209999D03*
D13*
X221090000Y-3920000D03*
D12*
X232520000Y-9000000D03*
D14*
X237600000Y-9000000D03*
D12*
X242680000Y-9000000D03*
D19*
X234445000Y-5729999D03*
D13*
X235100000Y-5000000D03*
D20*
X240119999Y-4209999D03*
D13*
X240140000Y-3920000D03*
D12*
X251570000Y-9000000D03*
D14*
X256650000Y-9000000D03*
D12*
X261730000Y-9000000D03*
D19*
X253495000Y-5729999D03*
D13*
X254150000Y-5000000D03*
D20*
X259169999Y-4209999D03*
D13*
X259190000Y-3920000D03*
D21*
X254237000Y-2015000D03*
D14*
X254237000Y-17255000D03*
D12*
X261095000Y-9000000D03*
D14*
X266175000Y-9000000D03*
D12*
X271255000Y-9000000D03*
D21*
X278113000Y-2015000D03*
D14*
X278113000Y-17255000D03*
D19*
X263020000Y-5729999D03*
D13*
X263675000Y-5000000D03*
D20*
X268694999Y-4209999D03*
D13*
X268715000Y-3920000D03*
D12*
X8682500Y-28050000D03*
D14*
X13762500Y-28050000D03*
D12*
X18842500Y-28050000D03*
D19*
X10607500Y-24779999D03*
D13*
X11262500Y-24050000D03*
D20*
X16282499Y-23259999D03*
D13*
X16302500Y-22970000D03*
X35075000Y-24050000D03*
X40075000Y-23550000D03*
X54125000Y-24050000D03*
X59125000Y-23550000D03*
X73175000Y-24050000D03*
X78175000Y-23550000D03*
X92225000Y-24050000D03*
X97225000Y-23550000D03*
X111275000Y-24050000D03*
X116275000Y-23550000D03*
X130325000Y-24050000D03*
X135325000Y-23550000D03*
X149375000Y-24050000D03*
X154375000Y-23550000D03*
X168425000Y-24050000D03*
X173425000Y-23550000D03*
X187475000Y-24050000D03*
X192475000Y-23550000D03*
X206525000Y-24050000D03*
X211525000Y-23550000D03*
X225575000Y-24050000D03*
X230575000Y-23550000D03*
X244625000Y-24050000D03*
X249625000Y-23550000D03*
D12*
X265857500Y-28050000D03*
D14*
X270937500Y-28050000D03*
D12*
X276017500Y-28050000D03*
D19*
X267782500Y-24779999D03*
D13*
X268437500Y-24050000D03*
D20*
X273457499Y-23259999D03*
D13*
X273477500Y-22970000D03*
D12*
X289670000Y-28050000D03*
D14*
X294750000Y-28050000D03*
D12*
X299830000Y-28050000D03*
D19*
X291595000Y-24779999D03*
D13*
X292250000Y-24050000D03*
D20*
X297269999Y-23259999D03*
D13*
X297290000Y-22970000D03*
D12*
X16461250Y-47100000D03*
D14*
X11381250Y-47100000D03*
D12*
X6301250Y-47100000D03*
D22*
X14536248Y-50369999D03*
D13*
X13881250Y-51100000D03*
D23*
X8861249Y-51889999D03*
D13*
X8841250Y-52180000D03*
D12*
X11063750Y-47100000D03*
D14*
X16143750Y-47100000D03*
D12*
X21223750Y-47100000D03*
D19*
X12988750Y-43829999D03*
D13*
X13643750Y-43100000D03*
D20*
X18663749Y-42309999D03*
D13*
X18683750Y-42020000D03*
X39837500Y-43100000D03*
X44837500Y-42600000D03*
X58887500Y-43100000D03*
X63887500Y-42600000D03*
X77937500Y-43100000D03*
X82937500Y-42600000D03*
X96987500Y-43100000D03*
X101987500Y-42600000D03*
X116037500Y-43100000D03*
X121037500Y-42600000D03*
X135087500Y-43100000D03*
X140087500Y-42600000D03*
X154137500Y-43100000D03*
X159137500Y-42600000D03*
X173187500Y-43100000D03*
X178187500Y-42600000D03*
X192237500Y-43100000D03*
X197237500Y-42600000D03*
X211287500Y-43100000D03*
X216287500Y-42600000D03*
X230337500Y-43100000D03*
X235337500Y-42600000D03*
D21*
X251855750Y-40115000D03*
D14*
X251855750Y-55355000D03*
D12*
X258713750Y-47100000D03*
D14*
X263793750Y-47100000D03*
D12*
X268873750Y-47100000D03*
D21*
X275731750Y-40115000D03*
D14*
X275731750Y-55355000D03*
D19*
X260638750Y-43829999D03*
D13*
X261293750Y-43100000D03*
D20*
X266313749Y-42309999D03*
D13*
X266333750Y-42020000D03*
D12*
X289670000Y-47100000D03*
D14*
X294750000Y-47100000D03*
D12*
X299830000Y-47100000D03*
D19*
X291595000Y-43829999D03*
D13*
X292250000Y-43100000D03*
D20*
X297269999Y-42309999D03*
D13*
X297290000Y-42020000D03*
D21*
X8968250Y-59165000D03*
D14*
X8968250Y-74405000D03*
D12*
X15826250Y-66150000D03*
D14*
X20906250Y-66150000D03*
D12*
X25986250Y-66150000D03*
D21*
X32844250Y-59165000D03*
D14*
X32844250Y-74405000D03*
D19*
X17751250Y-62879999D03*
D13*
X18406250Y-62150000D03*
D20*
X23426249Y-61359999D03*
D13*
X23446250Y-61070000D03*
D12*
X46782500Y-66150000D03*
D14*
X51862500Y-66150000D03*
D12*
X56942500Y-66150000D03*
D19*
X48707500Y-62879999D03*
D13*
X49362500Y-62150000D03*
D20*
X54382499Y-61359999D03*
D13*
X54402500Y-61070000D03*
X68412500Y-62150000D03*
X73412500Y-61650000D03*
X87462500Y-62150000D03*
X92462500Y-61650000D03*
X106512500Y-62150000D03*
X111512500Y-61650000D03*
X125562500Y-62150000D03*
X130562500Y-61650000D03*
X144612500Y-62150000D03*
X149612500Y-61650000D03*
X163662500Y-62150000D03*
X168662500Y-61650000D03*
X182712500Y-62150000D03*
X187712500Y-61650000D03*
X201762500Y-62150000D03*
X206762500Y-61650000D03*
X220812500Y-62150000D03*
X225812500Y-61650000D03*
D12*
X244426250Y-66150000D03*
D14*
X249506250Y-66150000D03*
D12*
X254586250Y-66150000D03*
D19*
X246351250Y-62879999D03*
D13*
X247006250Y-62150000D03*
D20*
X252026249Y-61359999D03*
D13*
X252046250Y-61070000D03*
D12*
X270620000Y-66150000D03*
D14*
X275700000Y-66150000D03*
D12*
X280780000Y-66150000D03*
D19*
X272545000Y-62879999D03*
D13*
X273200000Y-62150000D03*
D20*
X278219999Y-61359999D03*
D13*
X278240000Y-61070000D03*
D12*
X289670000Y-66150000D03*
D14*
X294750000Y-66150000D03*
D12*
X299830000Y-66150000D03*
D19*
X291595000Y-62879999D03*
D13*
X292250000Y-62150000D03*
D20*
X297269999Y-61359999D03*
D13*
X297290000Y-61070000D03*
D12*
X8682500Y-85200000D03*
D14*
X13762500Y-85200000D03*
D12*
X18842500Y-85200000D03*
D19*
X10607500Y-81929999D03*
D13*
X11262500Y-81200000D03*
D20*
X16282499Y-80409999D03*
D13*
X16302500Y-80120000D03*
D12*
X32495000Y-85200000D03*
D14*
X37575000Y-85200000D03*
D12*
X42655000Y-85200000D03*
D19*
X34420000Y-81929999D03*
D13*
X35075000Y-81200000D03*
D20*
X40094999Y-80409999D03*
D13*
X40115000Y-80120000D03*
D12*
X56307500Y-85200000D03*
D14*
X61387500Y-85200000D03*
D12*
X66467500Y-85200000D03*
D19*
X58232500Y-81929999D03*
D13*
X58887500Y-81200000D03*
D20*
X63907499Y-80409999D03*
D13*
X63927500Y-80120000D03*
D12*
X196801250Y-85200000D03*
D14*
X201881250Y-85200000D03*
D12*
X206961250Y-85200000D03*
D19*
X198726250Y-81929999D03*
D13*
X199381250Y-81200000D03*
D20*
X204401249Y-80409999D03*
D13*
X204421250Y-80120000D03*
D12*
X218232500Y-85200000D03*
D14*
X223312500Y-85200000D03*
D12*
X228392500Y-85200000D03*
D19*
X220157500Y-81929999D03*
D13*
X220812500Y-81200000D03*
D20*
X225832499Y-80409999D03*
D13*
X225852500Y-80120000D03*
D12*
X251570000Y-85200000D03*
D14*
X256650000Y-85200000D03*
D12*
X261730000Y-85200000D03*
D19*
X253495000Y-81929999D03*
D13*
X254150000Y-81200000D03*
D20*
X259169999Y-80409999D03*
D13*
X259190000Y-80120000D03*
D12*
X270620000Y-85200000D03*
D14*
X275700000Y-85200000D03*
D12*
X280780000Y-85200000D03*
D19*
X272545000Y-81929999D03*
D13*
X273200000Y-81200000D03*
D20*
X278219999Y-80409999D03*
D13*
X278240000Y-80120000D03*
D12*
X289670000Y-85200000D03*
D14*
X294750000Y-85200000D03*
D12*
X299830000Y-85200000D03*
D19*
X291595000Y-81929999D03*
D13*
X292250000Y-81200000D03*
D20*
X297269999Y-80409999D03*
D13*
X297290000Y-80120000D03*
D12*
X220613750Y-85200000D03*
D14*
X225693750Y-85200000D03*
D12*
X230773750Y-85200000D03*
D19*
X222538750Y-81929999D03*
D13*
X223193750Y-81200000D03*
D20*
X228213749Y-80409999D03*
D13*
X228233750Y-80120000D03*
D14*
X85200000Y-76945000D03*
D21*
X85200000Y-92185000D03*
D12*
X137270000Y-85200000D03*
D14*
X142350000Y-85200000D03*
D12*
X147430000Y-85200000D03*
D14*
X199500000Y-76945000D03*
D21*
X199500000Y-92185000D03*
D19*
X139195000Y-81929999D03*
D13*
X139850000Y-81200000D03*
D20*
X144869999Y-80409999D03*
D13*
X144890000Y-80120000D03*
D12*
X137270000Y-9000000D03*
D14*
X142350000Y-9000000D03*
D12*
X147430000Y-9000000D03*
D19*
X139195000Y-5729999D03*
D13*
X139850000Y-5000000D03*
D20*
X144869999Y-4209999D03*
D13*
X144890000Y-3920000D03*
D12*
X270620000Y-9000000D03*
D14*
X275700000Y-9000000D03*
D12*
X280780000Y-9000000D03*
D19*
X272545000Y-5729999D03*
D13*
X273200000Y-5000000D03*
D20*
X278219999Y-4209999D03*
D13*
X278240000Y-3920000D03*
D12*
X6301250Y-85200000D03*
D14*
X11381250Y-85200000D03*
D12*
X16461250Y-85200000D03*
D19*
X8226250Y-81929999D03*
D13*
X8881250Y-81200000D03*
D20*
X13901249Y-80409999D03*
D13*
X13921250Y-80120000D03*
D12*
X30113750Y-85200000D03*
D14*
X35193750Y-85200000D03*
D12*
X40273750Y-85200000D03*
D19*
X32038750Y-81929999D03*
D13*
X32693750Y-81200000D03*
D20*
X37713749Y-80409999D03*
D13*
X37733750Y-80120000D03*
D12*
X53926250Y-85200000D03*
D14*
X59006250Y-85200000D03*
D12*
X64086250Y-85200000D03*
D19*
X55851250Y-81929999D03*
D13*
X56506250Y-81200000D03*
D20*
X61526249Y-80409999D03*
D13*
X61546250Y-80120000D03*
D14*
X80443850Y-76945000D03*
D21*
X80443850Y-92185000D03*
D12*
X125363750Y-85200000D03*
D14*
X130443750Y-85200000D03*
D12*
X135523750Y-85200000D03*
D14*
X180443650Y-76945000D03*
D21*
X180443650Y-92185000D03*
D19*
X127288750Y-81929999D03*
D13*
X127943750Y-81200000D03*
D20*
X132963749Y-80409999D03*
D13*
X132983750Y-80120000D03*
D21*
X104394000Y-92145450D03*
D14*
X104394000Y-76905450D03*
D12*
X97536000Y-85160450D03*
D14*
X92456000Y-85160450D03*
D12*
X87376000Y-85160450D03*
D21*
X80518000Y-92145450D03*
D14*
X80518000Y-76905450D03*
D22*
X95610998Y-88430449D03*
D13*
X94956000Y-89160450D03*
D23*
X89935999Y-89950449D03*
D13*
X89916000Y-90240450D03*
D12*
X65659000Y-85217000D03*
D14*
X70739000Y-85217000D03*
D12*
X75819000Y-85217000D03*
D19*
X67584000Y-81946999D03*
D13*
X68239000Y-81217000D03*
D20*
X73258999Y-80426999D03*
D13*
X73279000Y-80137000D03*
D14*
X85217000Y-76905450D03*
D21*
X85217000Y-92145450D03*
D12*
X92075000Y-85160450D03*
D14*
X97155000Y-85160450D03*
D12*
X102235000Y-85160450D03*
D14*
X109093000Y-76905450D03*
D21*
X109093000Y-92145450D03*
D19*
X94000000Y-81890449D03*
D13*
X94655000Y-81160450D03*
D20*
X99674999Y-80370449D03*
D13*
X99695000Y-80080450D03*
D12*
X47244000Y-85217000D03*
D14*
X42164000Y-85217000D03*
D12*
X37084000Y-85217000D03*
D22*
X45318998Y-88486999D03*
D13*
X44664000Y-89217000D03*
D23*
X39643999Y-90006999D03*
D13*
X39624000Y-90297000D03*
D14*
X265049000Y-25654000D03*
X265049000Y-49530000D03*
D24*
X273304000Y-32512000D03*
D14*
X273304000Y-37592000D03*
D24*
X273304000Y-42672000D03*
D21*
X280289000Y-25654000D03*
X280289000Y-49530000D03*
D13*
X275804000Y-41592000D03*
D25*
X278093999Y-40111998D03*
D13*
X278384000Y-40132000D03*
X270804000Y-42092000D03*
D26*
X276574003Y-34436994D03*
D13*
X277304000Y-35092000D03*
D14*
X156718000Y-76905450D03*
D21*
X156718000Y-92145450D03*
D12*
X163576000Y-85160450D03*
D14*
X168656000Y-85160450D03*
D12*
X173736000Y-85160450D03*
D14*
X180594000Y-76905450D03*
D21*
X180594000Y-92145450D03*
D19*
X165501000Y-81890449D03*
D13*
X166156000Y-81160450D03*
D20*
X171175999Y-80370449D03*
D13*
X171196000Y-80080450D03*
D12*
X6826250Y-66150000D03*
D14*
X11906250Y-66150000D03*
D12*
X16986250Y-66150000D03*
D19*
X8751250Y-62879999D03*
D13*
X9406250Y-62150000D03*
D20*
X14426249Y-61359999D03*
D13*
X14446250Y-61070000D03*
D12*
X140335000Y-85217000D03*
D14*
X135255000Y-85217000D03*
D12*
X130175000Y-85217000D03*
D22*
X138409998Y-88486999D03*
D13*
X137755000Y-89217000D03*
D23*
X132734999Y-90006999D03*
D13*
X132715000Y-90297000D03*
D12*
X246761000Y-47117000D03*
D14*
X251841000Y-47117000D03*
D12*
X256921000Y-47117000D03*
D19*
X248686000Y-43846999D03*
D13*
X249341000Y-43117000D03*
D20*
X254360999Y-42326999D03*
D13*
X254381000Y-42037000D03*
D21*
X175768000Y-92202000D03*
D14*
X175768000Y-76962000D03*
D12*
X168910000Y-85217000D03*
D14*
X163830000Y-85217000D03*
D12*
X158750000Y-85217000D03*
D21*
X151892000Y-92202000D03*
D14*
X151892000Y-76962000D03*
D22*
X166984998Y-88486999D03*
D13*
X166330000Y-89217000D03*
D23*
X161309999Y-90006999D03*
D13*
X161290000Y-90297000D03*
D12*
X27686000Y-66167000D03*
D14*
X32766000Y-66167000D03*
D12*
X37846000Y-66167000D03*
D19*
X29611000Y-62896999D03*
D13*
X30266000Y-62167000D03*
D20*
X35285999Y-61376999D03*
D13*
X35306000Y-61087000D03*
D21*
X197065900Y-92145450D03*
D14*
X197065900Y-76905450D03*
D12*
X152146000Y-85160450D03*
D14*
X147066000Y-85160450D03*
D12*
X141986000Y-85160450D03*
D21*
X97066100Y-92145450D03*
D14*
X97066100Y-76905450D03*
D22*
X150220998Y-88430449D03*
D13*
X149566000Y-89160450D03*
D23*
X144545999Y-89950449D03*
D13*
X144526000Y-90240450D03*
D12*
X130810000Y-85217000D03*
D14*
X125730000Y-85217000D03*
D12*
X120650000Y-85217000D03*
D22*
X128884998Y-88486999D03*
D13*
X128230000Y-89217000D03*
D23*
X123209999Y-90006999D03*
D13*
X123190000Y-90297000D03*
D27*
X23310000Y-17120000D03*
X26110000Y-17120000D03*
D28*
X64050000Y-16003750D03*
X64050000Y-17003750D03*
X64050000Y-18003750D03*
X64050000Y-19003750D03*
D29*
X67925000Y-14703750D03*
X67925000Y-20303750D03*
D30*
X5189999Y-20807500D03*
X7729999Y-20807500D03*
X5189999Y-18267500D03*
X7729999Y-18267500D03*
X5189999Y-15727500D03*
D31*
X7730000Y-15727501D03*
D18*
X31402500Y-18753750D03*
X33277500Y-18753750D03*
X31402500Y-16253750D03*
X33277500Y-16253750D03*
D32*
X52093750Y-37385000D03*
X58393750Y-37385000D03*
X52093750Y-33585000D03*
X58393750Y-33585000D03*
D33*
X41897500Y-34870000D03*
X40022500Y-34870000D03*
X24061250Y-28750000D03*
X22186250Y-28750000D03*
D18*
X31122500Y-46910000D03*
X32997500Y-46910000D03*
D34*
X24553750Y-32058750D03*
X25353750Y-32058750D03*
X26153750Y-32058750D03*
X26953750Y-32058750D03*
X27753750Y-32058750D03*
X28553750Y-32058750D03*
X29353750Y-32058750D03*
X30153750Y-32058750D03*
X30953750Y-32058750D03*
X31753750Y-32058750D03*
X32553750Y-32058750D03*
D35*
X34253750Y-33758750D03*
X34253750Y-34558750D03*
X34253750Y-35358750D03*
X34253750Y-36158750D03*
X34253750Y-36958750D03*
X34253750Y-37758750D03*
X34253750Y-38558750D03*
X34253750Y-39358750D03*
X34253750Y-40158750D03*
X34253750Y-40958750D03*
X34253750Y-41758750D03*
D34*
X32553750Y-43458750D03*
X31753750Y-43458750D03*
X30953750Y-43458750D03*
X30153750Y-43458750D03*
X29353750Y-43458750D03*
X28553750Y-43458750D03*
X27753750Y-43458750D03*
X26953750Y-43458750D03*
X26153750Y-43458750D03*
X25353750Y-43458750D03*
X24553750Y-43458750D03*
D35*
X22853750Y-41758750D03*
X22853750Y-40958750D03*
X22853750Y-40158750D03*
X22853750Y-39358750D03*
X22853750Y-38558750D03*
X22853750Y-37758750D03*
X22853750Y-36958750D03*
X22853750Y-36158750D03*
X22853750Y-35358750D03*
X22853750Y-34558750D03*
X22853750Y-33758750D03*
D36*
X42060000Y-38520000D03*
X39860000Y-38520000D03*
X39860000Y-36820000D03*
X42060000Y-36820000D03*
D37*
X37160000Y-32982500D03*
X37160000Y-34857500D03*
X49710000Y-33582500D03*
X49710000Y-35457500D03*
D38*
X16937500Y-11443750D03*
X16937500Y-8143750D03*
X20112500Y-11443750D03*
X20112500Y-8143750D03*
X37575000Y-11443750D03*
X37575000Y-8143750D03*
X56625000Y-11443750D03*
X56625000Y-8143750D03*
X75675000Y-11443750D03*
X75675000Y-8143750D03*
X94725000Y-11443750D03*
X94725000Y-8143750D03*
X113775000Y-11443750D03*
X113775000Y-8143750D03*
X132825000Y-11443750D03*
X132825000Y-8143750D03*
X151875000Y-11443750D03*
X151875000Y-8143750D03*
X170925000Y-11443750D03*
X170925000Y-8143750D03*
X189975000Y-11443750D03*
X189975000Y-8143750D03*
X209025000Y-11443750D03*
X209025000Y-8143750D03*
X247125000Y-11443750D03*
X247125000Y-8143750D03*
X271272000Y-15112000D03*
X271272000Y-11812000D03*
D39*
X282322000Y-15367000D03*
X285622000Y-15367000D03*
D38*
X5825000Y-31287500D03*
X5825000Y-27987500D03*
X67737500Y-30493750D03*
X67737500Y-27193750D03*
X64562500Y-30493750D03*
X64562500Y-27193750D03*
X83612500Y-30493750D03*
X83612500Y-27193750D03*
X86787500Y-30493750D03*
X86787500Y-27193750D03*
X104250000Y-30493750D03*
X104250000Y-27193750D03*
X123300000Y-30493750D03*
X123300000Y-27193750D03*
X142350000Y-30493750D03*
X142350000Y-27193750D03*
X161400000Y-30493750D03*
X161400000Y-27193750D03*
X180450000Y-30493750D03*
X180450000Y-27193750D03*
X199500000Y-30493750D03*
X199500000Y-27193750D03*
X218550000Y-30493750D03*
X218550000Y-27193750D03*
X237600000Y-30493750D03*
X237600000Y-27193750D03*
X261412500Y-30493750D03*
X261412500Y-27193750D03*
X285225000Y-30493750D03*
X285225000Y-27193750D03*
X24081250Y-49543750D03*
X24081250Y-46243750D03*
X50275000Y-49543750D03*
X50275000Y-46243750D03*
X53450000Y-49543750D03*
X53450000Y-46243750D03*
X70912500Y-49543750D03*
X70912500Y-46243750D03*
X109012500Y-49543750D03*
X109012500Y-46243750D03*
X128062500Y-49543750D03*
X128062500Y-46243750D03*
X147112500Y-49543750D03*
X147112500Y-46243750D03*
X166162500Y-49543750D03*
X166162500Y-46243750D03*
X185212500Y-49543750D03*
X185212500Y-46243750D03*
X204262500Y-49543750D03*
X204262500Y-46243750D03*
X223312500Y-49543750D03*
X223312500Y-46243750D03*
D39*
X257303000Y-50165000D03*
X260603000Y-50165000D03*
D38*
X285225000Y-49543750D03*
X285225000Y-46243750D03*
D40*
X18541000Y-71882000D03*
X15241000Y-71882000D03*
D38*
X43942000Y-68452000D03*
X43942000Y-65152000D03*
X61387500Y-68593750D03*
X61387500Y-65293750D03*
X80437500Y-68593750D03*
X80437500Y-65293750D03*
X99487500Y-68593750D03*
X99487500Y-65293750D03*
X118537500Y-68593750D03*
X118537500Y-65293750D03*
X137587500Y-68593750D03*
X137587500Y-65293750D03*
X156637500Y-68593750D03*
X156637500Y-65293750D03*
X175687500Y-68593750D03*
X175687500Y-65293750D03*
X194737500Y-68593750D03*
X194737500Y-65293750D03*
X213787500Y-68593750D03*
X213787500Y-65293750D03*
X239981250Y-68593750D03*
X239981250Y-65293750D03*
X266175000Y-68593750D03*
X266175000Y-65293750D03*
X285225000Y-68593750D03*
X285225000Y-65293750D03*
X21700000Y-87643750D03*
X21700000Y-84343750D03*
X25668750Y-87643750D03*
X25668750Y-84343750D03*
X78994000Y-86359000D03*
X78994000Y-83059000D03*
X117094000Y-86613000D03*
X117094000Y-83313000D03*
X213787500Y-87643750D03*
X213787500Y-84343750D03*
X264587500Y-87643750D03*
X264587500Y-84343750D03*
X267762500Y-87643750D03*
X267762500Y-84343750D03*
X285225000Y-87643750D03*
X285225000Y-84343750D03*
X228075000Y-11443750D03*
X228075000Y-8143750D03*
D37*
X28120000Y-26532500D03*
X28120000Y-28407500D03*
D33*
X41897500Y-40470000D03*
X40022500Y-40470000D03*
D41*
X29823750Y-56887500D03*
X29823750Y-55012500D03*
D38*
X89962500Y-49543750D03*
X89962500Y-46243750D03*
X191562500Y-87643750D03*
X191562500Y-84343750D03*
D18*
X16236250Y-38558750D03*
X18111250Y-38558750D03*
D42*
X39173750Y-18603750D03*
X38223750Y-18603750D03*
X37273750Y-18603750D03*
X37273750Y-16403750D03*
X38223750Y-16403750D03*
X39173750Y-16403750D03*
D38*
X40894000Y-68452000D03*
X40894000Y-65152000D03*
X82423000Y-86359000D03*
X82423000Y-83059000D03*
X155321000Y-86486000D03*
X155321000Y-83186000D03*
M02*
